<mxfile host="app.diagrams.net" agent="Mozilla/5.0 (Windows NT 10.0; Win64; x64) AppleWebKit/537.36 (KHTML, like Gecko) Chrome/138.0.0.0 Safari/537.36 OPR/122.0.0.0" version="28.2.5">
  <diagram name="PÃ¡gina-1" id="gQ4HwmNtMKRJkQ3HhF9p">
    <mxGraphModel grid="1" page="1" gridSize="10" guides="1" tooltips="1" connect="1" arrows="1" fold="1" pageScale="1" pageWidth="850" pageHeight="1100" math="0" shadow="0">
      <root>
        <mxCell id="0" />
        <mxCell id="1" parent="0" />
        <mxCell id="NQIB0_0cbsQpVoIs0iVq-1" value="" style="shape=image;html=1;verticalAlign=top;verticalLabelPosition=bottom;labelBackgroundColor=#ffffff;imageAspect=0;aspect=fixed;image=https://icons.diagrams.net/icon-cache1/Miu_Black_Social-2261/github-1223.svg" vertex="1" parent="1">
          <mxGeometry x="40" y="140" width="120" height="120" as="geometry" />
        </mxCell>
        <mxCell id="NQIB0_0cbsQpVoIs0iVq-2" value="" style="rounded=0;whiteSpace=wrap;html=1;" vertex="1" parent="1">
          <mxGeometry x="40" y="300.8" width="610" height="220" as="geometry" />
        </mxCell>
        <mxCell id="NQIB0_0cbsQpVoIs0iVq-3" style="edgeStyle=orthogonalEdgeStyle;rounded=0;orthogonalLoop=1;jettySize=auto;html=1;" edge="1" parent="1" source="NQIB0_0cbsQpVoIs0iVq-4" target="NQIB0_0cbsQpVoIs0iVq-10">
          <mxGeometry relative="1" as="geometry" />
        </mxCell>
        <mxCell id="N333sM3rX7YaFP_htE1L-2" value="4&lt;div&gt;&lt;br&gt;&lt;/div&gt;" style="edgeLabel;html=1;align=center;verticalAlign=middle;resizable=0;points=[];" vertex="1" connectable="0" parent="NQIB0_0cbsQpVoIs0iVq-3">
          <mxGeometry x="0.3846" y="2" relative="1" as="geometry">
            <mxPoint x="1" y="1" as="offset" />
          </mxGeometry>
        </mxCell>
        <mxCell id="oWz8tY7s5ePtf9KsM1_T-2" value="2" style="edgeStyle=orthogonalEdgeStyle;rounded=0;orthogonalLoop=1;jettySize=auto;html=1;" edge="1" parent="1" source="NQIB0_0cbsQpVoIs0iVq-4" target="oWz8tY7s5ePtf9KsM1_T-1">
          <mxGeometry relative="1" as="geometry" />
        </mxCell>
        <mxCell id="NQIB0_0cbsQpVoIs0iVq-4" value="User&lt;div&gt;&lt;br&gt;&lt;/div&gt;" style="shape=umlActor;verticalLabelPosition=bottom;verticalAlign=top;html=1;outlineConnect=0;" vertex="1" parent="1">
          <mxGeometry x="85" y="380" width="30" height="60" as="geometry" />
        </mxCell>
        <mxCell id="NQIB0_0cbsQpVoIs0iVq-5" style="edgeStyle=orthogonalEdgeStyle;rounded=0;orthogonalLoop=1;jettySize=auto;html=1;" edge="1" parent="1" target="NQIB0_0cbsQpVoIs0iVq-4">
          <mxGeometry relative="1" as="geometry">
            <mxPoint x="100" y="260" as="sourcePoint" />
          </mxGeometry>
        </mxCell>
        <mxCell id="N333sM3rX7YaFP_htE1L-1" value="1" style="edgeLabel;html=1;align=center;verticalAlign=middle;resizable=0;points=[];" vertex="1" connectable="0" parent="NQIB0_0cbsQpVoIs0iVq-5">
          <mxGeometry x="-0.0037" y="4" relative="1" as="geometry">
            <mxPoint as="offset" />
          </mxGeometry>
        </mxCell>
        <mxCell id="NQIB0_0cbsQpVoIs0iVq-6" value="&lt;b&gt;&lt;i&gt;Local&lt;/i&gt;&lt;/b&gt;" style="text;html=1;align=center;verticalAlign=middle;whiteSpace=wrap;rounded=0;fontStyle=4;fontSize=17;" vertex="1" parent="1">
          <mxGeometry x="560" y="480" width="90" height="50" as="geometry" />
        </mxCell>
        <mxCell id="NQIB0_0cbsQpVoIs0iVq-7" style="edgeStyle=orthogonalEdgeStyle;rounded=0;orthogonalLoop=1;jettySize=auto;html=1;" edge="1" parent="1" source="NQIB0_0cbsQpVoIs0iVq-8" target="NQIB0_0cbsQpVoIs0iVq-11">
          <mxGeometry relative="1" as="geometry" />
        </mxCell>
        <mxCell id="NQIB0_0cbsQpVoIs0iVq-8" value="" style="shape=image;verticalLabelPosition=bottom;labelBackgroundColor=default;verticalAlign=top;aspect=fixed;imageAspect=0;image=data:image/png,iVBORw0KGgoAAAANSUhEUgAAAOEAAADhCAIAAACx0UUtAAAgAElEQVR4Ae19y2tU2dtucf4L/wQ5wzOLNPibKeKgOwQxJIYQiRBNoj1If40hNN+kkzNQlIaOQp8WOt3ioEwqSZmLxmijMXRTTYyEEBx8ZQwGrEnoVAYFRdXJWs+up95aa9euXdeUuqWQlf2u9V6fdV977VA2+Bd4oLk9EGpu9QLtAg9kA4wGIGh2DwQYbfYIBfoFGA0w0OweCDDa7BEK9AswGmCg2T0QYLTZIxToF2A0wECzeyDAaLNHKNAvwGiAgWb3QIDRZo9QoF+A0QADze6BAoxm9L9sNpvJZGzF8bAeJJsnZdkkqEdVDT3x3KOUq3XFuIG5K7fqSa5s8dCVVI1EV6v5sObiPPzpSqLVrpq4YLQYFzy3ufB5rUgShbXi6aFkg8VJTRpgnRRn1OdPxfCmwGiDQ9VgcQYyJGgarIkhrnk08a4tTYFRI4reGkvPGgUrI33e4jx80mDDpSZGbfHWpACjRsiDPwMPNIMHQhLdhkJHRSqrktVcSVmnDYdUTyrLtOrFeehva9Jgcf4Dl8doWfb4FyDZepSqq4OkDkg3jyZfrOEeITBIzYJRqZZdxSXVAFzNSQ0GTYPFebirrppUE1MHo0bgjcbGptLUmpNsYxrsu7qKs93VYHEM3Cfk54I5EwyA12xvwqpitlVTqhhP6mMoQ0cbz/3E21XPYoLA31W96kl1Ymv7xENV6NBITYq52iOmLhh15UIWtj3Vk+rB0wiVh5IS2Q3WpMHiDJ98KoZ/iRg9WmTI2vLFalKW4V8iRo3m5AhBU1aopJ4eJlRGarAmZYkrwKhhXvBn4IFm8EB+7aksaH9OddoOA62rFcnmI5/UXJwfhna45fBUqoe0H54epWxxZFiSlMdonQRItv7VkqUa7LsqxbG4NMHVcMaGVFkE6fqRKF0KbaQ4yrI1MUjNiNGSSru6tValCDKbYUlSNptN7KfW4nvG79VWgj9J2txNptLqqC6iIu0KMEqf+MLoF+U7IqZcjMJLjzc+nh172Tby7NRwiV/byLMLoy82d5OEY+BneoBNaTZbeCcZkVssPIgfGTGB/BWXKlaQ+lAQEtKAmpCK2UVxhhT+aWs+FfsQ6psLtYVDXdOhzojz65pWf8onnZFQW/irgbnYzr/kxoTNtn6kGtruU0lX6zxiWjCvZz6bS11JDRZHVzJRQ+seb3w8PvREwXFwoejvqiZ1RlqGn7IdhTI11KQshg0OQVniAoyqUNYQGXmM9s+Hiv0GFxSpI9JyfSnAaMm69CVi1KjEEqAGqQL4NjNGDetqa3hJqFUszsQoJAX/V+yB8jBq9fUVy/2MC/qa1xv1r4LWBR6UNcn2qQe1kSRpnYeSNglPKsMoDLR50vCak+yYVmx4lUrampAhSHmMlswq3WRwqSuprr6zra5YHJwQYLTmYMhjVLJG+qiAaOPGjyYe+nuQbFkBRmvoEz+Bs8UZpXxh1CPGNSfZGlcMGsNUqaoHqWJx4F9ZOwqhUkOkqWfNSfXws4eStjiaZpOMEBTMmUizhdGJxTgyg1EW+V1LlRQHMwyGLCV5Mk3L/ZSSeYrJKmYXylIuWVWMUXIoVyIL2sr4IZUlToqQaQpCwidJZvMIXAFGmU8WplRSbYUqIEmoNUAcNUSiJiZInmRoYvSKtUrKJ51f7voo3cWEqzNBPTKMSp0ajFH6BYnaaqL2QtunQv+5r7ZD8WsNh+SvLRw691CR/nP/2MUZYy9UKuOhZ01In0oz8SVi1KgSEhYGqYIoxhMH95a3b4U3Rmff8jce3eLvxqNNPL8V3hiPbiX2UxJwUhn5vAJNUFwyNKzzINVEnIf+hibe4kyMIrfBnQ9hlUGVpvonSbWMUpJUljEemtgi6vpEamKY4EGSfrbVkwUNqgdJOtMoJUmGkvUgSZ5laaLm9SjsWsyDBL+4lqLLPKiVkcpyJZ1iWJHJZJKpNH44vkllUmnqnkml1U9KNAqSlMk4OeUT8qQarh6jPJmfadcioFZZkCJkwoPnkZDgz/zaE/1LpalWg0ke4qgbE1SST5gAn0wmsxbfu/P83cTK9lTsw1Tsw8TK9p3n72482rzxaNN4fm95ey2+h4LxxMHEyjZLoSBKGQXvLW+/2kokU2mccZ6Kfbi37MiiuDvP3+FHhsiDUkYtkibAQD5hwtvwkqVsJ8u6RClM1FwcGdqaGKQ8RqkNE0ZWPpfGlBRQfSkpTnJDmkq6klB2PLoV6po+MbAYujKvDnf2RtX/+In0iYHFC6MvLt+NATcTK9uhwYWvBnI5r8wXFMxxODGw2Dby7PztVcx+pmIfjg89ycuixN6oKi7EfTUw99XAHM49wQpXE+pEsgNXjZ9LKmmLY+BKkj5/jKbSmVvhDTWP7p4J9cw6//fMqrTx6545dnHm/O1VYHRy5b3K0DXtZENxo4hmeOzizOkf/4wnDrLZrHPGuSNiMjcKds+E2qdODjln80rGuObwtZHRvBiFZrYL+LyYMcxglEX+cktV4CAKKhZgKJbJZFQ72j2jGtFrC6GruR/OIPPPa86Zzm9/f41BqkLb4IKCGvPgbLJRsH8+1D5FZDvro90zBaVYEKyu5c84A9muPqSHy3UmPWOwpUPoMYMz2zaKJgdJ4kOboX8SRRg6kCczmPP6mqvih6GtJUuVRYJVKCudhb5ede7FDh33zys49s2FumcKMNo/r8DtUap/XkG/M8IRgrmG71q2gWec4QcMkTn2pXPoZz5hon4kO6bFAgdl/GKUGtsCqifVgyd9nc1m8xgFOIrhpm8u1DXtglGPUmDV0dQY3dxNqlF198x4dEs22zJw9Q6BRCHkygAZVIMUYDS3Vzm4oFrECjB6Rb310bTtaCqd+ebmaqgjogbWWk/5doqEqYGMupLKqhJNgVHDO961qgLfVd6OXtF9fT3bUdmw1dzwbDb7eOPjsYtqsvi//mtJrSq0hk8NP3u1lYDPK3BmTZSsHKM2Vj6DJ86cqWtaDTc90IZ2tDNS0Nf7xKieM2FXMz8e9ZaFd+7q/K5IPHGgVsE6I/k3VPUML9QZube8bexfNG2s82tPZUG7rvWvhppks9lUWs/rS2K0Xy+ddka6f3HWR9W8viRGAcTOyNfjMfSheYy6jnrxEKU68u8uw582Sujnckk0XDWiWIiQ+nRNfzUwN7FiwrRicSX1ryamzYjRcuPh4SB0TL76+qt6Xq/bUcx/FUY5ry/WKF7Vo9iOyPnbq2Y7irUCiQym0WbXDaNw4OZu8uzYS9WIGprkeoyTQ0tTsQ/S282OUakr0tS4mkog2VbGUA6AJDdDSVeSiVGg5IpeMDL+z60idf8Sy6+PAqM48Wnkx0OsWHUqjALZBe2oa0HqUE+MZjKZyZX3qhF1XXFDheyaPnZxRg6IGSBXZ4JaGakaCKk5k12e4S9GRRHXgpWRqgFiMd/BCmefqX1KrcZzQ7JI4tjFmct3HYyqvdDeqFofLZKZz49dnPnmptOOqtb36oKaRMtS2GTqjRbo0BnhPlNt/ZzNZuOJg8t3Y2o6b3f0qCTYVjjz4FJO83qEgKGpBip+5/X1M4BmGBUUz4vZ5r+UM2dqDateD1jpmlbIM37Y9mwNczyqMNozq84joxS3UmXBXKlvbjrtqDOKbRVbr90zCrIohQS2ZFvDocEFuRIknWwbTof4Ib3aSrRcX1JyOcAwEoN6v61/PnTmwejs20Yu79v6S8MNGLjfSeYa/rIcRDE+S9lKexSkPZQiEywoH8YTB4uxneU3uyV/i7Gdzd0k9IknDpbf7PopuBjbWYvvYYSQ2E/5L7X8Rl3uKFWtwDoWge3g5lSVntmiGAVkry2EumdODCw+3vjoqobkyQx0clmBk6XKKui3HZUCqCsS1ZPK0tiQHvxpYzSVFoPRYrM9NquDC6FzD2+FN4ylqOrDaoRGMiwr4p8eRpOpdGI/ldhP2S0QScYLGNlsVpIMaiqdAcPEfkpOILB8Q5JRSlKNUpLkUSqxnzJCJTVJ7KckaAySUVCGH2dYR+6vq9EF3+8jIu3ENTV6Pj70pNgc35BlVwmJRUOTYqSyeBZgVHJswnQqnZlY2e7+Jfbt76+vT27Zv29/fw1S9y+xy3edBctMJvN44yNLMY9r8ct3Y9yD2dxNjs6+pSwmWJBPzt9enYp9gN/jiYPR2beX78aYrVji8t3YYU6AOLGfmljZvnzXl2kj99ftWiHjtRbfO/3jnwqjxqqTDVBk0FPD0dm3kknzpJtxfdS1kqF5+OG39VD71LGL6qCnWljRJz6dtJ7ZYN/v2MWZSzdXR2ffolqr86OyVM8sOTA/nlwYfcFVJMzrTwwsMrMUR6HHLs60jTw7/eOfQBtWVT1KhXLSkQcno3H781cDc4Y+rqJD7VMcPtq+ymazDka7plU7WrKvB0x7Zi/fjQH6rjzZQNrY9UOyebJUSVIzYtTVC+ivFUbPPSxY1sG5ernQo4/YnRhYvPFoEy8kqTV817UnWVansfaEUYSz9mSsIuEgvRTXGw11TResPQ1aa09GfvzZodaeAIvHGx9bhp+aK1aupfSiJjCKMNvuUpP64ad++/r+ebVY1jN7avjZ8ptddOWSJ97WMl7tMjIU08Q/EF0ZAr55jMpMSNdEgGRbGUN67fD7Bs4wC2t+WD2xDyBfc06CTqxso6zCKAZnMrNMcyGmferb318Do2gR1cITcrqKw2nlDrWDWrAXyjPOHqX0Pc7A6KuthOqdu6bzslwLajAdvovijdHlN7uqBe2Z9TUeZXffN3fn+btkKh1PHLzaSiy/2X288ZG/V1uJeOJAfWJCv6TpGlb5sIYQUuNRWyoFFKOiiGvBKkmuPKFPMpUe++O1Wpd23TvhYEvv/Rz2kneev8tjFPv1zOOa0KeVXc6UuGbGw9zO+/nbq2wR1V3j3iejc6Vahp+i1Fp8T+1bonf2Fqc5e/f1CqMazX4xij22vrnDevLDb+vf//xXy/DTlutLx4ee4NdyfenSzdXvfv1n7I/X49Gte8vbxqqZdzvqiiIWcY24RFHBnMmjnYMY8jVqDAsaz32WKqalIc7BaPtUiTW/qwuh3uixizMF7WjJMyXY1XQ9P+oBGpDap8zzo74xitbXwWhHpASqBtVy5lcDc5zYsTWRvipvzsTKNqj8ppqAzoiqY3KkgU0HfQIV1Jbhp2N/vJ5ceY86xrj7QYLPcJOnX4xSti2gepJPnvl21Bs0hRit+zn8WpxxdjDaWS1G4UmHm895vXSmXKvigAqtPv7Ea67YeOtUHdp3v/7D/QvZJHnH1JtKdCLxOWP03rIajzoY1Q71muRWfA6/X73PxB3UgjMlMvwyzb4+982G2mJ0czepNuuxEQpZUnr1aYyV8UJi+9Sp4WeLsR0M4n02WAFGC/r6MjCqFwSuT26Z555KhlnPmRCkZsBoMpUej26pZSzZLlYPTYMDG1q9rje58h5+I0zRQPB/PkeCz5GQVINU0I4atGb7s9y+vrw5U+5UZcGcCWfzvDGqZ1pcVXUw6nM8mmtHYzv/5s96GlCQf+rxaGhwgXOmYjFSixJYWZPF65EeXAh1RtpGnhmHY4opVsHzZll7KjmUya+PctDGeiwTWO3rU4vhLhiVOWUa6y/2vF63rM5ujcyPNGT1qzf1TIyyny1WSo9izXk9zyPbpVBP0L32zxOjdqcJEDhLpCUXCqpEbW4JZeT+ur3rK2NqQ9Oj4TRIeYza1hpZpZhGkmAqMOp37UnP6+88fwc98+fwvUOi310uOOOMVUaPUlgNKHYOv1hBAE6fcTbXR0v2zmLtCdbJuDBd+vxoMd3Kfd4RuXTTWXejdCZqgpNPCaOJ/ZTaZ2rVn+KUhzhlOnfWU+4zqb1QlAIVKyl2qZ7ZEwOLbBHVPlP3jLMQk2OrnshfblHm9I9/8r4n1cnKu3RkfqRRSuwzTcU+OPtMvLHHLgVSR+TYxRnvNXzU6sXYjnrhrjdaYqmuXFAiP6ZN+tT2eNQZwROaTNQYo+TLBFpWu31lw1YPkgdPZ58JM3R4CvvR7HnxUL8IcWJgcWJl22xH0YDJUnyi17GPXSy8pyTXtzphll0w1r0hUff1Lmv43C5nwav6xh6U7Zo2+3oc92QpjEA4iYYsvXvE9VFXdyGCh+eqnG058EHxWv2P4fu5h9i8KNai87mtpwfJAJg5Z0JJmyOKkS9xjETNSxn88WcqndncTfo5dIxTxhwhlXXGmYvSZZ1WXovvQcnEfupwLOhHycXYDm+ETKbSa/E9n6WW3+zSNFdH4WEylb7xaFO1+t4vbVeG2mtqqsQtfqrhBwnloqsAoxRgc6kryRZHm4NEuR7ghvt4dEuNH/rmarwCNbigrnbTw5V7y6qnkhr6xIlRSraANqm5MMojNon91OZucnM3GU8c4D5l/u+TRFYoyFJgm0ylbYa1IuE8Mrht7ialLG9SMpUuVkqSDpfocQKaJuAEdzxxsBbfuxXeaBl+qkaiOOqFwUxljaVRCqOOfn0Pa2uYZ/m+CIzCyGQqfef5u7NjL8/fXu3+JVbl7+vxajmUpYCHuJqTDMXO315tGX6qDrJgrtYWVujsjapjJcZI3cBcWX+ClV76COlbCFwXROvejgIrdmNrjGFlvfEmeVMhiOIS+6m2kWehMw/UJl5HpODXPqX83j6Vf9iZy2CTWLYYic/BsFOfokApsGUGHLDoiCjRyEYSEsyAPHwouUmezN+peSIbebIUFONzV7b0BhTDrB/zLaCzLAgWy8xmOLfKduzizI1HmwYG7D8ZVkkiguVDpEGyn6v3QksWcy3MUrYqlZHwSrgaP+HsT+4mbzWWYjpIFPOAXFUlqorBzn7OZQdXEjYy9M1737gthTLiNsL8kEpCKI/RklmlBpRdw1KHE1vn9Dg7KfouSPj0gA0y7ycEtIF+3Bug2/VjF2dODi1dvhszzowSDwQDnzBBUjU4aRaMptKZxdiOczqYi4je/g2o1XsA91XlNjXUMRQcG+2fPz705LDJ+OG39cmV96+2Eh6rXQQiockESbXBKPkyQQF8wgRJ1cgmN7zsOxX7oGajeMuieu8HHHx6oGf2/O1VfIbv3vL25Mr7yZX3h7F4vPHRhqYdbrlsJAOKdE1wUrD2ZMvw+YSq2Pk9SDQPpZbf7OJKbDUh9enfIFvFHkAv3zMb6lOn+lNp9V01+Ua/HUo+8YipB8kIN7kh4VGwAKPMZ1eXmpOoMWU93vh4cmhJLQ5zkFRxAIKCJT0AJ+vLnopBk0EvhifGjhlYpCySBINd8Mgwahuz/GbXwWjQjpZEWJUZANDeaOj0A+79EmdGw2aDxo4dy/oklcWziTB6uBfvXPUWtKNVQrBk8dwLhv/n/74s2YiWhae6Y1Q2uawZTFA8nzBRE1JiP6XWnnB5e0kvBxmq8YC+Li/UG+VsvR5AJDyYIE7KEqfWngBNMmKiJIk5a5I4PJ3ktKNBX18N/kqWRSPaPvX1uHMbsJ/w2agySpXMYOT3/2d+fdQuUxnqKyuF65zUXR14X6Kko4MMFXtgcCGkX+a0N9wZOw8wVEayEUxZJUnNhdGvx/X12N7XkFQcm6AgDjv3zYXawiP31/Eiq8QccSMfIl0lqSQQpUTKQqkmwmgyle7+JYfRYNpUpxo1uBDqUK9xvtpKeOBGIuboMWprc1RPkqn06OxbdaakNxoskdZlFyN3dsnjDaSjir6HXL9rT3Wd8qNC4wpcBdBgGb8ejShOpZx7eGH0BUeiRq8qgdJIkje6/GK0rhqz01mL750afqbOjwZ9fc1hivcH+9Tn7YBFGVOGgDCVVD60C1ZGKktcc2E0njjo/+lv1d3XPEJfOEPU+c7IrfCGnCrVFYge8K0LRr1bY5pqqOWzFDV23k4+91Cda/7CUVVT89VHlzsjLdeXeMGJDA3CZ8SOMWV0mKF6Ulk8C9pRKnFUiWQqfW95W/X1dbq5oKaB/zRqEV6U654JdUTYyx9VfCuT2yxrT6hYqXRmKvZBDUmDaVOtqhNeNT7zgHN5toI2YupHKqvhpBoo1UQYhUKJ/dR3v/7j3J1Zqzh9sXz0rvKxizOnhp/JrXmAIMCo8oPhBaN+SCq95nzeE919MLuvpnahBe2NhtrC8u4dRkH6H+n6kSoAAyHRXONReGoq9uH40BP1bs214ED+fOWjXtwm0hrmfdY2KD+JJyZG61eTbHdQllHJ8t190I5W1o5yntQ+NXJ/XV6vLKMg/W+EwJj1y1L1IEmehqzm/e6yukwLn5sPYFoBTPVXK0Kt4e9+/ccYhkoEHCFGy6oSBe2oVFoaI2FeFvfKGGaz2fzd20F3XwFGr8yH2sLy6loEwohpg8MqwVAWivxiVNrjYWplJFvjbDZ75/k7teFUj3sJK4j6p1IEx8M71d3KJTflKwaNLGhE3CfJjrhHwQKMGvKO9s/Yzr/qWH5HJJg5+Z02YRjaNf3VwJzxoe+jDWWV0ptlfVS206xk6rbvMw/8RuhTaerqpCcG7l3TJ4eWbjzaxDCUniRKPJorGQLmZ4IF+YQJP6SyNCFDlGoWjBpqwf6Ct/CCl5xKgrtTfcj53vI2AVoWMgKMKtS5AhFwlCTp2ccbH0OnHwSnnr06E5xcblWTJF5DDn+yqWNC+pkPmSCVT5iokiRjCp5kWJLUvONRekd9VpCXvpZsS76oDNhJ6p4JnXkgTy7TdZ9HwsQo0W2b10gSGl3oEE8cqPv0OiK1vJX4M4AyF+rPPfzht3XO4o3AMWp2c+W/Z/PP00OcB0lqYshq3jV82gON1ZcFe6PBlXpOj899je6Z0LmH8htzNhDpSSQkAjxIEjTePCVDo5RRsGJxfttRKcBDrZqQpKlgmEylv/39tfoOWN9csBTl9Cf6W/Pj0S2eq7dRKD1pIAaObWRYpSxbGUk1UFSAUY980lqDRfUkPxonU2n1kbszDxRMa3jf+yfX6V9TX5UOtYVPDi0tv9ktC2qGn2W4DZKMacUko2DF4gowSoNtFDbDk3ji4NLNVac1/dKWojD61F/dDbVPyY34ZghNXXVolvVRWXFtg1kjN3eT6qU8TPO/nK18VEj9vsdXA3OTK+/Zv9u+KulJtmd22SMhMbjUh2qA1CwYNdSiukiAivThF7TUalTblzE2xagGH17qjd4Kb/C0MrFo+IrP7dhLkje1Mp4epWxxHhE3SM2IUQ97CFPVmp5+oL6Mc3Xh87ybXHbubeELoy8mV97zoJ1EmwcyPEi2k6vnWZY4A4iyrEFSGIVyMhPSlZFsPj6fuHqNmkBvsoonDtQU6vQD5+28z2kWhVqX+2hd28iz8ehWseVPOsRnwgi/UYpU43nF8LX5yCdGTG0SIGHOmXwWk+yqMaAycZCOb1+rV0rQ7+OumE9unk6F0XD262+mdURC5x6eGn52K7yxFt/jVcvFMMTnrvWcVCNqPgNn8yTDskg+xdlKFmC0MtmVlZIal2UqxMGSZCo9sbKt3nXG91v7ddfPqH8SCVatK/pbsV3TIX126btf/5HorNJdjJFEAB9KlzKDpPIhEj5JRlhlKYPkbV0BRmXWytSqSSmphh9jNneT39xcDZ176Nwc8cktS+FQSPcM1ivwPWM/htPbMvx8iIQHqVw/k7MHT5+ksqwrwKiHAGkPdWWCBfmECT+ksjQmQ6PU5Mp79Xmn1rBzE3Qzj1Dx5VlAszOixiqdkeNDTyZX3htG0Y3S/3aeYj4xShkFZSmDZBSUavgnGTwrFleAUYo3dMKflGFTj4RkuAC3lU+uvFdd/7mH6gxKz6za4GZnym3uRo4BpHSk+YlY/ZXYluGno7Nv8Zl727HyCZ1sG+5BYkztUj5JdkEPcR6kisXVa14PXaWLkYbBttkwgP8bBb1LSW6ZTCaeOHCQ2htV9510629gApeNhykk9s2pCtM1HeqMqEne4ELL8NOR++uPNz56o5MhNxziM94epaTTmK1+4iiCCQ9ZhAGUbMb1UZrBhIc9xUhr8b3Jlfe3whvOt5wBVv3pQbWqiiatVuMBciND/RljBcdu/dPXrrRcV18vvre8PRX7ENv5Vy520lIjUcy6Tw6jdpWgaSVJzYhRD6WNEHqHKpvNJlPpV1uJe8vbt8Ibaq+/b06NVjkSwDeGe6PqOUcFABxWgrBUif/xhFQsEuGT2vruaQeR4N8+pdDZN3d27OUPv62PR7cmVraX3+zGEwe1so4xLssnLGWr4e1MFqyVODK0NTFIzYJRnw4qaY/tQTxJptKbu8mp2Id7y9tjf7y+dHPV+e5jR0TNpvnjn3oNSPXO/CHPuYcK4uceFhRBnr65luGn/T/9PfbH6/Ho1uTK+8XYzlp8L7Gf4gKnq3oMiU2tH8n2pM8QVKakLY6mlSSZcyYoauvx2TzBB4bjiYNXW4mp2Ic7z9+Nzr4dub/+3a//nB17eXbs5fnbq2fHXp4cWjJ+IIF66ebq5buxb39/PXJ/feT++o1HmxMrqgdfi+/FEwcApe16w4euGVwfGgW/tD8LMOoB7aatZDJgJfU3MqfSGUA2mUonU+l44gAIA4KX3+zitxjbWX6ze3iWJbGfSuynkCexn0IpfFI7lVbCJX+k7YdSSW+qwU0WrIxkiJMMDZIMd8Uko6CHOA9Ss7wrYni8Jg4yeEovGKR6/OkhTpKMKDbecKmM4Ye6ksoy/EtpR6XHiznICFLJPyVPI7NPUjFNULwynh6lDHFSSYNU79pSlrgCjErNDFOPilSWMdLphv4eJGna5yeueQyXmpTlZxOjRmiDPwMPHLkHmmXtSVYy2ymk1pxUVoWWLW5lmjRYnIeStibVW1eWOMbU1sQgBRh1n4zDTR5OrxWprsjwUNJGRl01scUZQJSqGqRmwah0UDX2eJjqkyQ1kUWQpvtqRWqwOOpvO7mumtjiPDQxSMF41AZb8KS5PFCAUQO/hqakGs+rr3/VVDKpDDX0ZmhQZSmDJE2rB6kePKVDDP0NcZ+K4X4xKu3x8EJlJERr670AAB7LSURBVMN3hmcr4+m/VIPFSU8GhjNM0i18iIRfjMpAGiyqJNncJMN6RNHgKb1jkBqsSb3FGa7+VAw/SowiJIffWm4wMhocquaxzjD8U6kSBRi1baj3k83d5Hh0S969UW+JR8IfbwcsxnZcz48eiUqfkNCjWXuCgw7PVl6+GzsxsHhh9MVibAftDTogw4PslYznsiWojGQ3ctXzNDTJZDKvthIXRl+EuqYvjL5YfrNrCK2fdYYm0jRDB+Ssnya2OMoqSToCjGaz2VQ6sxbfOzyjrk4K982p/3uj8qZCw7m0x3gunV4ZyXZQ9TwNTdbie+o1QFye2ho+NfxsLb4n89TPOikFacpqgOHSk2WJM5TMY9TmYmSVBldDwisc6muLV+aPXZz5X/+1pGDaNX3+9qqtQ0nPVqMJykq7DHHVkzKZzOjsW/V2cm9U3e7bGw11Rm482pSW0oTqxfnXXypAufXTxBZHWSVJRzYeVd9e6p9Xb0teXQBGv7m56v1OBV35CSUymcz1yS31bgmu9tWXLxsY/YTMORJVCzDqAW3ZbtuKsqB/Uv4D4MBoZ0RilAxLVjIpsbJS0rTaigNn1Y52RFQLenVB1cnOyJ3n7yCotuJgvnSIf9MarElZ4vxitLLwe5RqHoxKJcvynSzoigx3jHZNsx2trTjo46pJSVKDNSlLnF+MyhppeKEykonRrumjakcl1MrynSxo+ISYcMajsh0NMKq94+ox+k1SmwajDezrDSBKqBkkWf0qILm3o2LOVAFP1yhKE2R0/evfYE3KEleAUcO8uv6pPrmE8ZmYM9mq11WHBjB32lF+p69nNtQ9w/FoAxT4DETk155sY6qvnQZPtgGpdGZiZVt9va5wXl8Mo9TEYCjbicpIrhJrKM4Foz2zBkZrKA5O8MOw3oYbmtjiqGRJ0tFgNLGfuvP8XW0x6mGqB3ztUtXjXooLMEosSrdIJ9shYBGQ6oVRQyH8CdlYw68Mo672uMoqywsGB/rIeA6e9kM8cS3VbBgtpryHCdWQPMTRXa4xJVXdAYEcdr6S8fAQ74ekxqODer0QV8UWzuv9cGjOPIYnXTBqjUdlPAyjDG4GtZF/HqEm5pzJ21+gFnNNJqOuppFU3Dbjes8MMKrumnObM1END9fYpEwmg5ttpA5IezP0pqK6GqZBluvBQjbhSNRwDb/Yp8N86m97zDU0JT0GNXATke1qWG0HAvltHUqKK8Coh6keJGoZTxxMrGyPzr7t/iX29Xjsm5urX4/Hrk+qaw3tuzbN9VHfa08Ut7mbnFjZ/u/5/6Gsb39/PTr71j5YRNDQCjLxJjFbMpV+vPHxzvN33/7+Woq78/zdWnzP9jsEuWO00vXReOLg/O3VU8PPjCmXYQJ1lolkKj0V+3B9couh6f5FhebO83fxxIHMyTR9ZVt3eCVgy/DTs2Mvix2q3NxN3ni0afjqxqNN4xNTlOVtgl+MSi6SdTabjScObjzaPH979fjQE9Uudk2rrT/8uqbVk76540NPvh5X18OyJcB+vdGOsq0q5qBMJrP8Zrf7l9jpH/88ObSkiusvFBaI07ckd/8Sm1jZLslQ2kVg0UCE9vzt1ZbhpycGFh1ZuOSxM6L+7I2eHFo6/eOfI/fXZbDJyunri6zhUxATroYn9lOjs2/VZZRd06G28ImBRelJwwSywrgfTYajvwxN+5S6irU3enzoydmxlzcebdr6UxnJ887zd+oYV1s41D51cmhpYmWb1LX43ujsW9w66CCBl2bqC6xPDCweH3ryzc3VyZX3LIUEZdlVwi9GXVkk9lOTK+/V3bNd086VnLjYm3fP6stjndC2hUMdkf6f/p5ceZ9KqyOV6oZlrj35aEfjiYPx6JZyUKe+NDSHErUVzh+u9G6fCrWFD930w2/r8gsytEI6iA+RAAkajv3xWn0HQsdD2Ujr+uYciT2zqnroG0nbRp7dW95mpOFrF4x25M892fGgMlQDp2zV8UV8OAVHGa/MT8U+0AqWIsNkKr0Y2/n+578UVgCUrmnlbTgK+vfMqiegdkQujL4w9CdbCkrsp5RDuqbVEZk+9YWMH35bx5cInNDgZlZ8jIDiAIPeqHJg+1SoI3Jq+NlU7ANbEI9qZt6bB1VoJzVjgqRkKr0W31NfmtNoUKbys4i8+5hXIV/Tn0u8ok85tSro3FvevvP8ncJob1TNnPTZvG9u5s/mQRDFpdKq+VTHhFtV9VWl8Ckm3O3N/6Xo3qgKz5kHp4afyS6GPGmUdBAeojKoduvMA1Uf+uaUkvI2ZwqCaYPO97pDZx5curlq1Ao1HpVr+B35MyVSB6SlevHEwb1l/fWpMw+UyZCFA34a6CxugCmeOLgV3oD5Tr0aXFDF5VXUMAE8+/WnodrCodZw/09/yx4cnCloczep+hMq0zd3/vbqVOzDd7/+o6oQuguGxvYYxZ17eOnmKuszQ0BBMuFr7UkWQHpiZVshrC3sNITSeF6/jSp7ZV7hCXojmz5D6TzB1fQWRqXETCYzufJeAaUt7NQE48JvNqLALqnXFlT+zsjh74ff1uWYmEGVmIDQeOJAeVx+Qwd1gF9foDhiF/eUX9OVrdX5sjw4u8zru6aNASWVodWok9///JcyuSPiWM0vpOkP5Tze+Mj8MhFPHKiPqSI0jAtCgM+UGfrLr1n0RkP6FPZibEfyZHpzN6naUbQs5InGGMCVEtnb4DZ3uAu1pXumbcQ8600pdAh86AujRiDX4nvO0BNS6Tvo2uEM1JQl6JRRvaA9MhO+DLxeezIEQek7z985w02CD0sB6DjY42Ngeu6hEoqDcMzfNxc691B+893wAr3jAJQc0BKgmcmNsJ0eE9LRQKIPgbj++VBrmI2EC0aLrD1Rh83d5L3lbdXmyW9MgrnuXk8OLbFnMDzmABRn/vEtNbYLuEadPX7XtGrdzz1U5vTPq1YWNa1/PtQ9c3zoiWsdiCcOVPeCtgAYBRDREkGWbnEUc/T46Og5POuNqiqnR31oRw0T2KYiRs76KP+gm5BwDeTmblL1ue1TyiS2jhhq9EYv3Vy9Fd64t7w9saJ+uHxe5cegjd9FuDKvFAUHfPygCEYfb3xUoeqadjwI0HSrb4SeHFr67td/pLjx6NYPv62rASscJKGjm+GR++uYtLmals1mv/v1H9VFEuK5dbFQz+whW359AdaNR7f6f/pb5ReNlnqtQA8zMJlwwWjhXqh0PgbBF0ZfKJ4Y8wGaV3WH0BEJtYa///mvw4EmRnKyLAaF6qvpZx6oPodtP76Nq4ebuKifobkV3nD0J1JZzXpmj12cMd5pyWazm7tJE6P9OpRsgLpnQuceMjSQNbGyPR7duhXewEtdeK9LWmEAT8K0bIziM7LKC0AbHKEn78eHnozOvo0nDnj3Nm/yxsufamyAt5fsbyUW6etjO/+qnqV9yhlIAdPafZfvxpbf7OLCbwjireGHi0Ej99eVK3n6Pde/4DyHUQPpIFUfEC0GWB+bPzm09PV4DHeNUxbEJfZTEyvb52/rWSNR1RE5ObSEUV1JjEI6vn8yOvvWsRedKdS4qge7ehI9ct9lxEL9v/39tRqioM9FgHpmQ+cetgw/xbdxuVzN0BTMetkQAKmdambDISNaO3eMQpaezJ0YWHQNDdyFLmI8usUhu1HNjNBAaMG8njlotpFQLyGhs8AAfHABQ/KR++ve38JKpTOJ/ZR6yU5/Ecap5cCcmDPJid7htfOqVWgLO3MFHTDVwHTPoKez+whqi6+IqFphwFR/zJjrX8yPFTSn9WLnoEcI52+vojLIzDIN0w6bcAUODDxaw6Ozb9lgm2v4bnOmxdiOav71l+9UhWR7hmHGuYenf/zz1VbCVXMo83jjo7M6hl4bPUD71Dd6auJRMK9/90x+dgEnnHkgl5bgJXM8ipz9etzfN7cY2ym2rwE9AVY7dsV6NnNe75Evm83Gdv5VIOuMKIQBXroFNRYRZPyMWpLYT6mPz3bkZsoSo4VrT9ls9vCjHwo0PbNOwK7p+tA1PR7dKuZxW5xSGK0+Bgm6Xez+JSaVRC+p5klosIGP3mjozIOxP14fdh1waDG3glUmo950VQ1q35xcvHTaUbk+2j7Fc/gU7ViKfhNuwQxMz7VvhTeMCZ+hfzabVRUSjoWlV9SwWLa7JfVXE1NWEiCvQ33FVA5M44kDB6PEANzVFg4NLmzuJqmYtzhmY8IDewXtqEe+wyHCyP11ZzqCwceV+VDXtBEPimSCPPHEgSlmAxzU5/p6tqOHX/BQjWj7VH4sr9cmOd804AjmlEUHJfZTavm2NewMTnBCoHtGhjybzb7aSjiNELpX3SrIORZGSDSqmDiZATq4YLRnlkNVbLYpZHTP5IdP0KEzEjrzAN9gJlsayCdILL/ZVSjnMDq3csnK7OouDvvIzWkXutXXItXvynyoLTwe3WKGPEb5VcvBhZDunQyAMgQsS+VdlZFUFkHCL0bjiQNnrZ7dUPfMhdEXCDYFGNz5XKqVn3VxMqg/PyffFVG7UJgeAsd6CenesrNvRLYe4khSzQOWEdA2aLayJctkMmoe3RFxOod+VfdODi3J9/2l/uRMNYrFAyAo6Ov1UOfGo83EfkoJ7ZpW9QdTHEATtag1/NXA3OTKe4KMeLI1SaUzzoAYBg4uhDojXFiQBak5E4YJif3UrfCG0goQvLYQ6lDvQsZ2/kWRPEZl+9KtFrzlNM5WUqpRkkr1kCjAqGQk82UyGafGcyzfGz0xsGhvdchSSNMLJKXSar3TrPeF83o18MWmDjq+ntm2EWf8ToY2Mlz1d+Z5XdP5Vcau6dM//smm1Bn4tk85YxjdP8gBJSXSBMM0WxOGoWDOhJH34MLpH/9UqDrzQHUUV3Or6+jo9VeZx/54LRfSvcUl9lNqLAsDsZvQp/BtaOvzz3jioG3kmRpiYela7xXdef4OxU2M6vrc/9PfcmpVzF2u0aFWHqVKrI+CRSqdUaDB1ha6gO6ZluGn7JopyWdiczepWmX2Kbm+HsE+PIyjxhVYt0PkOiNcNvIpQmZTTSmWr9E8dM+0XF+iWx9vfGy5rrfCQe2Z5axcMimZdvWyiVH0Qlhb7ZtzpoOoh3phsuX6khw+lRSazWbX4ntqoMJPnurQTKyoXdnYzr+bu8l44mBzN4nfWnyPP5KQYS2+t7mbjO38q+YMEvE9s6Ozb6FJwRp+brI7Ht2qGAl+DMxj1KMxSKX1ZRv648Gq3utVWXvmAXkMlQfDZCo99sdrNbrFEqbAaCaTOVzlUYNRzpZ0m82e17DKj7i1+J7yO8Z8eqZ8YmCRi39OF0FqR+Ts2Es5upISKU4+NAyXJBOjhKNroiPSMvyUDXzJhgenRpxBJBaA9GIzzm1cvquOnp2/rT4bid/526unf/wTP5uEJzgblEe83sEeub8OFObX8FHZdIwmVrbtWBs+sTPQkyVJvjCaTKXV1jynjd0zoSvzxqoEA1NSNlyvFmvQm+fWybFfn0pnHm98VPNxHDfRd5mcHFqSkaOsklGE/U53r9VWI62+uWMXZwh658YU7u91RL79XU3npRSmaR2fMOFKKopRxJgDZfHnIZ4o3ZUnJMK0ZCqt9uFoGpGqX+5Tz7Ecxk+U42SM/L+QpMZgGB+zFvXMcvpoYrR75uzYS9R2G2oyOjaVptkkWdDXGn5+AwOnK64uhLqmjw89sQdM9B3FM36ShLSaMWAbDV1GzyzPlLzaShgYPfzyO8PmyhMSXUlobJzBQ+54wLGLM1xSUTEGVtDXd0Y4AzAYGr4zqK5Wu2MUgvTQU/WqnI/nqith6soTchHaTEa9vZjvmolR7ORdmVdORpoJbvLZT5Cf6MQkrGeWQCzo6/XgRKpqOMSnu2yM0mqQzDmTLaYAo9jY7Zpuub7EvtK1SMmHzswdHXpu8ACdTIx2z5waflYMoyUF5THKMVZhO2pitGvao/PyI07mccEoe0l9DdvX4zHVtPMkUW7Fh5M2yc1Ou2CUCIMg/okEHpJEKAPcqDyyiH6/nLOi/JwpNy1hE2vrVqsnBRg18EsZTl/PdrR75uTQEif1xUrJamTXFaeHQhOiN7ivTzrrcGoSw6OlejwkMVqBuFQ64wwtxPIT21H11gq2c3LtqMRHBeJoOBL5tScekDv3MPSf+xjkObqd1qfvsKCjYYETjHIu4qoJllxUO8rzPZhloq/HCdGK/8cxDL0XADDkMYojBN0zBkalkkbQPUj0GPIQeEj4wmgqnVHLZjwNpM8Rf/v7a/KieD5hwpXkMOQAV2OUDPOzfsSsb+7EwCInMWRouMDDTmd1ictPuh1lP+BgFIsMV+ZDuf1DmFCBOGpiYjQX17NjL+WFzvlTEBiCY4ukfcp1dQ/6SPeafT3qIYYNGMOI/49dnOHPGeHkqHzuLAvqzu3YxRn3NXyEpmvaA6NU0vak/9j53Qt16jpGTmjku6Zbhp/asj3UkiTnCBkOMehm48TAIidhTrPNIw765M7o7Fs0KhWARqEQJ6yhvF5dkmtP6k3/zoizcK17CY62KxDnhdHcPSXSGxhNOQfGeQT26kKoferU8DO+nlVMk7X4njPRQQ+uX/+48/wdFpIOd7Dlj4tQpB5eVswMpOIJVqNkW17QjurxaLNg1FzD1+OnrwbmODWm+wzXM1qy3uCSkvw05araiD85lF+wzGazqmvumVX9F8ZGXdNoe8C/LHHJVFp1AjhylatgZ8decgtnczepVqa4ht+vbu7lqQDKkiYYahQj5dtReQ4/txcKKj22uZtUZ5OhJ8b9es9dLtZSGZYCvtUaPqb2uJ6oijV8ydlOF2BUb3ZUhlGbs6tpyFbQ19sl+SSxn1IeRIeIPqtr+tLN1QqmMk5XjhOouSEgW2VIzK9Z5qbAxy7OTKzkX9mjYiUTr7YSKoSYnOU054IfLj5XiwxsRwfVwkXLdedwXUn+3hkK5kwAkHUOnxzW4ntqjwdHwzitaQ1fGH3BoQ4zM+HshRKj/c4J4s3dpF15WKqyRMG8/oo6Dc15fWUM/ZQqvT5KO9XyDUeQuZVwvEAnJbFCsKCkOmMvblldc66N5U4GMuf3J/G+h8aN3EMnT29xznbAuYeqr0fU9WCag1HwOXwvuWBvVs8V5KEhWxyfyEQylT40UBruglHPc/jOETvssaF+XpkP6bd/DJjCcEh3lvGxcZVbyzPOoyCnt7twwFRaZKRNjHZNE6PSapbyEOefVAZGnel2hz6bB/flJvhyyOLav0PpZCrtLDmx0bqm3oiQy580VeXEqzyQpbeGL91cfbWVYB4pSz6EuFdbiW9urjrg42sM7VNnx14iA4s4x6xaw2oXLTeqC3VNG4fipDiGgYl44mBy5T0+5cOBhH+MUhk1esZ7L1RGn2PiCR4qzyKpdEYNqXEWBKX0hdEe+rMsuW3uJidX3k+uvOdInaYxkV/Dz/VI9cCo4WdfGKU9apjIo5CIZUfEft2bJsnE4dHXkfvrCjHyHJp+BYpHFmTbgCsP1CFlnqfWW6ZyGiH5G2nnSDVfCcJsV4/22IhKcZu7STUWlDNr/V6yMd4ypPBPHFLG1BhHljjDk++FKvOtvp4tCrk5y1Xd+hIXjE31ydfzt/OfDDBKTb7RXUHXdN5d+oUFP+ccUml1ZujU8DO176/fKjHabCqWx2hufbQeGKVpAJ7f8Si0zA8leTRLH8U/dlHtiXEKRZOYgAtURecuPFaPTz/44TfnHSNmZiK286/z8kYhTPFCQrHqjsqgjuJiZIJz6bmXNrnCRSlIOB9X4BowkaFf0rjz/J3RV7A46pICH8QNqvk4j8a5tKMWRsmKiWQqrZoDvvjBTqAjcvlurJgmauZ35oEa1fA1ZT1oOTX8jGsmFMEEPkKUbzt0m90y/JRdAXPifab8OXw9HvVZhyWTctMFGDXw68pLrb3rd+SVI7h1oX3x1cDc2bGX/z3/P5NvPuJ35/m765NbamMT7xDzPTvUQn2Egq2aqzj1jtH//n/53UJI1GNKvGYEcY83lETcddMy/BTNVf48KFT9z/1vbq7armcvEU8cKJzhRQO+caEjEeqbaxl++u3vr3/5a3fyzcfHGx+nYh/+e/5/cLmNqntcM9Lvv2OGhz4rv4aPOZOPe5yxN6aWI05rzMlOvzNSDHBO13Fav23G7QC94ntiYPH0j39K/SfffMQ1ROrFr85Ivu3A+z89s5wN0z8F74rk1noNjHpASJIkT8RdUg0k+MWoZKpwc/qBwgE2TrCNplciVHepe0z0eip4eCLnqpgGnXsY6s4f7DDUgsZ4qGoFjlqyNcUCNV6HFUvQjjiMRjhJwk7j6Qff/fqPDVAOfSArsZ9SRiHMbI365lQIO/UFQTgHg/dxYRqaXjgBYDrzQJ52NTHq774nwFQtmuICCLwBog9LHLs4w00+qM3oOEfRT+deDWVorNfKnYYfN+rwXB9M1tMA+orMTYzqGUJzYVTixplIsndDZ4S6hdts9M0L+QaGLQGqqe4Nl9/sFuu2pKxsNjuxsq182qZf+QAr/I/Nuq5pBSC+OY5wQiV8AqotTFcanIlRRsIZz+B1ZIxi8T8uCMFJIoqTZ0BRc/RL1XLh3cRo9wzfAqBQVlGox+eJ/ZRzBQiPZV1bCLWGD68E49l4mgAm5h0QmDagW+iNKi+hsqHt5L0McJdekT0xsMiNYsNdBeujzYZRwxF4J06dU8bRL1ZEeMT+H10Pmp/OyHe//sNRueEFI1psJ6ZiH5xeCZdeUIREPx9iLKFf1Dw5tCQvDHMVZyDjsNP/4bd1NYFgJy7H31IK1hyw3KOnNfgiKOtewXgUKG+fGp19CxQSi4bVUkkHc3zBNcfk3nL+MjBbf4VsHLrD4SZDZ/xJ1+GKAz1HvDD64vHGRyomNSkYj6KstT5KTcjBwzSSiC67lLkXKsv4SW/uJm+FNxR02qeccOZ6XmcbibepoK/Rr0CNR7eKTXc8hOLLsJfvxhxx7HMpQoqGuJ5ZXIHm2m25yqKP8i+e90aVdWROcUjgf32u/lAxXIEmOWcymTvP3zkjHwxtfcyZJAectFe3J2CVVx82CPXNFRuVoiyurHLuXMB6Be44kvozrYdkrvobmsQTB6rqYvlWv5HX/9PfHLkamWv1Z37tyeboXSeQHzcT3QpvXLq5qmZ88vZA9Cl6xHNyaOn7n//Cy/+2IFmNjIqLzAZ0xv547Vzmkbvzzem/cgPEw40l3ClSrDL4MQ3Dr8OzpN///Jez2YjrdGAXrqbRi1kXRl+M/fEar5bb1sUTB87NTfpF5O9//ot9CK1ztRpuwf/Ol5tb1bVhoY58R0TP2HIB7sMXOb7/+S9Vsak2b97UiRMDi7hdZvnNLiuzzQ2C8qeLtC0nBhb54pSrJt5+JtUQx+fgmceoLcPIKhmBxCepdCaeOFiM7YxHt0bur8vf6Ozb8egWrlFgqbJkEcEUhyseJla2b4U3pKyR++u4WgfXJcgOl2WR8DDNEIcrEl5tJe4tbxuyRu6vj0e3pmIfcP+FbRRlrcX3xv54/d2v/4zcV3dNGjmpjKGkoQmYGHXPYEWJZEX97dBAfyza01cQyuJMUFAylT7cOj6czP3w27q8D4cZWIT6M+4+SbJgwTl8WwZ950GSUnm9zOG2DX/YXiMH8pQFpU7e9shShjjsQxpXXPsRJ3kibZfCNeoQQdN4kw85uCoP66geXWGUsp9LtyAzmUg9yYcJ6k+euBldao60T3cZmgD3if0UkE1xVIAJkqhJBaSCtSeWDxKBB5rHAyZGCXxDRT6vpkJInpJhrXga1b2YOPkcaamMQfUgVSZOMqyV4ZJnZfo3WJOyxBVg1MNUj3hUTypLYw8lqyc1WJMGi/OAb4M1KUucX4xWH/7mcVDzaFJWqD6nEJRleA0w2uB2tMHiPidkNE/lNDTxjmkBRu2SwRM/HrBbBTid/xtMkL/cUgaTmvzpqkNNONeQSX591GZa1ybEECdl2Y6TVI+CNSF512lqYsiquFTFBavUxHZyXTWxxVH/kqQ8RktmlVHxL6D6Ug32XV3FSW8wTWfyCRP1I9nhrqvh1YhrRoza9nw2oSL4ZKJ+1kkpSFOW7eQGY9RDE4OkMArlXO3xIJGRUZDP6+EFm6eHOA9SXeNhOESCw4Nkm3ZUSh65JkbgzDkTyLYrjWIyQ2UknwGw/VWZOI9SUpMGi5NuRNpDz5qTPhXDCzDq4QVpj4dn/ZOkrAYgw0OcB0laXQ8l68HTCIGHdR6kpjLcL0alPR5eqIzU4FB5KNlgTRos7hM1PMCoClxda2DzIKNpNfEOQQFGmdUwBn8ykDa15iRqYrc09SCRp20aSTXUhDwbI67m0amMYcVWO2tPR+4sGlBDKPhxZYPFHbmfPXzS4BD4F2e2o65ODB4GHjhCDwQYPULnB6J9eSDAqC83BZmO0AMBRo/Q+YFoXx4IMOrLTUGmI/RAgNEjdH4g2pcHAoz6clOQ6Qg9EGD0CJ0fiPblgQCjvtwUZDpCDwQYPULnB6J9eSDAqC83BZmO0AMBRo/Q+YFoXx4IMOrLTUGmI/TA/wfwOGKL0gnLmgAAAABJRU5ErkJggg==;" vertex="1" parent="1">
          <mxGeometry x="350" y="351.84000000000003" width="60" height="60" as="geometry" />
        </mxCell>
        <mxCell id="NQIB0_0cbsQpVoIs0iVq-9" style="edgeStyle=orthogonalEdgeStyle;rounded=0;orthogonalLoop=1;jettySize=auto;html=1;" edge="1" parent="1" source="NQIB0_0cbsQpVoIs0iVq-10" target="NQIB0_0cbsQpVoIs0iVq-8">
          <mxGeometry relative="1" as="geometry" />
        </mxCell>
        <mxCell id="N333sM3rX7YaFP_htE1L-3" value="5&lt;div&gt;&lt;br&gt;&lt;/div&gt;" style="edgeLabel;html=1;align=center;verticalAlign=middle;resizable=0;points=[];" vertex="1" connectable="0" parent="NQIB0_0cbsQpVoIs0iVq-9">
          <mxGeometry x="-0.4145" y="3" relative="1" as="geometry">
            <mxPoint y="1" as="offset" />
          </mxGeometry>
        </mxCell>
        <mxCell id="NQIB0_0cbsQpVoIs0iVq-10" value="Build Project&#xa;" style="shape=image;verticalLabelPosition=bottom;labelBackgroundColor=default;verticalAlign=top;aspect=fixed;imageAspect=0;image=data:image/png,iVBORw0KGgoAAAANSUhEUgAAA3UAAAHyCAIAAADDRnA+AAAgAElEQVR4Aey9eXQTV5r/7U4vM+fM/POed97zm5nOhqpUJQPpZXq6p/udpTMzPd2TBLC12SxhC0nIRkgCCWRnCYSEHUuyDdZmm30nECALCSEhCSRAgBAgJEAweNFis2Nsqd73uVcqywaMLZVlWfX10VFKpaqrup9bUj48997n5ij4AwEQAAEQAAEQAAEQAAHtCORoVxRKAgEQAAEQAAEQAAEQAAEFfombAARAAARAAARAAARAQEsC8EstaaIsEAABEAABEAABEAAB+CXuARAAARAAARAAARAAAS0JwC+1pImyQAAEQAAEQAAEQAAE4Je4B0AABEAABEAABEAABLQkAL/UkibKAgEQAAEQAAEQAAEQgF/iHgABEAABEAABEAABENCSAPxSS5ooCwRAAARAAARAAARAAH6JewAEQAAEQAAEQAAEQEBLAvBLLWmiLBAAARAAARAAARAAAfgl7gEQAAEQAAEQAAEQAAEtCcAvtaSJskAABEAABEAABEAABOCXuAdAAARAAARAAARAAAS0JAC/1JImygIBEAABEAABEAABEIBf4h4AARAAARAAARAAARDQkgD8UkuaKAsEQAAEQAAEQAAEQAB+iXsABEAABEAABEAABEBASwLwSy1poiwQAAEQAAEQAAEQAAH4Je4BEAABEAABEAABEAABLQnAL7WkibJAAARAAARAAARAAATgl7gHQAAEQAAEQAAEQAAEtCQAv9SSJsoCARAAARAAARAAARCAX+IeAAEQAAEQAAEQAAEQ0JIA/FJLmigLBEAABEAABEAABEAAfol7AARAAARAAARAAARAQEsC8EstaaIsEAABEAABEAABEAAB+CXuARAAARAAARAAARAAAS0JwC+1pImyQAAEQAAEQAAEQAAE4Je4B0AABEAABEAABEAABLQkAL/UkibKAgEQAAEQAAEQAAEQgF/iHgABEAABEAABEAABENCSAPxSS5ooCwRAAARAAARAAARAAH6JewAEQAAEQAAEQAAEQEBLAvBLLWmiLBAAARAAARAAARAAAfgl7gEQAAEQAAEQAAEQAAEtCcAvtaSJskAABEAABEAABEAABOCXuAdAAARAAARAAARAAAS0JAC/1JImygIBEAABEAABEAABEIBf4h4AARAAARAAARAAARDQkgD8UkuaKAsEQAAEQAAEQAAEQAB+iXsABEAABEAABEAABEBASwLwSy1poiwQAAEQAAEQAAEQAAH4Je4BEAABEAABEAABEAABLQnAL7WkibJAAARAAARAAARAAATgl7gHQAAEQAAEQAAEQAAEtCQAv9SSJsoCARAAARAAARAAARCAX+IeAAEQAAEQAAEQAAEQ0JIA/FJLmigLBEAABEAABEAABEAAfol7AARAAARAAARAAARAQEsC8EstaaIsEAABEAABEAABEAAB+CXuARAAARAAARAAARAAAS0JwC+1pImyQAAEQAAEQAAEQAAE4Je4B0AABEAABEAABEAABLQkAL/UkibKAgEQAAEQAAEQAAEQgF/iHgABEAABEAABEAABENCSAPxSS5ooCwRAAARAAARAAARAAH6JewAEQAAEQAAEQAAEQEBLAvBLLWmiLBAAARAAARAAARAAAfgl7gEQAAEQAAEQAAEQAAEtCcAvtaSJskAABEAABEAABEAABOCXuAdAAARAAARAAARAAAS0JAC/1JImygIBEAABEAABEAABEIBf4h4AARAAARAAARAAARDQkgD8UkuaKAsEQAAEQAAEQAAEQAB+iXsABEAABEAABEAABEBASwLwSy1poiwQAAEQAAEQAAEQAAH4Je4BEAABEAABEAABEAABLQnAL7WkibJAAARAAARAAARAAATgl7gHQAAEQAAEQAAEQAAEtCQAv9SSJsoCARAAARAAARAAARCAX+IeAAEQAAEQAAEQAAEQ0JIA/FJLmigLBEAABEAABEAABEAAfol7AARAAARAAARAAARAQEsC8EstaaIsEAABEAABEAABEAAB+CXuARAAARAAARAAARAAAS0JwC+1pImyQAAEQAAEQAAEQAAE4Je4B0AABEAABEAABEAABLQkAL/UkibKAgEQAAEQAAEQAAEQgF/iHgABEAABEAABEAABENCSAPxSS5ooCwRAAARAAARAAARAAH6JewAEQAAEQAAEQAAEQEBLAvBLLWmiLBAAARAAARAAARAAAfgl7gEQAAEQAAEQAAEQAAEtCcAvtaSJskAABEAABEAABEAABOCXuAdAAARAAARAAARAAAS0JAC/1JImygIBEAABEAABEAABEIBf4h4AARAAARAAARAAARDQkgD8UkuaKAsEQAAEQAAEQAAEQAB+iXsABEAABEAABEAABEBASwLwSy1poiwQAAEQAAEQAAEQAAH4Je4BEAABEAABEAABEAABLQnAL7WkibJAAARAAARAAARAAATgl7gHQAAEQAAEQAAEQAAEtCQAv9SSJsoCARAAARAAARAAARCAX+IeAAEQAAEQAAEQAAEQ0JIA/FJLmigLBEAABEAABEAABEAAfol7AARAAARAAARAAARAQEsC8EstaaIsEAABEAABEAABEAAB+CXuARAAARAAARAAARAAAS0JwC+1pImyQAAEQAAEQAAEQAAE4Je4B0AABEAABEAABEAABLQkAL/UkibKAgEQAAEQAAEQAAEQgF/iHgABEAABEAABEAABENCSAPxSS5ooCwRAAARAAARAAARAAH6JewAEQAAEQAAEQAAEQEBLAvBLLWmiLF0RiEajiqJE8AcCIHA9AvwLwp919cuAyoIACCiKAr/EbQACyROIRCLJn4wzQSDbCUAus72FUT8QuCEB+OUN0eANEGifAJfLqqqqffv2HTx48AD+QAAEEgiEw2FFUaCY7f+M4F0QyFYC8MtsbVnUq8sJXL58WVEUm82Wgz8QAIFrCDgcDj6ApMu/ivgAEACBzCMAv8y8NsEV9RAC3C8feuihnJycv/3bv73mf6/YAQI6JfDjH//4pz/9qcfjgV/2kB8zXCYIaE8Afqk9U5SoEwLcL0eOHMklYtiwYePGjRszZsyT+AMBXRIYM2bMM88886c//emWW27Jyclxu93wS538GKKaIHAtAfjltUywBwQ6RKCNX547d65Dp+EgEMhqAqtXr/6rv/or+GVWNzIqBwI3JwC/vDkjHAEC1yXQxi8PHjyoKMqlS5eu4A8EdEng4sWLiqKUlJT87Gc/g19e90cDO0FAPwTgl/ppa9RUYwJt/PLo0aPoDdQYMYrrUQSampoURXG73fDLHtVuuFgQ6BIC8MsuwYpC9UCgHb9UM0tH8QcCuiFwI7+8EQBkL9LD7yTqqFsC8EvdNj0qniqBdvwS/+NMFS7O74EEeEbYNvHLdvJftvNWD6w9LhkEQKAVAfhlKxx4AQIdJwC/7DgrHKkHAs3Nzdf2j7cjke28pQdcqCMIZDcB+GV2ty9q14UE2vHLq1evKoqydOnSnJycv/mbv/npT3/6s5/9jD//DH8gkKUE+B3+4x//mGfs+vGPf6ze9upXgE8tnzBhAu9Mh2J24S8UigaBbiUAv+xW/Pjwnkzgpn5ZWVmZk5PD5zroNNE2qg0C1yMwbtw4+GVP/vHDtYPAzQnAL2/OCEeAwHUJ3NQvFy9enJOTc8stt9x2223/9E//dNddd/0CfyCQ1QR+9atf3XrrrT/60Y9ycnJuvfXWX/7yl2p1f/WrXwmC8Nd//dc5OTnPPvss/PK6vyrYCQJZQwB+mTVNiYqkm0AH/TInJ2ft2rXpvjh8Hgh0E4EVK1bwTvAVK1a0uYSDBw8KgpCTk4P+8TZk8BIEso8A/DL72hQ1ShOBjvslXyjvwoULusy6jUrrhcClS5cURSktLeVjQkpLSyORyOXLl69cucJTr2/btu3OO++EX6bpFwofAwLdSgB+2a348eE9mUDH/dLv9yuKwif99OQa49pBoD0CN8p/qSgKf2vHjh29evWCX7YHEe+BQLYQgF9mS0uiHmknAL9MO3J8YEYTgF9mdPPg4kAgvQTgl+nljU/LIgLJ+SVPyBKNRvXSaYp66oYA7wTvSP/4+PHjL1682NTUdC2bq1evqt+RLPq1QFVAQHcE4Je6a3JUWCsCyfkllvbRij/KyUwCK1eu5PN7Vq5c2eYKDx48KIpiTk7O5MmT27zV5iXyYrYBgpcg0OMIwC97XJPhgjOFQHJ+yf/Hefr0aVmW//CHP/wWfyCQRQT+5V/+pVevXjw/Ua9evX73u9+plfv973+fm5vL1fMf/uEffvvb3ya++9vf/vYPf/hDnz59nn766XA4rCgKX20yU77tuA4QAIFOEoBfdhIYDgeBOIHk/JL/X/PYsWPXSzuNfSCQ/QS4fd6onnfffXdtbS38Mv4zg/+CQE8lAL/sqS2H6+52Aqn45ffff8+X9rnlllt+8pOf/Bh/IJAtBG655RbujrfccktinX7yk5+ob/3oRz9KfItv86xG/fr1q6urg192++8bLgAEUiQAv0wRIE7XL4HU/TInJ+f+++9XFOXSpUsR/IFADyfAM3CVlZVxUywrK1MUpbm5ORKJNDY2Koqyfft2np/oueee43uam5v5rPMTJ0788Y9/zMnJGTBgAPxSv7+qqHkWEYBfZlFjoirpJaCJXw4bNkxRFP7/2vRePj4NBDQmwMd+eDwe7pcej0f9AP7Wxx9/zP1y4sSJ6vBKPiL51KlTd999N/xSJYYNEOjpBOCXPb0Fcf3dRkATvxw6dKiiKJcvX47iDwR6OIEb5b+MRqPt5Ffnonny5En4Zbf9luGDQaALCMAvuwAqitQHAW39Uh/MUMtsJnAjv2x//R74ZTbfE6ibjgnAL3Xc+Kh6agTgl6nxw9nZRgB+mW0tivqAQAoE4JcpwMOp+iYAv9R3+6P2bQnAL9sSwWsQ0DEB+KWOGx9VT40A/DI1fjg72wjAL7OtRVEfEEiBAPwyBXg4Vd8E4Jf6bn/Uvi0B+GVbIngNAjomAL/UceOj6qkRgF+mxg9nZxsB+GW2tSjqAwIpEIBfpgAPp+qbAPxS3+2P2rclAL9sSwSvQUDHBOCXOm58VD01AvDL1Pjh7GwjAL/MthZFfUAgBQLwyxTg4VR9E4Bf6rv9Ufu2BOCXbYngNQjomAD8UseNj6qnRgB+mRo/nJ1tBOCX2daiqA8IpEAAfpkCPJyqbwLwS323P2rflgD8si0RvAYBHROAX+q48VH11AjAL1Pjh7OzjQD8MttaFPUBgRQIwC9TgIdT9U0Afqnv9kft2xKAX7YlgtcgoGMC8EsdNz6qnhoB+GVq/HB2thGAX2Zbi6I+IJACAfhlCvBwqr4JwC/13f6ofVsC8Mu2RPAaBHRMAH6p48ZH1VMjAL9MjR/OzjYC8Mtsa1HUBwRSIAC/TAEeTtU3AfilvtsftW9LAH7Zlgheg4COCcAvddz4qHpqBOCXqfHD2dlGAH6ZbS2K+oBACgTglynAw6n6JgC/1Hf7o/ZtCcAv2xLBaxDQMQH4pY4bH1VPjQD8MjV+ODvbCMAvs61FUR8QSIEA/DIFeDhV3wTgl/puf9S+LQH4ZVsieA0COiYAv9Rx46PqqRGAX6bGD2dnGwH4Zba1KOoDAikQgF+mAA+n6psA/FLf7Y/atyUAv2xLBK9BQMcE4Jc6bnxUPTUC8MvU+OHsbCMAv8y2FkV9QCAFAvDLFODhVH0TgF/qu/1R+7YE4JdtieA1COiYAPxSx42PqqdGAH6ZGj+cnW0E4JfZ1qKoDwikQAB+mQI8nKpvAvBLfbc/at+WAPyyLRG8BgEdE4Bf6rjxUfXUCMAvU+OHs7ONAPwy21oU9QGBFAjAL1OAh1P1TQB+qe/2R+3bEoBftiWC1yCgYwLwSx03PqqeGgH4ZWr8cHa2EYBfZluLoj4gkAIB+GUK8HCqvgnAL/Xd/qh9WwLwy7ZE8BoEdEwAfqnjxkfVUyMAv0yNH87ONgLwy2xrUdQHBFIgAL9MAR5O1TcB+KW+2x+1b0sAftmWCF6DgI4JwC913PioemoE4Jep8cPZ2UYAfpltLYr6gEAKBOCXKcDDqfomAL/Ud/uj9m0JwC/bEsFrENAxAfiljhsfVU+NAPwyNX44O9sIwC+zrUVRHxBIgQD8MgV4OFXfBOCX+m5/1L4tAfhlWyJ4DQI6JgC/1HHjo+qpEYBfpsYPZ2cbAfhltrUo6gMCKRCAX6YAD6fqmwD8stvbP8r+FIX/V8tnhRXa7RXsWRcAv+xZ7YWrBYEuJQC/7FK8KDybCcAvu7F1VZdUlGgkGm1ujmj1aGqORCJUPBSzs+0Lv+wsMRwPAllMAH6ZxY2LqnUtAfhl1/K9cemJ8se3b3xsku9wf4Vidgof/LJTuHAwCGQ3AfhldrcvateFBOCXXQj3ZkVzrYxEKMr4Q825omV7R0zaan3uLetzb1me7fyDTtxoefatoa9seaX00z1H6vjnJ4rsza4I7yvwS9wEIAACKgH4pYoCGyDQOQLwy87x0u7ouFxGFEU5VXv+0Rnvm2x+Id97631lt/VbdOt9ZZ193EYn0ll3DnDLNt+9Y9fu/rqGX28XxUe1g5FBJcEvM6gxcCkg0N0E4Jfd3QL4/B5LAH7ZLU2njrxsjpBf+jYe6jXAk2vz59rZw+ozWb1JPHJtvly7L9fuN9l8Qr57zJsfnLvYyCf5QDE72NDwyw6CwmEgoAcC8Es9tDLq2CUE4JddgvVmhcaDl9QzHmy4NGrKO7fdV9a3sFy2eiWLVxqyXBq2Rhq2WhreqccaaehKyeaXrV6TzW+y+X8/ctmxqgY+/hJ+ebM2ib0Pv+wgKBwGAnogAL/UQyujjl1CAH7ZJVg7UGg0Gm1mIy+/PdXQ7+n1Qr6nT2G5bPYYH39XmHVSmF8jzK82zK8Wrnm02dnyct4ZYUGNOOFzyV4uW30mm/+uwoovDlEXOeSyAw0SOwR+2XFWOBIEsp4A/DLrmxgV7CoC8MuuIttuuVz4Yn75Q/19T60T8j25dr9srxCmf2soDguOgOAMio6AyDecQdEZTNxD26330JGukDC/WnrwLTnfbbL7+xSW72JDMNWJ5O1eFN4kAvBL3AcgAAIqAfiligIbINA5AvDLzvHS9Gjul0fJL9cKZm9vu08atEyY8Z3BFTY4AgZnUCiuF0rqacMREGJ7wkJJveAMGvgeR1Aopj3qMcL8Gmn0ZtnsNtnL+xZW8Ck+8MuOtxv8suOscCQIZD0B+GXWNzEq2FUE4JddRbYD5V7HLwcvFd74Lha/dASE2aeEmSd4LDP2POcU9Z4X1QkseCk4A8Kc03RMUZ3gYBq6gPulx2Qv71NYgfhlB9qh1SHwy1Y48AIE9E0Afqnv9kftUyAAv0wBXqqntuOXFI+ce1oatUEaulJ443vq+HYEhHnVxke3SkOWCzO+NxSHqX98QY30+HvSkBXC9KMU7HTU0Z54/BJ+mUQLwS+TgIZTQCBbCcAvs7VlUa8uJwC/7HLEN/6Am/jl7B/kwkrZ4hVfO0yd4E4KZ0rD18j9S4XXDhuKqZdcmFctjVgr57vFVw8IpQ1CUS388sa8O/QO/LJDmHAQCOiDAPxSH+2MWnYBAfhlF0DtaJE38cs5p+Qhy+WCSnHaEcEVJpucUyU9sEEye4RpRw18D5/NY/MLk78WShqolxzxy47iv/5x8Mvrc8FeENAlAfilLpsdldaCAPxSC4pJlnFzvxy8VLZXkF/y+OWcKmnkeinfLUw7YnCx+OX8amnUBtnqEyYfZH6J+GWSbaGeBr9UUWADBEAAfol7AASSJAC/TBKcFqd10i95/BJ+qQX6G5cBv7wxG7wDArojAL/UXZOjwloRgF9qRTKJcuCXSUDr6lPgl11NGOWDQA8iAL/sQY2FS80sAvDLbmwP+GU3wr/RR8Mvb0QG+0FAhwTglzpsdFRZGwLwS204JlUK/DIpbF17Evyya/midBDoUQTglz2quXCxmUQAftmNrQG/7Eb4N/po+OWNyGA/COiQAPxSh42OKmtDAH6pDcekSumAXy67eX6iUW/JlJ+Izx9HfqKkWiLhJPhlAgxsgoDeCcAv9X4HoP5JE4BfJo0u9RNv4pezT8kFifnVgzy/usTzq1N+olAsv3peGfKrp94cvAT4pVYkUQ4IZAEB+GUWNCKq0D0E4Jfdwj0ajSqKchO/nHdGemiTNHKd8MZxvj6kYV618fH3jMNWC298b3Dx9SFrjWO2ScPXCNO/xfqQmjQl/FITjCgEBLKDAPwyO9oRtegGAjrxS+5zUfanKAp/2Q24Ez4yGo1e3y9nfGcoDguOgIEWHD8jzKmiDfYwOIOGuWeEuafpXWdQcAbpeX41HeMMCI4grSEZW7/HY7KXY/3xBN4d3YRfdpQUjgMBHRCAX+qgkVHFriGgB79kscKYW/L/RKPRSHc/otFoU3NEUZSjJ8P3jV0rmL25dp80eJkw4zuDK8SFksKWxeEWv3QEaI8rbp/cO+mYUOyYojphfrU0erNsdsMvk/vGwC+T44azQCArCcAvs7JZUal0EMh6v0yMWUYipHQR1TG7e6M5EvPLfk+tE/I9uXa/ZK8Qp39rKG2gUKUzqIYtafFxvofilIH4Nu2kmCUPZzoCQnG9YX6N9MB68kubH/HLJL5C8MskoOEUEMhWAvDLbG1Z1KvLCWS3XyZ2i7MoJvWNN16NnL/UmAmPhvNXIpHo19+H7nlyrWj25Bb4JbPHOHqz8Mb31Ovdqce8amFetTD3jHHcx5LNL1m88Mvkvjzwy+S44SwQyEoC8MusbFZUKh0EstgvVbnkHJuaI5/uPzOhaId94sa8cRvyxm/oP279gG599H96ff74Dfc8ufYXgypkm0+2+SSLVzJ7pEFLpaGrOvlYKQ1bJQ1ZLlt9stkjWX3wy+S+P/DL5LjhLBDISgLwy6xsVlQqHQSy2C/VeTxcNDfvPP6fj6zMtfkN+Z5eA9gjz9Or2x8DPIY8j2zz5dr95JdWn2zxyma3nJ/sw+KlQjLGL1XL5xvpuKdT+wz4ZWr8cDYIZBUB+GVWNScqk04CWeyXqtkoihI6ezlv/AbRTO6Va/OZbD6T1Wey+pN6sHNtvlyb32Tzy/TMS0uqQBu5ID1YUTG/pD3+pB5UlGTzZ4JfqvxVs4zvSecN3unPgl92GhlOAIHsJQC/zN62Rc26mEDW+2WEzaHZvPM47zI22byyxUsjFAcvlQYvS+ZRUEElsEBj7NnilQoXJ1PU4GXSwCWSlXWL82cLu7zkS1tKVkqX153jL9m8qVgSqMQ5VG0iyl18aydZPPwySXA4DQSykQD8MhtbFXVKC4Gs9kvymUiEMpmXrP5KttCQRHKvwsXic58Lbx6nvOVvHKeNTjxOCJMOGoet4opJfpnvphk5048Kb57oXGn8o18/Znz8XTnfTZZJQye9xoffFl47QqV14qridXnje+PT22V7ebfP74mHKgk+/+M5oa7dH38/U/4Lv8yUlsB1gEAGEIBfZkAj4BJ6JoGs9kuSG+6XRSv2UZexnSZWGx9/j+f34SnK1XQ/sZRAPCsQSwZ0vT0hQ3FYfGmPbPFI9nLywsHLhZknDQvP8XIoWxA9eOag+DPLKNQqxxA/xhEwlJ4V5lRJ96+komx+2V4uTDtqKKmP5yeiFEWx64zlJ2JJi+LbahXYBmXHNMw7I43awPJfdk9+Ih6wVMmfu9i4fU/VmcAF/v3g2aESApkZ97WBX2Zck+CCQKD7CMAvu489PrmHE8hqv6S24X7p4H5p80tWn/jUdrKxojrKSe4MCsVhvvpibMmc+B6esfy6x4iTDshWylUp55XR+o1zT1MJRXWkmK4wz39O22r+c5YR/Tp7iupoDfH51dKDb1FRrNf+5vnVi8Pkx4nlF4epRrSnm/Or8yRQXDEjkWgkEilZs1/I94yc/M6WnScazl+hFuHd57FVlNTBmZnyRYJfZkpL4DpAIAMIwC8zoBFwCT2TgA790jj2I4MzJDjqmGXWCrNPCQtquLFR1NBRR3vm13Bj4yaq7qEDXCHh1QM0jSbml2uFuacNxfUGVqBh7hl6MP+jc51BWuORVnSkfOkGFow0zKs2zD0de1kcJr8ctaHFL9+IrQ9Jvjj3tDCnKhZt5YFMKq2KBzVZCbH1Ibkc0yqR3b0+JBfGZrY00c79Z/702GqTzWe0eH87bMn4eTt2H6rh0s+9Xx2dmTnfHvhl5rQFrgQEup0A/LLbmwAX0FMJ6NEvn/qIHLGozuAKiS9/JQ1ZYZzwOckcd8dJB6XBy43PfMxDkgZXWJhySBq6ivYU8YVzQgLFL1W/ZPHL4noeOzQ+/DYNoOTRROaOxke2GB/aJMw5LRTXsw8NGx/danzwLfJOWnGH+2VC/JL5JbnpvDPSw5soPvrmcR5hNcyrNj7+vjR8tfDGcbowZ1BYUGt8cps0Yq0w/Vsq31EX98vuWR+SyyV3x/DZy2NnfWA0e3vb/b0Ly002v2D2/ucjq1a/f5T1jyt8+XVSTIplZso3CH6ZKS2B6wCBDCAAv8yARsAl9EwCuvbL4rA4bqd8r4tGZBbV0eBFV0icsEv+X4f04CbmiHU02vL5L6R+JcYHNwoLaukY5438MiDMrpLtFbK9QiiqJXcsqaexlQOXyDa/MPOkUNogFNUanEF50FLZ6hNmnaSPaMcvZ/9ApZk94tTDdJgzIMw+JQ1fLfcrEV47bCiup9PnVUvD18gDFgmvHuDld6NfqsFIHrxc9s6R3gWUKSnX7jeZPbk2X5+BFYY8z6/vX7xg+d668CVFUfiRMcPMDMWEX/bMXzJcNQh0CQH4ZZdgRaF6IKBrv3SFxOc+l/PLxLEfGlS/fOFLecAi6dGtMb90hcWX9koWj/GRLWSN7fvlnCppyHKa8UNjMYPkl3NPS0NXS4OWCbN+EEoaKH7pDErDVksDlwizf7iJX845JQ9ZLhcuFqcdocvbdRoAACAASURBVDGdziDZ6qgNksVLc4D4Hj5201YuTP6al99dfskjl9FolC+q/vV3wf95fLWQ7+lTWE7rCT34llRQaTK7ew+skKzUXT529offnmpQFKWJ9aSzKCYvo5u/dvDLbm4AfDwIZBIB+GUmtQaupUcR0LdfhsXnPpMHLBSf/KDFL5//Qu5XKj2ypcUvX9wr5ZdREqKb+uXcKkqrOWhZK7+8fyXZZKJf3r9SKlhMe9qPX845JQ9eKtsryC95/HJOlTRyvZTvFqYdMbhY/JKP3bT6hMkHmV/Wdpdf8inh3BCvXm2e7t11e7+yvoMqTfll1H0/p0qY/q00ZLkpvyzX7s+1+w15nuGTtp6qPZ8QxVSnlXfnVwh+2Z308dkgkGEE4JcZ1iC4nJ5DAH7Z1i9f+ELuf61fsiSXmvnlKqkwCb9k8csHMtQveed4hI2j3Huk7p4n14oWL/WPW7zipIOG0rOGknph1knj6LdNVm+u3Zdr993R3z1q6jvHz5zlM35YCaSY3fvtgV92L398OghkFAH4ZUY1By6mJxGAX8IvNblfuV8qinKlsblo+d5cG5vTY3YbH33HwEad0oT94rAw77RxzDY5382imL5eeZ7HZmw7XUfZMXneomg0tvCPJleVRCHwyySg4RQQyFYC8MtsbVnUq8sJwC/hl6nfZLxbnAcvT9WcMz+7gYKXNr9cWClMPURaGc/WSTP3nUHj0ztM+W6Tzd+7gCaVTyn77EpjM1fMbu8jh1+mfj+gBBDIGgLwy6xpSlQk3QTgl/DLFO85dWYP39jy6Qma1jOwwmRmgwrmnSGndARElg2UMoByxRy7XaZF0n29C/ySxbdk62F+GWppKV5V0qfDL5NGhxNBIPsIwC+zr01RozQRgF92zC+1nd+TVeMvE43wwqWrD732riHfwzMTiRO/oHnuLHgpOoOkmI4ATzIvzKdcniazO9de3rug/JcDK9/97CS/6RMLTNPXIOFj4JcJMLAJAnonAL/U+x2A+idNAH4p5y0Sn2ydn6j/QumRhPxEL+6VzB7j6A7kJ5pbJQ1Z1nb++NBV0qClreaPD10lFXYsP9HgZXJBZav8RA+sl8yeVvmJRm2g/Jqx+ePdkF+dj7zkUrj/WIASqhdU5JrLpPtXUmb44rBQVEdm6QqJrhCPYpJlusKUbmnkOjl/Ue/CCqPZa5+wkS9Trg7l5GUmfW8ndyL8MjluOAsEspIA/DIrmxWVSgcBXftlcUgcv1O+r1h8YltCfqLd8r0uia/BU8Tyq7/wpTRgIa3Bs4DlYG8nvzplU18sFy6mTOw8/+Wc0xI5YkU8vzrLfzl4uWwr70B+9VNy4WLZ6hNfi+dXn1MljVhL2dRfS8hPRIrmFiZ1Z351LoKRaLR0zf47+rv7DKqUByw0PvEu6woPiGxtJJF1i5Nl8o7yojpDaYMw7Qhlm7d4+xRW9C2sWLhmP0+f2Y2jMOGX6fjdwWeAQA8hAL/sIQ2Fy8w8Arr2S1dYfHGPVFgpjt9pYAMEyYde2S8VVBjHfkjJKZlfCpMOSoOWGp/8UCgKiM521u+po5XEH9ggPbAhNp2luJ7W13loI63xOKeK0q3TopRhWvVx+BpaMbL9/Jdzz0gPrJeGrhRmfB9fH/KM8ZEt8uBlwozvDK4widr8GuNj70r3LxcoRyaVn/78l2q48dyFxgcmbRXZgpCyzSe88pVQelZUg5fOoKqYLLdogJy+OCxO3C3b/CarT7L6/vTY6iMnw7RaJMtzhPhl5v1g4IpAQF8E4Jf6am/UVkMCGe6XqrskoRp8SWu+FrZjxT7Z6jPZ/LR4jLr+OFtfUXj9O2HuaVrv2xk0OIOG+dW0Z84p2uMI0PP8GjK8OVW0QmNsjfLE9cfXCnPZ2uKOOoMjKMw8Icw8SeWwoB2J5syTwpsneVGx2S2zfhDePE4HtKw/vkHOK5NsfmnwUnJHdcL1zBP00Xw1IF4mlXacrwNEF+MI0DpAb3xPud/5oucLaqTRm2Wzx2Qv71NYsfvrGh4LTAKgGkRsvxXUkg+fCP/Xo6tkmz/X7JaGrSFirHNciJtlbAhmPITJahGgJY4e2mSyeHPtfqPF9+z8Hdd+roY3/E2LQvzypohwAAjohwD8Uj9tjZpqTCCT/VIVF+43yT03N1O+7kS/FJ/aztyxjuTMFaJlu10hbnvxPWeF4nDrPQ0te5xB8dVEv1wnzK0SXGGRLJCtOV5SH4tfxgyyniKXDrLV2KMkzPYESBxdIYpxPvhWzC8HMb9kE65ZaQ1CSQM3XT4zhoKUpQ0xs1QNteUYFkMlv3Rzv/z8YLXql8kBTGyFa28+VT0VRXn3sxP/PHxpbkG5KX8RLemuWrLql65QrH88UTGLw8KrB6WCCtniMdn9dw2sOHAsGFNM/k+Eaz+1K/fAL7uSLsoGgR5GAH7ZwxoMl5s5BDLTL1VriUSjTU3NTc2R5kikuTmZB1/eumj5Xh6/lC1e4xPvs4w5ceHjXkjxSwpPktVdfw/TR0fQUBwWX9onm72kRPluachyiiCWnqWz6PQ6eqilOQOxPTycGfuIupaDSxoogDdslZxP8Uu5oFJ4/ZihOG6oRexIOpceBl5aq8tj5fM99LkhA1+R3EzZJe8aWPHZgWpaEzwpdHRWJNLUHGlqaubJz9XIYuINzAU0Go16Nhw02f25Np9s8YjPfS4sPCsW1SbGLGPze7hc8memyAZn0PjgRpktHWm0+CY6Po5Go5EI5dNU7TbxE7t0G37ZpXhROAj0LALwy57VXrjaDCKQsX55XZVJGlzJ6q9i/eMWrzR4qfjqfgONpGQd4p16doWEN47TrGeLV2JDBqV8Nwkry/LY6QJdIcOCGuNT26V8Ny9NtniMj70rzKkyuJK6PGfAOOFz2V4hWbwmm7/vwIovv6H+cU3+VI9MLI39S4Da6kpj85Syz0SLz2TzyoWLxVdpTUiu0eqwS/JLNXLJ0xU5g4aiOkNJvTj1sGyvMFm9ks33lyfXHjtVz0dhqv/SSPzQLt2GX3YpXhQOAj2LAPyyZ7UXrjaDCGSgXyZ6zJGT4Tf8u4a8tLlgwkb7xLfsEzcWdPJhn7hx0Iub/vjwSpPNJ9toEols9kj2CmnYamnEmmQehYupBKtPZn4pW7z0csgyacTazpe2VhqyXLJ4ua3Sc6y05UmWNnQVBUH55dn8Jpv/nifXDnx+U2ehFUzcaGePAkZvmmfXoeMhbvy8y1oNK5L/MROsP3flsRnvS1afyeKRhiwXp38bm2+kdo6zjZhisrnkMe90BERHnVDaYHxok8nslq3+Xw9ZvOLdo+qi5Nr+S+Om3z345U0R4QAQ0A8B+KV+2ho11ZhApvklFxc+KWfn/ur88Rtkm9cwwGPI8/TKcxvyPEKeV6Dnjj4Med5eeW7RTEvFmOw0v4cboZzvls2df7CzyAKtPtnmb1HMfHcyBfKzWChULZBdXlKlmdlZlpj7mtjliflewwA3w9VZbp5eeYTdkOeRrf77xq7b+tkJ7nyJtyDXy0gkWhO6UPj82xQkNrulEWtoVpMrRJmJuEq2lsvETnMaS7Cg1rDwrPj8F4SUIq++Fx2f0KCIWLc8D2K2PPMLaHnNutH5ncN3pqKk8MvE9sU2COicAPxS5zcAqp88gQz0S7aMdfRM4ML/jll7Z55btvpy7ZS/JqWHzS/baP44GSG3QytFDZN78OAllcYmpCdXSOwsq1e2Ule7TOHVuP5yCU7p8vw8XmtiqX9SQZdrL5etPiHPc/folcdONaiK2cbnqmrP3Tt2HUG2eKRRb/HsS7G06mpydd4/zp7ZENVYxiKaSuUMCm+ekIYsN1noXw6W595qOH+FRmEmWGRHNvk3gR1Jm0lMEIJfJv9rgjNBIOsIwC+zrklRoXQRyEC/5DNyyjcd6lNYTv2ttlhPNHVq2ys7/SiooC5jPlySd0Azv5QKKqSCJEqrbFVaXAQle3mSpdnLuWjS+Mv45Um2pEqzV9KUI+bNsdLo8jyk1PRWEpWt4AFaCv2yVphd+aWiKDysqN6hXDRPVp/7b5aciPzy4beFedWUloibJdtQe8ZbNlhOqFgvOWXurDU++JbJ6jXkef4wctkXh2jkaFNTs/pB7Wyw+UDRSIQe/E8dvtnZWCb8sh3OeAsE9EYAfqm3Fkd9NSOQgX7Z3BxRFGWGb5eJRfUo87bNb3xquzj5kDDlm04/pn4jTtglDVwqs45jCl4WVBqf2i5MPSRM6XyBU78RJ+7mgyZjM3LMbmnUBvGVr4SpSV3bqwekh96WzfH5PWYPJWN/aW8ypU35Rpj8tfGxdykOyvvcLV6psNL43GfilENJFChOOWQc97FkLzdZvCarz2j2jp/3EfllXOK4unG//P50wx9Hr5StbPTn6M2UNJSlrOcJiVqcUg1hMvVUU2PStH1nyDj2Qz4I9ZeDKpe/e1i9yyPRaOPVpouXr567cOXshSsN56+cvdB47mLjhUuNVxqb+GgK9WBFaSWaapw14YD2NuGX7dHBeyCgMwLwS501OKqrHYGM9cvpnl0UPLP5TGaP9PAmSjnupOyJQnFIcAWF4pChmG3zZxctb912T+ytkGHhOXHC53I+G5ho8UqPblVXg6RTEkqLlRAvzcA+JXYMK9/gChucIeOEXWSr9nLKTzRoiTDjGM2VZuXQFba9kvhls+thpdGH8mLpxJknpMHLqSjqcC8XpxwylNTzj2alsSOvOZdfatvSiutpUe8R69gUH79sdtPSRKVnKR+TCopvxF7Gr0QtXwXCJ7CXNkiPbpXzy0w2n2j2jJ31Ac92FI8RUgc0F7jvqhr++PBKGkBp9kod8Ut1LrmaqMgVFl/4UraSy0pW38Sij4+fPrv5kxNLthx2rtz3mvvz5xbsGPPmttHT3h015Z2HXnv3sRnvj5+3fdLCT4uW71229fBHe6qOnAyHGi4nfjnUiGbHo5jwy0SA2AYBnROAX+r8BkD1kyeQ4X5Js17yy4zP7BBKGkRa1JulKHeGYsnG1YzlzhAN4FNfsmBYS0pzV0iY+o1kpaienLB+DyuExLRtaWxKCs+vHnsrYQ+tJDnpoGz1S/YKOW+RNHI9rd/jCiVkzWTL6qgXw3qB1WuLjTWMJ9pk6wNVSw9uvH5+dTo3lvs9diWt97CwH3Nr/nGx9SG3xKaQmz3ipIOCK6x+Oq9sy0vHNeXH0dF1Lqg1lDYYn/1MzqdsmqLZO3bWh2r/ONdK3g2tKMrJ6nP/9cgqGu5p8Xa0f5y5eCyE6QgYXGFh6mHJTiNlZZvvl4Mqf3P/4tv7uf/+Lwt/fu+i2+4ru6O/u9cAT688ryHf2yufph/dOcB9e7+yf7x30T/es8iQ5/nXUcsenv5e8aqvtu3+4diphstXmvgXg6fvVBWz/UGZ8Mvkf01wJghkHQH4ZdY1KSqULgIZ65fTPKx/3OKT8920omNpg8FRRzZWVCfMO00BSLY6ImlQUR0ZXlEtX5UxttrNvDMGdU9xWJj8NZ85Lll94tiPDGSobDlHOrfKsICdSwnMKR0j21PDy2HPdbTU4QJagJEOcIWEVuv30PqQhuJ6fnmGedX04NfG12+cXy3MryY75C/ZEpSUL5MpJsVl51dLo66zPiRVbd4ZKtwRYI+gwRkwzKumnbw0Z4BWpFxQQ9WPfWIgvv44C9aaPZTpk66NLXRZVEulFRHG2B4HR0couPgaHIQ3BrOo1lB61jh+Z4Jfbm/jl2r8sqr2fL+n2Pwes0catYHWNEocf6l2i7fZUIdgkl9SblG5cDGf6W+yl+cWVPYZWHnX4MV3Da7sW1jet9Dfx+brbfXyRx+bt2+Bv29h+V2D6JjehZWyvfzOAe6f37OoT2GFefxbkxd+umH7sergBT4niY+7iA3PvLFjwi/T9duDzwGBHkAAftkDGgmXmJkEeoJflhmfJr+kJbaL64Uph43D14ivfBVb5KY4LE79Rhq5Tpy4y1DCjik9K7z+nXHEGvGFL9k6PQFaqHDKoVhmooT4pcEVEl/dLw1fIz7/RcyunEFhytfGYauM43dSQLSojgXVvpFGrDOO2ykUsfXHnSFhUpv1IWPrjwvza4yPvmN8dCstt8PXFl9QY3z8PeMjW9ga5WFWYMj4+PvG0ZtJE53s2sgv4+tDDl4qvEHrj5N9zqs2PrLV+NBGw8wT1PnuCBjmV4tPfiA9sEF48wRdGMvsY3x6O/nc68fYeox11/jlAYLmpE528eV90vDVwtTDQkkDxSZLGsQXvyR0k7+mYxwBQjrpoHHYKuGV/VQaxS/PGsd/2q5fxgyzNnRp4Atvs/EMbmk4y0/kZPmJeGaiNvmJEi0zPgeIqjOnShqyguKXVp8p323KW2TqXyr3K5UHLKRkUjY/LdFuZxOzCippFhQN9/TSu/1KTAMW9ra4+xT47xpUaSqo6JXnEc3e341YOmLS1g3bv+PfPj51TA1kXvcrCb+8LhbsBAF9EoBf6rPdUWsNCPQUvxRKG8SiWuolf+FL+S9F4tM7aNEXR4AW435+t9yvxPjIFhpnuaBGWHie+q/vcRrHbCO/dAZv6JfFYXH8TvneYuMT71EQlI04FCfuku9xSA9tivllMQ0KlPqVGh/aRIJLx9zILwPC7Cq5oFIuqKAj+Vrkc09Lg5ZKNj/lg2SKbHAGpUFLKePPrJOxa7uRX84+JRdUyGaP8NphqoKTypeGr5b7lwqvHTa4yBpp7fIRa+W8MvHVA2SNRbU39st649MfEboXvhQWnhPnVwsLzxufeF++r1h47nPC6wiQcT77menP88XxnwrFYRqQ0AG/5LrWcP7KmJkf8Pzq8uDlwrSj1Fh8zUw2wpJyXiZqZXybuuzZWyTB86qlQcuoc7+gUhq6yjjqLfHx98RxH4sTd4uvfCVOPSROPyrO+C72mP6tOPUb8dUD9O7TH0mPbpVGrJELK00Wj8ns7m339RlYYbL77+jv/uWgymmeXadqz/FLpZ59xC81+PFAESCQ/QTgl9nfxqhhFxHoKX5piPllvfDSXrn/QnH8pxSt5A73wh7J7DE+/h7l6F5QKyw8J0w+JOeVUa96+37pConPfS7nl4ljP1Rn/JC/DlgkPbKV7M1B8Uvxpb2SxWN8ZGvcQW/slxR+Wy4NXk5HOoJCST2tLT50lTRomTDrB+Z/1DctDV0tDVxCq5Zz972RX845JQ9ZJhdUitOO0BhKHt4btUGyeIVpR2PxS77auK1cmHyQl9+eX477RO5fKr60Tyg9J86vMSw8Zxy7neYATdxN7sv9cuIuU78SccIu7pcdiV9yaWu82jzdu8to8eVafXJBhfjyV3z9ce6ON5JLMk61i5wGJ9QaJ+4WX9xDSv3mSWFeNfXjl9QbShqouUvP0lyl0gahpCG2UXqWv0U0impJ2aceFp/fbXz8XWnwMlrQ3OrtM7DCaPEZLb6hL2/mq2Wqk5Ou+51C/PK6WLATBPRJAH6pz3ZHrTUg0CP9sl8JTYtu8csvySZb+eXXcv9S49jtN/PLsPjcZ/KAheKTHyT45Rdyv1LpkS0tfvniXim/jHq0bxq/nFslDV5KNpnol/evJJtM9Mv7V0qFi2nPTf1y8FLZXkF+yeOXc6qkkeulfLcw7UgsfsnHblp9cb9sN375zMfyfcXii3tZ/JL55ZMfynmLxIm7Wvxywi7TfS7xuc877pcsFEiLRC7dcrhvYXmu3U9DZp/5WFhI64+r+tiOYrbEL/lIU5pcX0+DBKjW6rStOoqGFtUZimiD2ottMNQsPTtN2w/Tic4gDXh984Q4YZc8aJkp351r9/cu8Pca4Bny8ubTdefVFPHX/f7AL6+LBTtBQJ8E4Jf6bHfUWgMCWeKX+df65cLk/bL/tX7p1tQvVyXll2x44gMp+mUJ+aUav0zZLxPHMu7cf+YPI5flFpab8sukhzYxZQ/S2uLx7u/r9o/z/Or8mY+CjU1vZ3FNOjfhQbqZ8Gj7ljpnP+aaYWH2D9Kj78gWz12DKm67r+zJWR+cvXCF/BL94xr8eKAIEMh+AvDL7G9j1LCLCGSvX6YQv4Rfdi5+SR3OiqJUBy+Yx2+QbP5cq0curBSnfhMbNZswg+e6iqkKKLfJmFMmDtDkmYzie9RCaOxm/MG72mPhUiaaPHptfOojOd/dd1Dlz+9dtGwr5Wznq5rf6AuF+OWNyGA/COiQAPxSh42OKmtDAH55nf5x+GWH/bJlxoyiXG2KTC37/M4B7t4Dy015i4xjPzSUUOpNmoaVqJjXm+jDFZOimEwi+aQfHqrkyqiqZ5v4Zatj+Ok8wEkpmULCG99LQ1b0ttPC7v/+0Ip9R+t4fqV2vjzwy3bg4C0Q0BsB+KXeWhz11YwA/BJ+mcr4S+aXtIQPD2F+uv/MHf3dfQdWmPLd0v0rhTeP8zRSYrtrRXK5bCuOfNb5NTFLNXjZaiO+2mRMTFk2TYMrZBy7neaSF1YY8rwTFuw4f7GRd47Hk8Nf53sEv7wOFOwCAb0SgF/qteVR75QJwC+7wy+Tm9+j3fhLyk+kzfwe9Qbkxnbx8tVRU98V8r19Cstli1d89lODK7b+EJ/fw/2vlRp20CBvfFiLnsZno9Osc0qV+o1so/lGRov3Px5a8c5nJ/nMHtWG1YtP3IBfJtLANgjonAD8Uuc3AKqfPIGe6ZelreeP76EJy63mjx+SByzsQH4iNn88b6H4ZOv8RNQ/npCf6MW9ktltHL2lY/PHl7WdPz50lTRwaav540PZ/J6O5CcafE1+ogfWS2ZPq/xEozbIVn98/ng7+dXrjeM+kfuViC8m5if6kNIzJc4fp/xExR2fP87vPG5sXDG37f4h117eu7Ai1+JlidZP0OR3NiAy1v19vf7x5I0zcfKQ2jPuCgkzT0qDl5msZLq98twTi3ZcYstFti+XiqLAL5P/NcGZIJB1BOCXWdekqFC6CPQ4vxRf3ENJdsZ9Es9P1CC88IU8YJHxsXcp4SLlvzwvTPqaMq6P/fBm+YlC4rOfUkrIMdti+YmcIfH5L+T7Smi2uJr/8sU9Ul6Z8eG3b+6Xc6qkQUvkgUvoSJ7/cs5pachyubAynl+d5b8csoJysN80v/qcU/LAJbKtXFTzq1N+onVSXpnwWkJ+ogfWUaRwEs9/eZP8RKZ7XQn5ic4bx3wgD1goTKD86rH8l899brrHKT73WQfzE6n94+qk7ED9xQemvtMrz9O7sJySa477WO2zVkOYfCN5p+SxzLhZtsQveTIjtvCS9MhWOb+sd0F5rwHuu0evPPBtgNyxOZJ4wdf9ksEvr4sFO0FAnwTgl/psd9RaAwI9wS/dxqd3tORXf2W/bPGJE3fTYjO0BmO98Mp+qaDS+NR2Q+lZWiV84TnxtcOS1WccvzOWQPGG60OGySZtPvGZHSwzDq3NI768T7Z4jU+8T2kU2fqQIpVfYRzzPsvm2M76PXXC3DPS8DXSsDWxpIzF9cK8M5SxctgqYfYpSrdOS6KHpAfWS/evoDXN289/OZet1jNomTDjGCmaI2CYe9r48NtSQaXw+jFK/E6JHmukR7bIAxcLr33Dym83fvnc52Sir+4nEZ9fw9bm2SnZy8WX9ghsMSS2YuQe2ewRn/+iY35JIUs1eBmNRiORaOPV5rd2fPdvD64w2fy5Np9srxAmf01Z0Jn8cafkRpi8X8bNkggkzOmhRmSLMBmf+ZgvYi5bvb8aUrl48zcKTT9qTpyNdKMvD/zyRmSwHwR0SAB+qcNGR5W1IdBdfsn7UhPVRN1uZkGmaZ5dJqtPtvjkfFqJhy1gSMszCnNPi5MPCbNPUWySJiazPVO+EWae5EP9aP+8M+KUQ8KskzSDmDto4vrjY9m6PkUUShRmn6LVt2eeEJwBesnWyKE9bxznPkTPc09TaW98b3DQAVTmq4nrj68V5p6mtN6OOvKbaUfFaUcNziBP5Whw1AnTvxWmHSFVZTvp8qYfE187QhFTvkY5z5GeV0aLaw9eKsyg9ccp/FlUR6ssTv1GWFDDgqlBKu31Y8KUb4T5NbGrdQSEGd+xPdXsmMA16/fsp5GIvHZU2UPC3CrCyNbDFGadoqpx02VzYoQ5VeKUr8mGnaGbrg/JmywSjTZHIk3NkeZmylKkKMp3VQ0FEzeJZk/vQlrfUhq6iglxyMAzWcYXhEzSLxOmotNkc1Ym1Z2tRWlwBmlRIpvPZPPlFvhlm/81z+dNTZFIJHZ/3fRrA7+8KSIcAAL6IQC/1E9bo6YaE+gWv1Tl8trKRJmsKIoyPdEvabVxWlybRxlpIcT4rBGmmEG2JzbIL2EPk0sSqbAw5ZBk88sWr2Tzi099xNyR6aArRIsNusJUcmzxGNojFLfsIRsrqRfUY5xBYdIB2eqX7BVyXpk0cp0w9zR9BPlNgMYaxocb0pVwuy1ha4Xzl9wpS9jKNFzy5lVLozZSUTY/jd2c8V1MnR1Bis6WsAVpYpfH9zSQ5rYqLRYdpI9bUCON3kxWZ/VRJPLVA3Rt/GBWWTJy8nJ2ba4wh8kPoDL5MRzvglpDaYNx/Kdyvttk84tm75OztkdphCLpWnMkyp2StyafOnOq5lz5xkNDX93ym/uXmGx+k90v28tpPc9nP+V2HusiT3YIZktXOJfU+IBLFmkOGRbUshUvPSarN9fuF/I9o157tzp4QVHIgDsSvMT4y2u/ktgDAnomAL/Uc+uj7ikRSL9fJsol61Gl0Bc9mpr540pjk6JEX3N/Llt9JEmxtXnOkcDFpIo2YgG82PqB7C1uG232FNXRuuSvfEVyafHJVq9xzLaYYyWURgEwVVYcNy7NETS4Yn3o5Jf5bmnoStb33SAsoIVqBDqXbbQqkCWAbNkTP8ZRR3rHetVjflnI+r6L61sUMOFimBYH2EckFEi1YGrL00zOr5Ye2iib3cwv3eKLewxsnUZ2bTc4l59IoVm+GGOcc1EtW6P8wxa/nPkh08pYnJLfeTXBi3sO1y3Zcvilbn8EIQAAIABJREFU4p1549b3LSy/7b5FksVnspebLB7ZXm58+iNhThWFb5OLXyb2hnOGbPyl2l5stnhYmHlCeuxdk9UrW325dn+vPM+Ql94+dqpBTXipenD7XxjEL9vng3dBQFcE4Je6am5UVksCafZLtRM8qii8y/JGlZld+YVs9ck2CsJJhYvFKd9wQen8c0iY9YNxxNqYclm80pAV1APOBup1ujRXSJh90jjqLdlCAUIeI6SFKBfUGJzU/9u5hytkKKozjvtEMntjpVk8xjEfGOadob7+zpbmDJD7vvClVFBJMk2jCzw09PNN6utP7iFM/1YatFQ2e0xWil+Om7tdUZTw2ctHToTe/vj7Bcv3Pj17++AXN//P46t/PaRStvru7E9e26ewgsY25C2SHlgnTv7aUFRHK4MzeeVTyEkNEx0xYQVI3t8de04IUqqp19URnCzeXEegXCHxpT3y0JX0oTZf74JyId8zcvLWE2dILiMRsuHEf9Xc6Jbj++GX7fPBuyCgKwLwS101NyqrJYG0+SU3S/Y/+tj/6xUlerU5svtQTfGq/S+X7Hze+ckLzk+ed3wyoejjl1yf9Ht6fcwvWT8v9R0PWy2NWCeNWMue13Xgea00nB1fWCmZPTJFtph1mT2SvYIm4oxYJw3veGnsE0eukwYukSweujbulxQW9UqDl8evp5MF3r9Csni5DsY2yICX0zxxqmyHH8PX0ilDV0pWNgwgfm1k5wWVscp2Ch3BWSMV0ABK2eKl6TI2378+sNw+YePdD6/8/Yilvx5SmWv3i/leo5keIjmojyb0WLwUix20hNIeza+JiTILFbd0jqshyXhWS+qXv/GD5JIctCVqy3Q5YCipF+ZWSY+/R33xFo9s85rs5MH3v7zlVM15tUOc7j02Dakj3xz4ZUco4RgQ0AkB+KVOGhrV1J5AGv0ydvHcLs9daFzx3pHC5zf9YmBF7wJavq/NQ7bS6D2T3U9myRRTNrvl/M4/zG46kZdPRfmpl9zsSaYo/ulmDwml1ccvjDYs3uQLVEuLF0h+lkQ11VNYYFW20dQWjpSuLXl0LExr88t2f67dL1t8vfI8hjyPYPYaLdQTbaKHN9fioU+x+qTBS42j3xZf2EMTsIrDfMYVH9UQm+vNp+PwROhcKJ2xOTqtIpfXRDRpnUnWOc4DljSXf8Yx49M75CErTKS2XpON8qj/09DFUxZ9Whu6kCCXfIZ7R7878MuOksJxIKADAvBLHTQyqtg1BNLml0qUuil5Z2Vd6OLYWR/cNbCCBMhM0TvZwoJkFq+JP6xsw+ql4XQsvEf6wjeSe048nbZTKI10rfXpbV529goTT7+28M6Vxq8t4fISC+9cUYx8/HQSOGoUT+xh9piYuJNqFyyWRqw1PvmB8PI+YeYJA8vBRLPs45OQYmHLxM5uZoo8KsnmbMXSDMWGVMYGqsYjmmzKFM3Qp2GpQWHWD+KLe2gO08AlFFhlsVWjxWM0e/uNXbfuw2OJU3nYTcf/RdPR7w/8sqOkcBwI6IAA/FIHjYwqdg2B9PilOuwyEo1evHz1gSlbb+9XlssmdJuSkB6c0i0ErF4aDmv3ywUV1IP/4EZp7IfiK/uFWT8YSuppFlFxmKals7GerDs7GBsrGYtTBtV0lbHxl7HpRCzrE403ZUNOXTSDio8WpR5zfsz8anHG9+ILXxof3iTby00DFposbpZ+yCeavb0Lyu8aWD5m5rbTda37xJOwS6zf0zW/MygVBHooAfhlD204XHb3E0iPX/LOSh68dKzY94tBlZSh0OqV7X7p4U3ihF3iK/vFVw7gkdEEJh0UXzsivHGc8n3SlJ16SmjPckXF5/WTXLZMzeF2mNAhTrrJX8afaeq3Myi+tNf4+HviUx+Kz3wsjvtEHLdTfOYT8amPxCfeM47ebByxhocq5bxFuRZ3b7u/T2G5yebvlUdzif7tweVjZ324/ctT/LukzuZhQctW89w7+GVD/LKDoHAYCOiBAPxSD62MOnYJgfT4JV/ZRVGUk9VnC1/YJOR7cu0+ylwz/lNhQQ0N1Cupp1yPeGQ+AVc4lt2pqI7yvTsCYnxkZCw5ZetoJe8cV1Op85Ak7xmnCeCukDCnSnpgvZy3SDa7aSQlf1hoI9fszrW4c62e3nZf7wJ/bkG5TFrp+cf/XZhr8/d7ev2k0p3vfn7y7PkrfOhFJCFg2blO8YTvFvwyAQY2QUDvBOCXer8DUP+kCaTNL/nSzxs//v6fhy8x0qQQj/ToVgpfOdiyNI460hQ8egqBeACSByx5sqH4LG/q746FKuPTw1W/5F3kfKYOJUUvqRcnfy0VLqGpQvZyPiGJntnkJNHiE/K9Qr7XkO8RLV7R7P3loMo/P75m9PT3PBsOflfVoCgsQsly8nOhTHxO7ksBv0yOG84CgawkAL/MymZFpdJBIG1+ebWJFlBxrth35wA3BaIsHvGlfTRdI565pp30NHgrMwlwa+SLNPKpOTHFvFYr+Z6EaT283Sl15VPbKX+73d+7oPy3w5f8/oFlvx+59P99YNm/P7j87tEr//zEGvuEjaOmvvNc0Y7ZlV+u3XbswLFAhC3GwxOnNzfTyo/qbPHUvzPwy9QZogQQyBoC8MusaUpUJN0E0uiXzYqivO7d9X/+XNpnYKVs9YpTDvEpHYkxrdjoPRYew3bGEoiFLbkvxq2xTVd4S8wyQTdjfejOII3gLGkQ3jwh3b+SpqLbyv911HL/xkObPznx1o7vNn9y/N3PT+7YW7X7UM3RH+qrgxfOXqBOcP4XiUSvNjVzs4xltowrZvyQ5P8Lv0yeHc4EgawjAL/MuiZFhdJFIM1+Od2j+qWP/JJPAYk/d0RQrmst2NkjCPBp4zzSSYMvSxqMz31myi/rU1huyPc8OevDS1ea2rnxIxFaR1QNWCbGLJMebXntx8Evr2WCPSCgWwLwS902PSqeKoE0++Ub/t1//5eFFL+0eGnlQGaW6ri9HiFJuMgkCfAhmzyzuiNAyYzmVkkj15vyyvoOrLi9n3v99u/4NJ3m5khzhDwythGJRiJR6gW/5o8rZqrfgdbnwy9b88ArENA1AfilrpsflU+FQBr9ksZfzq788tZ7y/oUMr+cdDDWPx63zCTFJaH7FSVkLIG2M8eLw+LL+2i5cLvfaPENeGbDmUDiojvMJWk5Ubq7E8WyK5wy8RsEv0ykgW0Q0DkB+KXObwBUP3kCafbLouX77ujv6V1YQfN7Xt5viA/di804hilmLwHeOU5DIBwBcs0FNcbH35Xzy/oOrvz/8w0tf+cIv4kTVVLd7mqnTPz+wC8TaWAbBHROAH6p8xsA1U+eQJr9snTNfpb8slw2e8SX9lJu7XZy2WSvbGVslLGLLiwml3ygrSNgKA4L047KQ5b3tvlEi+9Pj68+fuasunyohoMpk/hiwC+TgIZTQCBbCcAvs7VlUa8uJ5Bmvyx/+1DvAr+JVob0iM/vRvyyi3wu04pVM2LStB62gKTxmY9ls7tPYYXR4n3Tv/tKI6UXUDMNdfl9f+MPgF/emA3eAQHdEYBf6q7JUWGtCKTNL3l+9VXvHf3V4ErZ5jeZPcZnP+NTiUmGeBQTAcusJJAwCkJw1BlKwsKcKnnw8lyrV7L5/jh65Ud7qih4Ge8O1+reTq4c+GVy3HAWCGQlAfhlVjYrKpUOAmn2y7c/Of674cto/R6Lx/jUR5Rk2xkUXNRLjiGYmRZ01OZ6qH1DvHHZauMBgytsnLjblLeoz8DKOwe4x7z5QfjsZdUv03HTt/sZ8Mt28eBNENAXAfilvtobtdWQQJr98qM9Vf/24ArR7CW/fGIbrV7NIpeQS21kLjPDn0wx6Z8QfOTlrB+kwctyrd7cgvK+heV8Zk8kFr2MdZFreId3tij4ZWeJ4XgQyGIC8MssblxUrWsJpM0vm5spP9Geb2r/+5FVvfI8uVav8ZEtwoI6tYscipmFisnC0ryJ2cjLgOAKGifukil4WXHrfYuGv7qlLnyJz+zhS/B07e3egdLhlx2AhENAQC8E4Jd6aWnUU3MC6fPLCGUy/O5Uw4CnN9wxgPxSGrVBWFDD+kyDN1m3OjPDcriqjhBoCV4GaTrX7FPyiLUmq1ey+nLt5SvePaooCl+bng2/1PwG73SB8MtOI8MJIJC9BOCX2du2qFkXE0iPX6qpZ2rDl4a8tKXXAE+uzScNXSXMPcOHYMIvszB4ybMR8QV7aM54wOAMxXKqF/h75XmGv7qlJkQ51SPs3x7dm5ZI/Z7BL1UU2AABEIBf4h4AgSQJpMcvo1Fa4k9RlHMXGh+fsU00e3PtPnnQMmHmSeoWj4e4MIs8qywzoWXZvyICBkdQGrnOZPEarb5fDKrwbDioKEpTcyQa7f5hl+r3B36posAGCIAA/BL3AAgkSSA9fqnODr7c2PSC8+Ncu99k88n2cmH6twYe31KfO9LlimN6AgF12jiNv6QFx+vFF/fIZo/J5hfMnoKJG7/9oV5RFNLL+F+SN7Gmp8EvNcWJwkCgZxOAX/bs9sPVdyOBtPklD2FGo9E3K77oXVAuW32yxSu+eoC0g80iF5AFsydYY4cirPGANG9TmtnjCglzTstDlpmsHqPVd9fAipI1+5lcxueNd+N3oPVHwy9b88ArENA1AfilrpsflU+FQDr9kk8h92z4+heDKowWHy0ROX6nobRBcNAscgzB7JC69QQHjWllvE15WiLjMztMFk+u3X9bv7K/jFnLcl7SqIlMWLMn8RsEv0ykgW0Q0DkB+KXObwBUP3kC6fRLvoTP5k+O/2HkMsniy7V4jI++I5Q0CEXwy1DWyGViQlPBGeT5AYQ3T0hDVpgsXsnivWtg+eIth9m08diakBkys4d/i+CXyf+a4EwQyDoC8Musa1JUKF0E0umXsRSYR2r/d8xa8kurRxq2OrYEebxHNXs0qycEGruINluTidb8pGGXjjpDcdj49A6T1W+yegWzd8SkrVeuNEfiGdVZ2st03e4d+Bz4ZQcg4RAQ0AsB+KVeWhr11JxAOv2STyGvqjtf+PwmmkJu88r2CmFOVeJEEEwh7yLnS1Ox8YTqfLSDoajOUFwvvHFcGrTUZPbINv9v7l+yccf3NPKS5dvPqMgl/3LBLzX/kUGBINBzCcAve27b4cq7mUA6/TIajVLYKhJ94o1tvQa4TTa/yeoRJx0wlNTTQpHxVarTZEKdjC+qI0TVBYdEV5A9aHFt9d3MvPg0XVU8CN0yrYfN7JEe2WIyu2WbT7b5HpvxfsP5RjV22c13//U+Hn55PSrYBwI6JQC/1GnDo9qpE0ibXyoK5TjkQzDnLt5D+YmsPpPZbXzqI6G4ng/BVEUtTT7UYcVU9ZFv0OWRU/JBkzQzicuxev0th3X4IzKtyp2+nkS55HyK6gyuMOUkspWbLN7cAv+vh1Tu2FvF74RMm9ajfpXglyoKbIAACMAvcQ+AQJIE0uaX3Ce4X77z2cl/HrpEtHgp1fbIdTQEMzFFEZt33Gm/6TKTU+WSJJIFWSVXUC4OmUpCcjE9pHggU7XMDI/FdgXbWMyStwJrUIMrLMw8KQ1fI1s8uYXlt/crm+7dpcolT3mZ5F3blafBL7uSLsoGgR5GAH7ZwxoMl5s5BNLsl5FIRFGU03Xn7x69slceWyVy4GJhdlVi5I9MJcMeqmIaXUHJFbx1QeAf5gVuXRD4+XzauG1BwMgUUz1Mz/FLPq3H4KgzuELG8Ttlq9dk80k23/88vibUcCnRLzPnW5B4JfDLRBrYBgGdE4Bf6vwGQPWTJ5A2v1TFopkp5vBJWw15HtnmlW1+cfLXFOvKvBCm6os8Hml0Be8oIqH8y5LwU++ce3X7+Vc+PP/ElrP/WRH++fyAga4/oJqlupFprtwV15M4Q0twBmhaT0mDMP2oPHgZz3n5q8GVq7d9y+4BGiaRgdN61K8Q/FJFgQ0QAAH4Je4BEEiSQNr8UrWKq02U9XDu4i9z7X6j1StbveK4T4Ri8stEn+sKDUqizBZNdAZ/Pj/QtyRYvv/S0WBTw+XmC1eaLzZGQpeavwlcnb/rglxM9snGZbbM+0niE3veKXydcZ5N3RUy0FKQYWFetfHBjXJ+WZ+BFUar98mZH9Sfu6z+G0NRaDH6zPyDX2Zmu+CqQKBbCMAvuwU7PjQbCKTNL7lb8CUBFUX5eN/p3wxdIpq9JovHOHozBS8pyzrzs4yZSK76ruAM3lkUuLsivP1EI3Mj6uWP/0VpTzS68tDlviWkmOpZPc8Ukx2WwIc00CAHR8DgDBqcIXHcTjlvUW5Bucnu/839iz/df6ZFLjM6fKnAL+M3Nv4LAiCgwC9xE4BAkgTS6ZcthqEoteGLA57ZYGR+KQ1dKcz6gaZjsxBmq5kiyRqPJm6nmqLgDPyiNLT52ytsEnz04pWrH+877Vl/4J3PTly60tQcibJxpdHKA5dMxWSi6omaXEbmFpI4Z5zLJbVgSJxyiBJeWrx9CiuMZu+itQf43Zmxc8YTvzzwy0Qa2AYBnROAX+r8BkD1kyeQTr/kXeQ8C+aVxqZx8z4y2fyyxSsVVIiTDhpKzwpFtZllZiyxpak49H/PqRu79dzFxoiiRC9evjqr4ovfDluSa/NPXvjplcamSCTC83pevBp5aNPZ2xcEDA7dLKfOFZMnJGLZLoX51cZRb5ksnj4DK2/v537k9ffrz11RFCXCFurJ5JGX/FsEv0z+1wRngkDWEYBfZl2TokLpIpBOv1Tjl3whH+9bX/ctLJetPpllwTSUXRCKauPjFylpebfH7fg1yMXBv5tdt+047xlXVrx35I7+ZSabT8j3TCrdefVqM+vvjTbRvKXomm8uG12xdOs8+3q316KLLoDg8NV62HgG1jMeojnjz3xsynfnFpSLZs+fn1iz++sakkuyy9i/L9J1ayf5OfDLJMHhNBDIRgLwy2xsVdQpLQTS7JeqYiqKsvtQzb89uEK2+01mtzRyLQ9e0uwQPlOE6UsXuVEHixWcQaMrdHtR8J/KQicamhRFuXjp6j1Prrmzf1nvAr+Q5/7TY6vXfHDsyMnw7kM1DSxK9+WZq79x8xV9Mi7LUgdr3aHD1DZSI5fOIGVTf2kvpVK3+2Wbr09hedm6ntQzzr9w8Mu0/PDgQ0CgZxCAX/aMdsJVZiCBNPslC2FRIEuJKucuNBY+v8lo8ZmsXtnuF1/Zbyg9a6BZPrHO5W5PhCk4g1Jx6OfzA/9VGa45T9PeTwfO/2JQhdHiNVlp/SEx3/OrwRW/H7m04PlNR06GFUX5uu7qv/rCLLYXytr4JesTb2mmWDb1kPD6MRp2afX2KSy/7b6yJ97c1nChMRa8jEUvM/Ab0PaS4JdtieA1COiYAPxSx42PqqdGIM1+yS6WctPwcXiOFXvFfI/J7jflLZJGbzYU1xsczC/5it7dHcLkfnnbgsAffKGqcxS/PHv+yr+OWi7keXrb/dSzb/XdNbDckOcZ/NLbP9ScUxRlX03j7zxq5373d/F3KBjZqUlUbeb0OIMGmjMeEuZVSw9t5NkuhTxP/vgNx07VK4rCV2zK/GGX6tcIfqmiwAYIgAD8EvcACCRJIP1+qQ7EUxTl8InwLwdWmAoqTPll0uBlwswTBkqE2TqE2X0DMXmIzugK3rYg8PlpGn8ZjUZf9+76+T2LTDbfXQMrfjGwQrb6/vGehbMrv7jc2BSNRrccu5JbrI6/zLou8mvkMpaQyBGUnvyA9YyTc//hgWWbPzmuKArPdcrHXSZ5g6b9NPhl2pHjA0EgcwnALzO3bXBlGU4g/X6ZOASzORIdM/ND0eyjieRWvzhxt8EVbukiZ2P7tI/AdSJcFxSctM74/zW7buqO880RSnVZG74wZuYHt/cr+7s/lfzdn0ru6F82bu72M4HzTezdidvO3VlEOSCzcgnyltRRfGaPI0BZ8V0h8ZkdJovHZPPJVn+fgnLXqq+uNDZR3iY+HiLDvwOtLw9+2ZoHXoGArgnAL3Xd/Kh8KgS6yy/VLvKP950x2fy9C8pNFo/08NvC3NMGNp6PDWEMqgsPdotl8vil6Az2cgR/5wl9WX1VUaLNUSXYcMm74eAzc7c/O/+jxZu/OX/pKmuCyI4fGn+5KHRH4hSlTrhsxgc7+YRxPqGH/DIgFNEi4+LLX8k2GkSbay8Xzd5n5m6/dKWJx3oZlsxdque6Xxz45XWxYCcI6JMA/FKf7Y5aa0CgW/wyMYQZPnu5cOIm0eLNtfnkgUuEyYeEknqhqC4TliNXp7DwlccHrWk4UEuKyTI5KpcamxubaSEfyr0TiXxa1Xh3RfjWBQnz37NGLtVu8XhclsKWfJHxqd/wOT202qfZO2rqO4H6i2yVptgo2x408pJ/neCXGvysoAgQyBYC8MtsaUnUI+0EusUvea8pN4+mpkjpmv2y3d+7sMKU7zaO3U7LDKohzO5eK5IrJoVUnYFeRYH/XhxecehSY1NEUSjbJV8r8vLViGffpf8oD99Ocsm6jOMe1i1hV80/VO0Wj204g4aiOkNpgzDlG3nwMj6nx2jxDnhm/aHvQ4lzenqcXNLFN9FELrfb/bOf/SwnJ8ftdrMp8PQPCf7Wjh07evXqlZOTM2HCBL4nGuULOCknT568++67c3JyBgwYUFdXp56Y9q81PhAEQEAbAvBLbTiiFB0S6Ba/bIlfskjgl4dr/+OhlSZ7ea7VKw9aKrx+jNylqE6Md8jG+qm7LhzIP4h7bXvPgZ/PDxidwcI1DXM/v7ji4OWlBy7N+OSCeWWD4KA5QKKTgpdq1FNzz+u2AhPil1TBojpDcUh443t5yApTfpmJsl36fz9y6fu7fqDIJYvp9kSz5F9/+KUOfwZRZRC4EQH45Y3IYD8I3IRAN/qlOgTzwuWr4+d9dHu/sj6DKk0DFhnHfsjihcFWXeRdIJeqCNIoz8TyW+dFUg8TXUHWUR78+3mB2xYEjK6g6AreOj/w9/MCdzpaFrPJnpk9CVrJK0WzxR0BmuM/84T0wHoeuZRtvn8etmTdh8fUBuVy2UMVE355k58MvA0CeiIAv9RTa6OumhLoLr9UQ5jcQj744pTR7O1TWJFr9UkDlwjTjhqK62mQXzyEyWOZmgXwWpsTyRP3S26W6jOfy5LQR89X9KG+ckfwDkfwTgdN/WHeydbsYYUk+GjGT9lJtOo22yqiOBnBwVJdltQLM09KI0kuaVqPzf/rwZXrtpNcqm2qiqamt2qaCoNfpgk0PgYEegIB+GVPaCVcY0YS6F6/jE2OUZTLjU0vFX9ye7+yvoMqTfllFMIsquMTycks+QrXbQQouZeqNvENZpZkhDzVjjNocIYMtNQhPasB1NiQ0PiVXLMwT0vCyyyUSz5ggPGhyOWbJ6Rhq3m3uMnm71NY4V53kN/aatiyh0YueS3glxn5Q4WLAoHuIQC/7B7u+NQsINCNfqmGu5ojNHli75G63w5fItn8NJF80FJh2hGDK0QhTEdA5IMaW3dbdyKWqXqhOrYyHpPjJdOi544AOWVxWJhTJbz+LT2zlWna+CJ/yXyXLzJOCTJj+psdIy/b+HdcLsm5S8LCjO+kketMZk/vgnK+dtG8JXsuN9KEGOaU9NTD0hFd8x2GX16DBDtAQL8E4Jf6bXvUPEUC3euXqmIqinLh0tWXij8xWqiXnHJhPvYOGd61ksdkMQm5pBhkQsgzFpLkAwpdIUNJPa0b9Mp+6cGNUuESafRmYdZJWvbQGeD6qH4iP1F0tTLLNseoB/ewDc5WBdVKLuuF6cfk4WtMFm/vgnLJQssXLVyz/ypNpY9lbOrRYUv1ewS/VFFgAwRAAH6JewAEkiSQIX4ZocVvlE++Ov2nx1aLZm9ugV82l4mTDxqKwxRcjI/CjIUPO6KYiXG4NsLkClFveFEdTVVxhSlmWVQrTP/W+MgWOb9MNntybT7K5jhhl1BcT0d2/zJCaRnHqRJryaBOIwRonIArJEw5JA9cYjK7WeTS33dghXPlvkiEVujhbcflkmcGTfJezIzT4JeZ0Q64ChDICALwy4xoBlxETyTQ7X6ZGMK82tQ8pexzweztXciW8xm8TJh1gnrJ+fhIVYDU+TfXbMRMtE0/OB++yXNqFtUJC2pJm4rrDS7qDRcnf2184n3Z5pf6L8wtKO9dUHH7vQtvs1QIr+4XaDH0lvhlzG4TgqA9LDx5oytPHD/AaTOABgctz2NwBcWX9pFcWqhdJKvvN0OXFK/af+kKrbfO1sxE/BL5L3vijx+uGQRuTgB+eXNGOAIErkug2/1SXaKa5008fvqsefyGO/qX9Sksl81u4xPv88GRXBxpuCSfkdPuc4v2xUVTdNTRhCFHQCgOGxaeI2ed8Z347KfGB9+S7BVynttk9fUdWGHI9/w/fy69b+zaZ7wH+jhraW543L24XGahYiZYO4/U0gAAB0ty6QoLC2qNT30k28tNVm/vggoh3/PvD61Y88G3TbHIZbZ1jqtJ1JFf/bo/F9gJAnojAL/UW4ujvpoR6Ha/5DXhvatXm5oVRdmw/btfD1ksWWg9a9leLr56gAKNRbW0aCQlXafpPu09+Exweq5jD9bDW8z6wZ1BYfYp8dX94hPvS4OXSfluOd+day/vXUALZ99236LfDFvyfMmnR38In29SRr997tb5AVMxjQHlE8azWS4TwpYU3KUM6mFh9inp8XflvDKSy8JyQ573jw+v3LzzOF+WpnW3eE+f1dPyhUL/eAsLbIGA7gnAL3V/CwBAsgQywS/VEGYkQv2MjY3NL7g+kW1+k81vsnrkoauEmScNJWdpzRjSIDapnLkmN85Wz2ywpsBGVRpK6kmSHAGaDD7tiPjCl9KYbdLwNZLVK/VfKOe7exdW9Cms6JXnub2/+98eWvnMvB0f7DndxEaCKtHIZ1WNv/eGb50fkFxBg6NlVZ4ssUw+hjU+sLVlCjyb8CS4wuK0I9KoDSazW7b5eheUC/me+55e9/6PZ962AAAgAElEQVRutkJPhAZeZtm0HvULBL9UUWADBEAAfol7AASSJJAJfskvnYcwea6i/d8G+j+9XrL6TDYf5fF+YL046Wvx9WPCrJPC/GqDI0jzfkrqDSUNhtKz9ChpoEdxmCajzK8WZp4QXzssvvCl8emPjI9ulUauk4Ysk+zU4S7nl5msvj6FFb0Lym+7b9E/3rPoT0+snbN036cHaxrOX2GRuWhjUzO7jKh37yXBEbjTQUv1JPaP93jFVPvEExLLC04WtmQ5oYzP7VIXFu9bSLPFn3jzg/3fBhIHy8Yn9GRP5JLfh/DLJH9KcBoIZCMB+GU2tirqlBYCGeKXqqzQlBG2gPX/196dR0dR5f0fz5zR+XecM/o4OgMJSbqTIAqis6A8R5zfI45D9oQkIBj3bVx+g87gqKM/fRzRRwVBdtLd6SyAoMiqIiBRQEVEAQGDCausCUkI2dNL/c6t213pNDoPRLq6quvdJyd0eql77+ubDp9zq+rWOx/WXDWm3JYbiJj2PLe9oNxetMA+bpH9trftdy6z3/ee/cE19ofWia8H19jvf89+9wp78dviBUXz7fniTBR7rislxym+cp2palpNyXcnZjsv+9PchCxn4dPvL/lo/6ETLV3qIjvy2tle9chCr88nI+akja39pql72NVDOWNgHaLAOk3BiClXAA3sE599KmnqMduDa1LzS1PyxHn0KfnuhEzns3M+bTotwrc206zVS5dfUl0bIV/qyk1jCBhbgHxp7PrQOwMLGCRfBrKLCqWFmFfLv0gb7U4RudCdkusUs4/qBKRYRSirRHwP+9IeFK90puS6UkTELE3OcQ3IciZkOe15pdfd9ea4Zz94pfKrT74+3tjSJSujngctdvr6xErvavs+n0fEXH9ju+++Vc39p9UnzxDLJJlyFjN4ilIgSspznuQiRHJhebm2/Bt1yf/cbr/trdQccbZT6uiylHz3f969qHTl7s4ucVysGrx7dosb+Jf6R3WNfPmj+HgzArElQL6MrXoyGh0FjJMvw6fH/Epbh+fx1zck57jEgZj5brGEUF6pGhldtlyX/Ywv9cFSW44rKcuZkOnon17ym1Elidmuq8cvyH3i3WfmbX7no33baurrmtrV7CiUfV6v2Beu3rRc6/erWUpGTL9/z0nPyPmNl70evIyQuspPaNDsOV39hxYAiuLjwXlKed696Kr2iFxbXlyYpylp8ne2v6xNGV2emuMUk5f57qQcV/Gzqz/dcVS9uFJg5jKGpy21zxz5UqPgDgIIkC/5HUCgjwKGypfhEVNR9h85lfP4CjVilqbli7nMlDyRIBMyHP0zShIyHOIrU/2eURKfUTIgy2kfXfa7Oxbe/Oiyuyatn7po+/uff3e0oa2j0xPIlDJFilXBAzctVkpBLULJxcM96ozmtuPdv3U2/DoYMU0TLuXhlTJQaqumB2cuxZXW5WnjT2+zF1Wk5qrJUsxcuu25pU/O2NjQ3KFVRFz4UV08XX7v42+bGd5GvjRDlegjAjoJkC91gqaZ2BMwWr6UwqFRZsvu47c8/E5yjrgsYYpYpbLi6bmbq748vPTjvWXvf+t4d4/z3T3lq7995+N9VVsPf7br+LZ9jSdOiYMFQ27iKjPqPGUgXcrsGPICcVcLmr3vBHaUr93XeV1pY7+p9bbgmpphu8sNNIupzVBqu8LVHClWtRRzlnXiqpszG8RiT5Nq7A+sFskyz5U22p2c67Tnuv78yDtLPqzRzhAPaoh/w8Ri8kfyZUyWlUEh0DcB8mXf3HgXAoph86WMNTLSbP+2LvOxZck5zisK3fZc17C73ixZ+U23XEiop4Z+RRFf4qaeneP1+jzB3d/BrfVKSNqDoXE27L6aREXE9Pv9q2o6rytt+NWU8B3lBprODD3UUtspLxchUpOlOEl8dlPizIbkF2tsj1SlFFam5jgHFpSljnYPyHT8rnjBP2d9sntfgzza0hcyYWmRcMn66j2fJ+4hgICikC/5LUCgjwLGzJdyNlF+V8+5Ub7aU3fzw+/YckrFdX1yXf3TnU/M+ux4Y7uiKN3d3q5urxol5cGUfhEGe980ndCHtVa0Z0PvaEFTntciTyevOtB1rUMsimmbKdZ4l8nSECeVh6xnKfqj7Q0PXhUzcUZ94ix1h/jkw7a/fZpSNF9dW96dNlqsbZmc48p+bLlcO13N5zJbBvaJh7LE/H3mL2O+xAwQgbMXIF+evRWvRKCXgGHzpRb+ZNxRFGXT9iMZE8SimFcUlg0qLIvPcNz38vpttQ3ylGaPvGShmh97jVD9QYuV2mbPfE3oI1q4VF8vTvfx+fwyYn56uOuWBU39pqkRU10XU91RLi6SrvdEZth+cPVHdQl60ZOkGScT1SvxiH3iMxsTZ9Qnvbw/+YktKbe9lZo5NzVfHGlgy3XZcktvfmjJ8yWfHTjarM7e9aydHkQIhYn9++TL2K8xI0TgrAXIl2dNxQsR6C1g5HypZUE1YooY+XXtyTue+yA5xzWo0H1lUdmATMfIh5c6V1W3tHsURenq8qgrowfCpBzouSZLjSeYruQ+dxkx1WMx/f7tx7vHvHPq4sn1yTNFylQvINkgj7/UZjQjezhm8JQdmSPFbKX8klfOnH4yeXq9uKLm9PrEOWLZ+aSXam0TNtqLl6TkulJznQOLyq8oLLv8lnnX3lb59OxPvth9Qg7Wo168yDqn8mi1Dr1DvgzV4D4CFhcgX1r8F4Dh913AyPkyJOGJHbXyjJNDx5sfeWV9YpYzNV9EzMQsx8DCsgf+p2rbXnHUoOL3ezxeebhkWLIM3dpZegWPP5QzpGJ7vuC6mMdavP+savn11LrE6eIa5YGcJ8+n0Q6C1GLfebyjbTw4XZrcM4cqTt8RV8ucXicmL+c0i2T5Yo3t4fX2W99MlcmysCytsGxAliMlr/TeF9eu/+JQa0e3WFhezM72DFNL9mcJFUsvI1/GUjUZCwI/UoB8+SMBebt1BYycL7WUo0VDucZQQ3PHK+VfXHfnm7Zc15VFZSl5rstvmXfDA0umLd5RfbDJL87yUbq65Vxm8FBMtcIycWqbPZuqyxOMZAfkG31+X7e69LrX55+6uW1oScPl6jXKk9QF2LULeZ//+cvQveHB6zoGcu10sStcTZb14iKZMxuSXvsu+Zkdtr+sSSlakJo5T5zEU1gmDrXMcQ0ZW3H7/1v95gd7mtTrYarhMqDkEWdEiQsXaeBnQxRjryFfxlhBGQ4CP0aAfPlj9HivpQUMni+12gQTXuDqkd0e74dbDt369HuJWc4rCsquLHLHZ5Qk55amP7b8X+4vdh5oVN/o7+72iHUv5Rk6MioG1yHSZjf/1yylvUDekctmdqtnlHd5fOv3d9669NTlU+uTpp8M3VeuzWj28eyf0DQpTwCXk6PB/eDBZKmuNzS9Lmlmg9gV/kZd0vO7kx+tst++NKWgPDW7JDXHmVZYNrCoPD7TkTra/ehrVcs+qj18okXChtiIUK7d+hDEtfea/Q750uwVpP8InEcB8uV5xGRT1hIwUb7UQo/ck6v4leaWzmkLv7LlliZlOwepE5lJ2eK6PlePq3xkyoZdh8QJK+pSO2JOLixlhpY5NGtq98OmOUNTpnyN3Kbi9zd3eF//vC1hev2v1fPKww7BDD3pJ+wpMcfZO0eKFwTTZOApNVCGHmEpkuX0enGE5XRxyUoRK+c0J716KHnCRvv4RSniWpriquupea7UAndqgVh4yJbrmjDlo2176lraei6JqR5vEBiuoijHTrZNrtw6cdqGxWu/7fKoF4QMSeShXLF9n3wZ2/VldAickwD58py4eDECPQJmyZdq2gusbymTnxb4Pv7y8J3Prx4ytsKeF7jGT2KmIz7Dcc1tC+55ef2Sj/cfON7Srl5BWx22vHKP+C6Pp5Tb6REJ3tOCZtid4PPykFCRXBVFrIi0Zl9n1qJTidNPxr8RuFK5nGLU5i+1GU3tjlzhSPwYcoBmz4UcgxfaUUNnzzYTZ55MmqWerj6tTpwS/uRW+33vp4yZn5LrTM1xpInL8LhT8ty2PLEi/Y33v/WP6Rs3bjvc1iFOgZI3uTs8lPF4Q9s/Zmyc+87XKzfuf8GxuXTFrm41YsqxB99niX/Jl5YoM4NE4OwEyJdn58SrEDhDwET5UptQ1AJfYJFGRWlobl+xYd89L6wRKTPXlZJfmprvTsp2Dch0XlFYftPDSydM3Vi5pmbXgabObq8WKNXTdfx+sfZQ4KZtWXvNGWDigeBBmepJ5X41YoqH/MdavO4d7bcsEAtk9ptWL5YEEju1G9RTcBrUO+JEby1B9sTKkDlLdf5SnZucHljIPVENoOqBlY2J0+uSXj2Y/OzO5AkbbHetSBmzQFycPceZqo46Jd9tyyu155UOHVd5x3OrHct27trb0O3xyVGEji54X4ym2+Ob9fb2l91bHMt2Tl+0bcr8L19yb/ns62Pi0ExxpKm1VsEkX37v7zwPImBNAfKlNevOqM+DgLnypRywNnMZFn1a27s3bT96z7/WDhLnsrjteaX2XLG7XL1kuTMpxzX41sr8J9+b+tbXm6vrm1o6O7s8wYQqr/0jtxeMm+oZ64EzX4JxLOzfwBsCk6HiEt0+n7+x3Tvvy7ZhpY39ptXHv1GfMF0uYHTSFlzzPHQPeGCRdnWXt8iRah4VB1OqFwcX61bOakiaeTJpytGkF6qTH99ku2u5vbBS7AHPdaXlu1LzXPbcUltuqYyVgwrL//jAW/9ybq7e39De0R2akmXPgx0WkNojbR3dj7y6fllV7XPzPr3j+Q/mv1/9xptfrdiwVyyHSb50OOQhFtqlfTZs2DBgwIC4uLiJEyfKMConwhVFOXjw4IgRI+Li4jIzM+vq6rQ3nocPKptAAIFoCJAvo6FOmzEhYMZ8qcGHBU1/8IqRW785/tSMTel/XXbN+IrUvNLELHF9moGj3QPVqyBefsvchCzXDQ8ueXTqRsfKbz7efnTnvobvTrQ2t3Z1i6sABWb7tFYUvyIjp7zgpMcr1j8KfldPuPb6vF5x4pH6AjEVqii+46c9kz9tuamiIW1Wff+pdZe9Xhc/TSxmpB40qR43OUPdxy0SpPolM+X0+qRpJ5JeP5r02ndJk2qTn/1aZMp7VtrVy+2kZpek5ToHFrjTCkR6HpDlTM4WO8F/V7wgfcKyv06uWlpV23i6Q/ZcC5dajgy9E8yX4l+vz7/wgz1PvLFxyfqaz3cde+KNDS+UfLZtj4hHzF86yJc9nwTuIWA5AfKl5UrOgM+XgKnzZRBBBCd53+8PnGCuKMq+I6eWrK95Zs6nWROWXzu+MjHLGZ9eYs8rvbKw/MrCMnuuKyHDEZ9eklpQdv09i/L+8d7Dr1W9VP5lybJdyzce+HT3iW+/azrW2N7U0tXe6fH2Ors62OxZ/NvUpazc2/3kR22jFp++ytGcJM7FOZU4q0nMSs44KZZAn3Ik6ZWDSZNqkp/blfzUl8mPf2J7aJ397pX28YtTCsrFaTo5joF5zoGjxVWL0grKbHml8RmOfqNKBhWW3XDv4jue/+Bl95Z3N+3ff7RZ9jH0oFItUMrJyjP7q72gpa3r1Yqts9/e8faHNS+5trz9YY2aLOXzfR38me2Z4RH2j5uhSvQRAZ0EyJc6QdNM7AnEQL7UZjG1lOnzB1YLV3dQ+o/Wt67csO+Z2Z/k/G35tePnJ6Q74jMdSTliv/nAAvcVBWUDR7ttuS71rKCShAyHfXTZkHHz//Pet3KffP+eF9f9fcamVxbucL3/7bKP93249fDm6rodexu+OXiq9kjzwWOnD59oOXay9Xhje11Te92pDvl1orH9SH3rwROnDx0/vf9o8+6Dp1Zub3hw8XdXTqpO/Od22xNbkh/blPzQh7b73rPfucx+6yKxyzvfnZLjSMlxiHN08lxXjHar85RlKfnu5ByXCMcZjoQMx9Bxlen/d+mjr1a5lu/cUVPfFrIT3KtexFJD0LKj9kjYb2/gBYEM6W/r6P7oy8OL1n67a19DcEEn8Zyc6Qx7bwz/SL6M4eIyNATOVYB8ea5ivB6BgEAM5Es5Ei0JBfOSesVwdbe1VuwTDW2r1POj735hTeaEZcPuXDh4THnaaLGjOTHLmSIuCFQ+ZGzF4LEVgwrLUvJK40fN+9XI2Rf/n1kX/9fsS0bOuXTknH4ZjoFjKq+5Y9H19y+56eGloyYsz/nbisIn3x377Ae3Pb+2+L8DX+Oe/aDwyfdy/75i1F+X3fjQ0mH3Lhl+71vD71wwKM9pz5ybkjknJXNuSsac1My5aTklA/NdgwrLBhWVDxpTkVZQbstzJ+W44jMciVnOgQVlQ8ZWDL/rzZzHl9/7r7X/7di8rKpWXihcG7VYEd0rTmAPu51NLgy9FGRoDJWbCu5DZ/5SUY95UGT05PhL7QPFHQRiXoB8GfMlZoCREoiZfKkBBU/uFnlJ5iSfz9/t8WqnUSuK0tzaVX2gYc3mg87lO18q/fyRV9bn/33lHx94e/DYiv6jSn5185z+o0qSc1xpo8uuGltxzbjKa8dXXjOucui4yiFjywcVuNPyXPYcZ1KWIyHT0T+9pH/6vH7pJf1GlfQbNU9+9U+fpz4uZkMTMx22bKctx2XPE/n1qrGVV46pvHJs5aCxlWmF5bZ894BsV//0kl/dPPeyP82155YOu33hnx5+57Zn35/4xobJlVsr3/2maut3Nd81nW4NLF0pT7vpDr0MZs+5OqEpUSP5wTuqT+D0cL/f7/H6uj0+deX4nrD6g2+O0SeYv4zRwjIsBPoiQL7sixrvQUBRlNjLl7Ks2n7d0Kk4n09EKHlOdOBlir/L4z3V0rnvyKmt1SfWfn5o4QfVr1V88dfJVUVPvffHB966qqj8N38u+Y+bZv/HTXMuvXnu5bfM+82fRZqMT3ckZDgHZDoTsxxJ2c7EbHF+elK2MznbmaR+JWaLOdHETGdCpjM+XcTQ34yad/kt8y4dOeeSm+Zc8l+zL/vT3LR89/C7xdzk/ZPWPjvnk5KlO1Zs2Ldx25GdtSeP1re2dohrXPb8lvrF2dweT2Cd+OAwQ8fX89qzvxc67xt817mF1OC7YuRf8mWMFJJhIHA+BMiX50ORbVhSIFbzpVbMsPwk45g8QFOc8R085Vx7vbzT2t59uK7lm/0Nm3ceW/3pgcVrvy1dsWv229tfn//ly6Vbni/57KmZmya+seGxKR898ur6v7z84QOT1t0/aa34enHd/S+ue3DSur+8/OEjr1ZNmPzRxGkbnpq56bl5n71UumVK5ZczF29zLt+1cHX1u5v2bdp2dEdN/f4jzY2nO9Sr6YT1Qswsen3itHRxbGXPlGLPvfA39OnnUCJ102eza71PLZnhTeRLM1SJPiKgkwD5Uidomok9gZjPl6ElC5vU1GKazyfOB5JTmx5193Dou8Lue32+rm5ve6entb37dFvXqZauptOdjc0djc0dDcGvxuaOptOdp1q7Trd2tbZ3t3d6urq/b+Wj3puWyxupx1OKScqQQBnY/631v/f7+Ol8CpAvz6cm20LA5ALkS5MXkO5HT8BS+VJjDpuxC52vk6HTp66U7vUFVrXUzqfWttDnO2Ild7lxdb1M9SLm4lQk7aZtWXtE6632FHciJ0C+jJwtW0bAdALkS9OVjA4bRcCa+TJMXwtw8o58NvTB0KgXdl8k0R/+CnvxmT+GRVvtlG2t9bCu8mOkBciXkRZm+wiYSIB8aaJi0VVjCZAvjVUPehNtAfJltCtA+wgYSIB8aaBi0BVzCZAvzVUvehtpAfJlpIXZPgImEiBfmqhYdNVYAuRLY9WD3kRbgHwZ7QrQPgIGEiBfGqgYdMVcAuRLc9WL3kZagHwZaWG2j4CJBMiXJioWXTWWAPnSWPWgN9EWIF9GuwK0j4CBBMiXBioGXTGXAPnSXPWit5EWIF9GWpjtI2AiAfKliYpFV40lQL40Vj3oTbQFyJfRrgDtI2AgAfKlgYpBV8wlQL40V73obaQFyJeRFmb7CJhIgHxpomLRVWMJkC+NVQ96E20B8mW0K0D7CBhIgHxpoGLQFXMJkC/NVS96G2kB8mWkhdk+AiYSIF+aqFh01VgC5Etj1YPeRFuAfBntCtA+AgYSIF8aqBh0xVwC5Etz1YveRlqAfBlpYbaPgIkEyJcmKhZdNZYA+dJY9aA30RYgX0a7ArSPgIEEyJcGKgZdMZcA+dJc9aK3kRYgX0ZamO0jYCIB8qWJikVXjSVAvjRWPehNtAXIl9GuAO0jYCAB8qWBikFXzCVAvjRXvehtpAXIl5EWZvsImEiAfGmiYtFVYwmQL41VD3oTbQHyZbQrQPsIGEiAfGmgYtAVcwmQL81VL3obaQHyZaSF2T4CJhIgX5qoWHTVWALkS2PVg95EW4B8Ge0K0D4CBhIgXxqoGHTFXALkS3PVi95GWoB8GWlhto+AiQTIlyYqFl01lgD50lj1oDfRFiBfRrsCtI+AgQTIlwYqBl0xlwD50lz1oreRFiBfRlqY7SNgIgHypYmKRVeNJUC+NFY96E20BciX0a4A7SNgIAHypYGKQVfMJUC+NFe96G2kBciXkRZm+wiYSIB8aaJi0VVjCZAvjVUPehNtAfJltCtA+wgYSIB8aaBi0BVzCZAvzVUvehtpAfJlpIXZPgImEiBfmqhYdNVYAuRLY9WD3kRbgHwZ7QrQPgIGEiBfGqgYdMVcAuRLc9WL3kZagHwZaWG2j4CJBMiXJioWXTWWAPnSWPWgN9EWIF9GuwK0j4CBBMiXBioGXTGXAPnSXPWit5EWIF9GWpjtI2AiAfKliYpFV40lQL40Vj3oTbQFyJfRrgDtI2AgAfKlgYpBV8wlQL40V73obaQFyJeRFmb7CJhIgHxpomLRVWMJkC+NVQ96E20B8mW0K0D7CBhIgHxpoGLQFXMJkC/NVS96G2kB8mWkhdk+AiYSIF+aqFh01VgC5Etj1YPeRFuAfBntCtA+AgYSIF8aqBh0xVwC5Etz1YveRlqAfBlpYbaPgIkEyJcmKhZdNZYA+dJY9aA30RYgX0a7ArSPgIEEyJcGKgZdMZcA+dJc9aK3kRYgX0ZamO0jYCIB8qWJikVXjSUQli+rq6sVRfF4PF6vt7OzU1GUioqKOPXmcrkUReno6PB6vfL/4NraWvnUuHHjFEVpa2vzckPA5AJdXV2KosybN+9nP/tZXFycw+FQFMXn88nPhaIoGzZsGDBgQFxc3MSJE+UHwe/3yxccPHhwxIgRcXFxmZmZdXV12huN9ZmnNwggcNYC5MuzpuKFCPQWCMuXhw4d6v28snjxYhki58+fH/bUkSNH5FO333572FP8iICpBcrKysiXpq4gnUfgvAiQL88LIxuxokBYvly3bt3Ro0drampqa2urq6ubmpqmTJkiQ+Qrr7zS1NRUXV1dW1tbU1Nz5MiRqqoq+VR2dnZra+vu3btruSFgcoE9e/YcPnx40qRJF154IfOXVvybyJgRCBEgX4ZgcBeBcxGQ+fLuu++Oi4u78MILhw4dOnz48OvU27Bhw2644QabzSZDZHJy8g033DBs2DD57PDhw4cOHSqfuuSSS0aMGPGHP/xBPsV3BMwrMGzYsOHDh9tstgsuuOCnP/2p0+nUdnPLveHsHz+XPzC8FgFzC5AvzV0/eh9FAZkvx4wZI5Pi937/iXo716e+9/U8iIC5BGbNmkW+jOIfKJpGILoC5Mvo+tO6iQW6u7sVRZkxY8ZNN91UqN6KiorknYKCguLi4mHDhslA8Pvf/764uLigoEA+e+utt6anp8unEhIS7rjjjtGjR8un+I6AqQWKiooKCgry8vLy8/PXrVunKIrf7+f8HhP/maPrCPRVgHzZVzneZ3kB+R9na2vryZMnG3vf5Amwc+fOlSFy5syZiqKcOHGisbGxoaGho6Pjq6++kk8VFhYqinLs2LHeG+AnBEwvIFdRIF9a/i8lABYVIF9atPAM+7wIyP87f2hTCxculCGyoqIi7DWHDh2STxUXFyuK4vV6w17AjwjEgID2AeH4yxioJkNA4JwEyJfnxMWLEegRkP93ygX8fL1vciFAbf3L0tJSRVG6urp8Pp+Mknv37pX5cvz48YqitLe3994APyFgegHtA8L+8Z6/GtxDwDIC5EvLlJqB6iggD82srKyUIdLtdst8qa0mHZYvOzo6/NwQiF0B+Yn4+OOPWV9dx79DNIVANAXIl9HUp+1YFQjLl3L/uLavUFEU9o/HaukZ178R+OSTT8iX/8aHpxCIJQHyZSxVk7EYRSAsX86dO1dRlKamptbW1paWFr/fv3PnTjm1OWbMGEVRGhoaWrkhELsCzc3Nfr9/zZo18fHxXB/SKH+n6AcCkRQgX0ZSl21bVUDmy/nz58sQef311991111jxoy5Vb0VFxdnZWXJpwYMGHDPPfdoT8kX8B2BGBMYO3ZscXHxyJEjL7roIvKlVf8uMm5rCZAvrVVvRquPgMyXbrdbhsjv/f4T9fa9T/EgArEt8Oijj8ozyrUjkg8ePDhixIi4uLjMzEy5vJfP59Pn00orCCAQCQHyZSRU2abVBeT/natWrbr00kuvueaawYMHX3311UOCt6FDhw4cOFAGiF/84he//e1vBw8eHHySfxGIWQH5e56cnDx58mTypdX/SjL+WBcgX8Z6hRlfNATkqTynTp3asWNHdXX17t63/fv3r1mzRubLzMzMhoaGbdu29X4JPyEQmwLffPPNrl27Tpw4oa1eJOcpmb+Mxh8q2kQgggLkywjismkrC4SeLX6mw+HDh2W+vP3227Vr6J35Mh5BIIYF5GeEfBnDJWZoVhYgX1q5+ow9UgLa3IzH4/H2vsndgjU1NTJfjhs3TlGUtra23q/iJwRiWcDn82mfEfJlpP4MsV0EoipAvowqP41bT0D+b7pv3z6ZL+X1ezo6OqwnwYgREALkS34PEIhJAY9xFqUAAAgtSURBVPJlTJaVQRlX4IfyZexeuoWRIfDvBOQVUzn+0rh/s+gZAn0SIF/2iY03IdBXgbB8WVxcrF2dua+b5H0ImF7gyJEjN954I+sTmb6QDACBoAD5MijBvwjoIhCWL4cMGfL6668/88wzz3NDwJICzz333IsvvvjYY48lJibGxcVlZGSw/qUuf4poBIHICpAvI+vL1hEIE5D5cu/evfL4S74jgECowMiRI8mXYX80+BEBMwqQL81YNfpsYgF52uyBAwfi4uIuvvjiiy666OfcEEDg5z//5S9/ecEFFxQUFNTX12vn/SjcEEDAnALkS3PWjV6bVkDmy7a2thUrVqxevfp9bgggoAqsXr161apVW7du7erqYlFY0/6Fo+MIBATIl/wqIKC3gIyYerdKewiYR4DPiHlqRU8R+H4B8uX3u/AoAhESkP9x+v3+M5dej+UFtRkbAmchID8U2mckQp9BNosAAjoIkC91QKYJBBBAAAEEEEDAQgLkSwsVm6EigAACCCCAAAI6CJAvdUCmCQQQQAABBBBAwEIC5EsLFZuhIoAAAggggAACOgiQL3VApgkEEEAAAQQQQMBCAuRLCxWboSKAAAIIIIAAAjoIkC91QKYJBBBAAAEEEEDAQgLkSwsVm6EigAACCCCAAAI6CJAvdUCmCQQQQAABBBBAwEIC5EsLFZuhIoAAAggggAACOgiQL3VApgkEEEAAAQQQQMBCAuRLCxWboSKAAAIIIIAAAjoIkC91QKYJBBBAAAEEEEDAQgLkSwsVm6EigAACCCCAAAI6CJAvdUCmCQQQQAABBBBAwEIC5EsLFZuhIoAAAggggAACOgiQL3VApgkEEEAAAQQQQMBCAuRLCxWboSKAAAIIIIAAAjoIkC91QKYJBBBAAAEEEEDAQgLkSwsVm6EigAACCCCAAAI6CJAvdUCmCQQQQAABBBBAwEIC5EsLFZuhIoAAAggggAACOgiQL3VApgkEEEAAAQQQQMBCAuRLCxWboSKAAAIIIIAAAjoIkC91QKYJBBBAAAEEEEDAQgLkSwsVm6EigAACCCCAAAI6CJAvdUCmCQQQQAABBBBAwEIC5EsLFZuhIoAAAggggAACOgiQL3VApgkEEEAAAQQQQMBCAuRLCxWboSKAAAIIIIAAAjoIkC91QKYJBBBAAAEEEEDAQgLkSwsVm6EigAACCCCAAAI6CJAvdUCmCQQQQAABBBBAwEIC5EsLFZuhIoAAAggggAACOgiQL3VApgkEEEAAAQQQQMBCAuRLCxWboSKAAAIIIIAAAjoIkC91QKYJBBBAAAEEEEDAQgLkSwsVm6EigAACCCCAAAI6CJAvdUCmCQQQQAABBBBAwEIC5EsLFZuhIoAAAggggAACOgiQL3VApgkEEEAAAQQQQMBCAuRLCxWboSKAAAIIIIAAAjoIkC91QKYJBBBAAAEEEEDAQgLkSwsVm6EigAACCCCAAAI6CJAvdUCmCQQQQAABBBBAwEIC5EsLFZuhIoAAAggggAACOgiQL3VApgkEEEAAAQQQQMBCAuRLCxWboSKAAAIIIIAAAjoIkC91QKYJBBBAAAEEEEDAQgLkSwsVm6EigAACCCCAAAI6CJAvdUCmCQQQQAABBBBAwEIC5EsLFZuhIoAAAggggAACOgiQL3VApgkEEEAAAQQQQMBCAuRLCxWboSKAAAIIIIAAAjoIkC91QKYJBBBAAAEEEEDAQgLkSwsVm6EigAACCCCAAAI6CJAvdUCmCQQQQAABBBBAwEIC5EsLFZuhIoAAAggggAACOgiQL3VApgkEEEAAAQQQQMBCAuRLCxWboSKAAAIIIIAAAjoIkC91QKYJBBBAAAEEEEDAQgLkSwsVm6EigAACCCCAAAI6CJAvdUCmCQQQQAABBBBAwEIC5EsLFZuhIoAAAggggAACOgiQL3VApgkEEEAAAQQQQMBCAuRLCxWboSKAAAIIIIAAAjoIkC91QKYJBBBAAAEEEEDAQgLkSwsVm6EigAACCCCAAAI6CJAvdUCmCQQQQAABBBBAwEIC5EsLFZuhIoAAAggggAACOgiQL3VApgkEEEAAAQQQQMBCAuRLCxWboSKAAAIIIIAAAjoIkC91QKYJBBBAAAEEEEDAQgLkSwsVm6EigAACCCCAAAI6CJAvdUCmCQQQQAABBBBAwEIC5EsLFZuhIoAAAggggAACOgiQL3VApgkEEEAAAQQQQMBCAuRLCxWboSKAAAIIIIAAAjoIkC91QKYJBBBAAAEEEEDAQgLkSwsVm6EigAACCCCAAAI6CJAvdUCmCQQQQAABBBBAwEIC5EsLFZuhIoAAAggggAACOgiQL3VApgkEEEAAAQQQQMBCAuRLCxWboSKAAAIIIIAAAjoIkC91QKYJBBBAAAEEEEDAQgLkSwsVm6EigAACCCCAAAI6CJAvdUCmCQQQQAABBBBAwEIC5EsLFZuhIoAAAggggAACOgiQL3VApgkEEEAAAQQQQMBCAuRLCxWboSKAAAIIIIAAAjoIkC91QKYJBBBAAAEEEEDAQgLkSwsVm6EigAACCCCAAAI6CJAvdUCmCQQQQAABBBBAwEIC5EsLFZuhIoAAAggggAACOgiQL3VApgkEEEAAAQQQQMBCAuRLCxWboSKAAAIIIIAAAjoIkC91QKYJBBBAAAEEEEDAQgLkSwsVm6EigAACCCCAAAI6CJAvdUCmCQQQQAABBBBAwEIC5EsLFZuhIoAAAggggAACOgiQL3VApgkEEEAAAQQQQMBCAuRLCxWboSKAAAIIIIAAAjoI/H+htJZhdSV1SwAAAABJRU5ErkJggg==;" vertex="1" parent="1">
          <mxGeometry x="155" y="330.00000000000006" width="105" height="59.08" as="geometry" />
        </mxCell>
        <mxCell id="NQIB0_0cbsQpVoIs0iVq-11" value="" style="shape=image;verticalLabelPosition=bottom;labelBackgroundColor=default;verticalAlign=top;aspect=fixed;imageAspect=0;image=data:image/png,iVBORw0KGgoAAAANSUhEUgAAASwAAACoCAIAAADVSURYAAAgAElEQVR4AeydB1RU19b49zSqWJJoYkyvL6bYe0Gk944UEVAUe++9oUgv02hiQY0NFUVUVJQ2vTF0AQXF3inTZ//XhcSX7/l43z/fSpZrvZm79hqGwzDn3n327+59T9kH0HgYNWDUwDvVALzT2o2VGzVg1AAaITQagVED71gDRgjfcQMYqzdqwAih0QaMGnjHGjBC+I4bwFi9UQNGCI02YNTAO9aAEcJ33ADG6o0aMEJotAGjBt6xBowQvuMGMFZv1IARQqMNGDXwjjVghPAdN4CxeqMGjBAabcCogXesASOE77gBjNUbNWCE0GgDRg28Yw0YIXzHDWCs3qgBI4RGGzBq4B1rwAjhO24AY/VGDRghNNqAUQPvWANGCN9xAxirN2rACKHRBowaeMcaMEL4jhvAWL1RA0YIjTZg1MA71oARwnfcAMbqjRowQmi0AaMG3rEGjBC+4wYwVm/UgBFCow0YNfCONWCE8B03gLF6owaMEBptwKiBd6wBI4TvuAGM1Rs1YITQaANGDbxjDRghfMcNYKzeqAEjhEYbMGrgHWvACOE7bgBj9UYNGCE02oBRA+9YA0YI33EDGKs3asAIodEGjBp4xxowQviOG8BYvVEDRgiNNmDUwDvWgBHCd9wAxuqNGjBACDWISoXihQa1CsQuHaJeh10vUIe/iRZRi6j5XVTtqFGiXkN8TE8YjL77L+3K1yrUqBCViM802scq7UvEV4io6C5SIaq7P0d8f/f/6dSoJ75YhdipRYW6+4v0GoW+S6HvUqFSiSolqru/U6NCjQY7e0SHnfpuQexE7OzSdSn0CiUq1ajWEB/7TYizJ85QhzodarSEaHWo1ak1Oo1W/0fpLu4+vZ4zfHOlatT9S8mbP2lQr+25/B41afSo1qNaS1zkG8X9jzddna/Uqs7fldj9RXq1Rt2l6taABrFLo9DolDpCH8puMVwYDQ5CPer0qFZ0vdJ326FKi+ouBWqValSpUaUhLPt/CCo69KpOvVqh06p1Ol2PBav1qNWgSoGaLh0qtahWorIdlc+w83HZfcGN5rKL4osnrxzLOUxPTdy5b9ua6HVLvULnuYTMdQlfGrhsx+JdjPWJWRti6Wt2xqWk5WRl/Xrq1MXr17liUXVd7e3mpraW5ge/4a7/g5H/dnfQoeYPotYSZ63S6PQqrU6p1Sj0akJQqyJuHDqNkriF/A9RoLoLVV2oVhDlWhXq/igd+q4OfVcnKrqI+8I/bwovX3S2v1YoujQarV7ffQPRok6LOuKXf3f0nCxx09HplcSZ6dR64s7WrX/d76/EaStVHQpl+7/7DkMpM0AIe/wZdnV1KZVKRFQSFowK9Qul5qVK+0qjb+92Pl16JOQNBIQD1OofPn1W3dDEl1ReOrI/72AmMyFxyZI1Nu4hP0z1HWoXNtJzieOaeI+t9KCEwwsOXtp4URrDvcuoeZ3ZrDrxSHmwtYPd+ILR+DqjRXH4gfr4Y+2pJ+oD8ocZ/ObYIuHGXy8toOcG70713hDttnKLXcgiu5BF9sGEOAYvcgr6TebOX7Zo6Zp1G3fs2ZfMyjh49PjZ/IKrl4pKymUSya365ocPnnR2dOi0XVrtK4XiWXs7atT/Vjqxqwu7FNilRoUGFfrf3JHyX+5Bb37Vd7t0Qnc9gqjV6lUqjVKlU6n1hFMmiPzD33tc3h9fFYjtOtRrOl4+a3/xVKNW6vXansiiF5CNEP6XaqCzS63WoVqNWjVhEM1Nt+ranvBankmEcl6F6NqVm3kn8/dnHkqMS921fe+WjTscZi+3C19qG7bEPmKZx8L1wev2zo9mLE/IXnaOs/qicHtJXXLlwwOtyuNP8OQzPPEUC+SKCzWqs7f0x2/jwbuY3obJbRh/Hxl3MKMNsx9h5gNktGBKky6tWc9sQeYTTH2Aia36xGZF2m1FRpv68FM8/hKz73X1SM7drgPdcrC162Br1+H6tmz57TRedXQRZ93pywtyToYxDgYnZ3ms2jw9avkI39DPbVw/GG39/ojJA0dN/Wiszfff/DzspzFTJtp6uQfMnb1o/Zqte3bFJ8bR8wovXrhy5XpJqVAovlXT8OhOW8eD56qn7T1+9Z+vRMjZLT0Qvgk5Nd1KVKl+i4F7IuGeV62GiBOID/zmpYn3b/5Rp0ad5l/C+45O1X+puf1/XZbBeULUo1JD3P8Js9B0ffXNl/1HTITRrl/Zhf7gGjkuaKXL4ujQbezlqSe3HrgcfexGQq0+uQEZTZjegpl3MbuNkP138ZgCDzxH5j1N6p0uZquK3aZKv6ditSqSn6roz3Ss55jxFLMeYvpdZDYjowEP1OCBKsypwgNy/cEqPFyHR+rxyC3MvkNIzh3MacacJjx4Cw804MF6bWyrOq6FkPg7hCTeVid1S9pdfdpdPaMNmfeR/RAzHmPmE8x6ijlNXYfuqI7e0524j6fa8NcWbW6j4mB9x/7GB+m1rSmShuhS8fqLN5ecvBh56HRY9q9+63d7LN88PWzJCNfgz0fb9/tiJKn/12A25Ovvhv00bPxkaydvv9D5i1Zv3RGbmJLByjh88cq1snJeXf2tp0+fa1Rqgj2tlriZ6VX/FJ0Sf5cOVP6LvMD2p/qXPdDqNFriS34/dIbtCg0PQuL+jK9VqNPoUdvZ/5OPglIOrZJ0+BbWe+RXOZwQTsq5OZx+8dt9Jz/dcfijzfuHurl+aTdt0NhRfX76vu/P//hozPDv7CYPc7e3nT03YMO2FawDu87diL0uj624kyB6lCR7deCO6lCr7kgbHrmPh+/h/mZkN+jo1RrWfcITZtzDjFZ1eosq4x5mP8T9z5DeoKU3aBm3dIxbOmajntWErDuEZDRjVrdkN2F2E+5vxAPdktmMmc2Y0YTpjci+hawGQpj1hMtl3UXGbaQ3E/+efRcPPsAjT5B9T8++p2fd1TFbtcxWLaNFQ7+jpt9Rpz/QpN9Xp99TZbQq0+90ZTR3ZjR2ZDS0s7g1aWWVsUW8bWevr8rNj2IfDUveHxyXPs4n5Ptpjlbf/ARWH4BJH+jzft8hXw7+7iePmTODoqIWb9y4h04/eOZMEY8nbmysf/Cg6+VLVXu7tqurO+rQEsR2y/N2ok+q54mxB72urg6Vsut3Hg3xp8FBqFM80b7pjNO9tvj8Y5uEXKfyTmexwlmscJEoXSRKV6nKVapyk6ndZGp/Mc6QdIsIA/ga34pO75uvPK8/dTnRMJ5x85sNBz6J2jskdM1A91mUUVPg828BBvYZ8O3Xv0yb6h0esHrbgiT26sPHN506v7xYvL6scp+kntV499CD57mPO7IedjHbOg490WY/JHigt6lT72mT72PqI0x9ihkNuowGXWa3ZNfr9tcRcqBOl9uKua14uAUP3cGDtwk50ExIXLUy5ZY+vRVzHhL47W9F1i2kV2uOteCxFjxyG3Ob8VDjb542px4TW7WJrdqku7rke/rke/qUNuwRZquadVfDvqdNb9Nl3NdnPiDi56yHmNuqOHpXefyu6vidzmO3Xh6WP8oW3sngNG7MzV+VfXJuUrbf1vhpC9cPC4r60jXoYzsfgL4k6Gdh+tFnQ36ynuy+YN665IT9x3ILcguvF3Il5ZV1tx8RDdHe8eLly4dvGsQQEUQ0OAhR/0ypUxGDE0qFVv3caui3w2Nz7avQW/SbeAmxRzwFek+B3kGEjmJ0FqOrGN1E6CbQu/K0rhy1g1jvKNY7SfSuUp27VOshUXmIutwEHc6lD51v3ne4ctvmTNW47PKhsfmfbjgwaClzmHXQ+5+OBXgfSO9/+dXoKdMDprvNnegSGbgpMWJP+vL0MzvOcFJK7mRIX+c0aA81I+MRIaxuIcLOB78Jo0XFaFExW9VvaOkB5uA9zLmjz2xUp9cp0usU+2+pD93WH23BtEYtvUlHb9IxmvXM24STZLcQcuQOIYdvE3LgNhEP77+N2bcJdNmNmN5EuOLM25jdQvC8vxUTHmDCfUxqw+S7SL+L7LuYcbfb37boDrXqD9/F3Ht49D4ee4DHHxFy6mnXiccdufeeZzTcixNUbyoqX3K6MDI3L2pngtOsBZaffQtUGpjRgATffjV459aVholfz1UbHIRdRAzUgXoV0RWgxRE//TB+zV6PBnTn/70SIEdfKXoINI5lHdOuPZtw8f7ocy0j8pp/3rX/x/WpX0Zu/dB1juUwe9KgH4E0COD9z6Z4/+wRYb9wc0Rc5rpjBXuucBIqZMn86oxWZUarOrNFk31Ht78ZDzbhoSbCyx1txMONmFOP6fXIbEB6I6bdRnorHriLB+9hZrOGXtuR3qg6fB8PtWF6o+qo/OU2Pp5reJ7xCI/JkPVCd0CKRx4jsw0Z95B1D9mtmow7qszbHZnNrzIbnx+qfp17T5fQ3B53X5nyFFlt2tOPMb8VGU+ReY/olzr/BI/Wd2VKXyfzX26+0rLp7I2l+46N3ZJkH7HW1sNvyJSfPx40ED7sT4JvYaj1Rz8HW9nuoIUe+XL1RcuQ1ZuC1xghNCANKHWI2PUGwnEjfxm5ZJtH/d9LoDsfvUQ6L5HOU6j1EGjceCpXrtKFoyBEji4yvbtU6yVW+AteBXKfBXMehlbcn3b8qnXupQnsvF92Z3++cG8fj6UwZgZ872JmMXjQZz/+bO1qP29JcGzi/NzcxRfOLSsqjGluSmxtZT18sv/py8NP2w8/eJ3T8mx/8+PkZkx/gDnPMPMRprVgUhMm3MK4ejx2D9Nb8XDjs5gHOmZlx+6Hdw63YNrDFzm3OvffUmQ1aTLvILuVAJLehvT7WPQM8+9hlvBlpuBVys1Ha45KIpg3XHec9l273GHOrElert8M/4ViagFgamEy0MrsE/AKozguhrmxVvNZ/VfmwJ4T/TYUUOMEkFEA56/SDlyHzApgCYFxE2bP958714BM8K1LNThPqCKGuQgIiSFCHdpOHvtt6FKP6r8dQheOwpWrdOOpPAQaL5HOR0I4Rj8ZuvDRWYBOQnSSoJMMHeToWIUONejL7QgQKAIl6kCZNlCm9ZeqvcQKD2HnlCtCm0tCx3Mcp0PXrGN+HbEg8Qu3VYMmzKFSv7C0+u6jL8b9PNnTJWz5/N3JOw+dTrpwLbnufmrDQ9btZ+ktL1i3nzGanmTefZX7VJ1c3XW0EXMaX9BfYN5DbcaT1psvkNFUeeIuHqpX0Dmtu87xlmWcDt1J91qx3Wn+GrMJ38AnfcEUgEIFy36mX3zzob3tYD8vckg2ac4B2oZTEJ0P0acgqQD28+CwGJL55N2VZqz7lvFN5AQxsIUmO/mWsbf67a4ipUj77hVDXDUkVPWhcyF47vK1xnD0LTT/iwu6h4e7kJgvQkDo7TJ9oPMMT+nfDqEHX/dvJahUEVSmnFGu9KtQ+3E13jydF58QPy768NBDgC4itJXg1EocL8dxVRhSgUE8DBCihwTtZThJhiOl+LNY63Drla38yZTyptFnuf9g5Q/ZkTFg8V7L2Vth4Ej4YES/b2xGOc0NXBK7cm/uvv1FGWeEu9XIFLdtqXwQdaN1eXqB04IYH4c9Q760gQHvw0efwzejYIwrySHKNGCb5Zy0PguzIe4SxF+jpfIHsGrMUuWQWgNZTZDdOIDx0DStFZhNkNkIGbeA0QgJ9bCz0iq7mLa7kLynDPZxgS2CQzWQUktOfUjNvAeMWouUagrjDiQ3fxYv6DMhcN8iYzj6X8zcW5fWPedKiaju6J6sERHoSR451ftvfiB056OvhBAfMdH94yVETwF68PXuPJ299JWD5JWTuN1F3OkuVHgK1d4CrbdAa1ON0yvRTorOQnTnom85zijH4DK0r0PbanSQohNf68FV+XNUoTx1BF8dVoZhFRjKxxAR+knRQ4pOEr29WL2oEWeKVJ43njpfuT/5dP3X9Bv9d5w233j0J891n8D7FtOWgX+s1bJY6oYj/Tdfg/hjkNwASXWQXENLlpsliy2TBf2SeQOSeBbxXMsUsTmjEuL4sJsDe0UQX0NLaqAmCyCpDGKvQsK1PvSKD+nCIQmCT2OEFlmlkHwd4kqAzYHsEkg5D/EXyXElkFYK285B3FXy/nrYf2cgWwrDvbZs3vlWQxlQgcGFo8QYvV6pR3U7MXNbs3xeMHz6g3e58u/umHHlaFw5Gjeu1o2rdefp3Hk6D77eg6+3r0aHKiIQdRGhGxfdy9HjJnrdQOfSLufSLtdShUep0qtc7VuhDeDqZ/DQV6z2FSt9hQofYacvv8OP/9qP/9qf99r5FjrUor1E71ihcitTBpRrw7g4T4A9AbCfDGdUEdGvl0jnJ8OQOvRqePD5DyMt04ogsZyclmcSX226tQHYIksW35QlJDGlwKwl/BvjHjAfA/OZZYrYjCWnZlYBW0o6UEfLrIO9XJM4MdBlkFVNyqokpQsomUKgV0DiTUjlmCyWQsojSL5vwmowWXoExi8B5xXgvAb8Y6kT10NwInnXNUiRfsDkw7f2m5MTDYi5ty7VcCF8jajVqDatnAN9B/mUdPzdEDqWqpzK1M7lGpcKrStH58bVu/PQnYduJd3UlaJPBfpV4AwOBnKJgDO8VB9apg/moB9P7ybU2Yu11mL1JLGKwJivc+sOUx3EaCPCqQKcJED364+9Sl8GiJREN2wdutehQ7VuWqXGVvzMSf7aSf7aRvhkCvfBdNFT56p2j3ql3W2NpdXHwBQCuw5yzkJSI+xpAGYxJAohSQBJPEgupyaXmqfctEot7ptyzeJYMzmzChI5EFMygC01SSiHrec/OloHaaUmsUWwOAc894DDDpi6ESZvBKe9fSgBg5bmDYwRDMpo+DiqYMg49oDtMohpgPSbMD8Htp+CTAlkyPonXgeTH3bu2PyWZRpQgeFBqEXUEZ7wJaJa07Vz7XyweN+3+OXfDaGPmIhF34SjPRGppwD9+EofgdJL0OkqbLcXv5wufmEtfTZZ+tS6Um9TifZydKlENyl6itCTq/Oo0LgLOtz5Xa58hQtf5cLXOAvQmY9OAvQVqrz5CndOl2u50qlM6Vymc65AVy56lqMvD3263/jxMUSG/gJ0LtZ5SHEwDKTGVFKZLZScPKukWx8ybkP6efPMWrOMGiq7isyshDQZpEggSQSJQuq+Elh2BjwZMDnawjYWhi2B4XMH7TgDybUQI4VlhaQF+YN2VQxMraRkyMm/NgLYQ0w+ZJfDkQqYwzIbvYnKLIfMCvPUhoFBebDqAtDlwJINSL0K5l/F0LcaEHNvXarBQajtXvGHmheo0yi0GL11PZiB6+UGD6HeQ6h3F+h6xI2v7ZE/C6eHHN0kOp9K9BDqncoUTje7vLg6Lw5Ol2g9i56687scqjBAivZ8dK/XBd24G8K/71TXPouvml76xKnkUUSJwqYKp1X87R1FLhI1mPS3Wn8I0qthfyXpWNu3Gwr6MaXvRZf1WXsBNhynLD303oQY00NSSqoYYrmw84yF0y5gtfSPFUFyMeRUQx8fk1QRKbkS0kotvZmUOQcgWwbJMkgTmyULzWEK0SWT3myZcN0sLB5ckyG9qk+ikJJeZTp9q8kOMWRxP4iVAoNLAcs0RsxblmlABYYIITFMr3qGGpVCi4z4vWAONqfEfxWELnyNC1/jKUEXntZTjG4C9K1EPznRlRLOw5BqnC7UuRXrXbnoLu4cm3z+i6iUIdGnHFMFtr9WBRa1hue3eNSjE+9vh9BdpAZqP4vV+4Eph1QOpFaCYzQsPQHLTsO8Q7AsG6IyzUfuoBwQmbHkwKiCrafNXXYDq6VvXDeEmXLo72+aJoYkGdDLzD3p1MiDBIQplUCXmCd1QxhLQGiReN0sKAY8UoFNQEhmy02mbqLulkAG970EKaRWkMEyPT3BgJh761INDkJ998puVD3VdLV36fDY/nToQx63/+ZfBaG/jBgA9K1EB67WQ4bTKlTWHNXUCuWEEtWMYq2/BKdWKF2vaQMlGFzZ+f1a1gqG3I0hdF1b9NWi/f9Ym/V5eMy0G01upc//rAf+s5/3lepJJCvy3CRI5ENsMdCrYMwa2HixD6uyfyIP6MUmW89aTtgDGRxyogCSxLD2VzPPvcC+axkvgpQbkCaBj0JoTAkpSQaMcpprsknkIcjqhjBNYprAt4CpEMcFZrNZSrGp5w7wZQKryjxJSGLLqONXU/ZKgF3RL0kKsTcBLHIPMd6yTAMqMEQINYioea5Vdir0eO7oITCH8ezrfxWErmU6Nw4xvudYofGpRmcpOsvQWY4OMpxRhl5StKtEzwr0F6Ev/+EH4Rvdt5SP3cvz3iay2Vfqk1nx8/zUkKpXIcK/vbfWX6olgTmE7CEnCiGxtO/hNhi9+otUKTCk5ikCYJeTduTTxu4ERgkliU94y8UHzfzjIL3NNEkEqTdhHw++nkNhSwkIWRywjzWdexgypeQUOdClJrFcc5gK8RxIazJh3KTarIOQTGBWmaQIgSkhDVtCjpMBk2OZJoGdl4Fkeu70QQNi7q1LNTgIiQwshBZeIWoUiBd/PQIUsGYV/1UQenDQh+gmIV49eVovvsZboPWV6u1E6HdT5SLotK3W+0twZjXOlD8ZHLFhOqvhW0b11Gj58BiObVrFx4FxQXJ1sPBvD0e9hV0kMIXg3Rb0SpM0Xv+DrfD17A923oR4PsRWQNpN2JwHo7YB4yY1TWSa3QDhGSYzkyDjATlFREorgW2lpGGLIFNGSZRBOh+m7jafmwvpEmpqFdCl1JgKC7AmulKTmyjsEvKoJTD7ANDlpFQBMATw7RziSZJeYcqUwoZ8INNuXj71lmUaUIHhQajR/xHCG+fygATWyUV/FYROFSpPAXrzdOGVaH+uNaj4ZURpx2KhNlCoWSHQBQleOolfBfPVEVJNpPj+Z8ErhyVzPkgoGx8tGpXAm87gfDqL7ivVu5X87RD6ytRUiiUEbKElC8hJZebpdfD1nL4bL5kduNs3vQGyRaRdhaSxO4FZQkrmA7uSHEA3mZ0GmY8gTUSml1LWXCdPWAk5ckq8FDKEMGGbVdRRYItpadVAl1GiSy1I0yCZQ4lvhKwy+HYOzD9CSpVDmgDoXPgkBBiV1JQKSoYElp8CCk1cftGAmHvrUg0OQtT85gl1eiIZmKykmEKFMTvz/ioIveXoK0PHoqeelx6SZyV9EMl6PyTh8whGv9mJQyNT35sfN2jn0SkMjl0WP+A45yfvpX5p13/el++xvdh6zxW7uMs/LsjyrSFGHf7sM96f/XxArd7EvC/4boS4ckgqpdLlMGrlgC1FlLQGkzgpJJXA+jMwaidklFMZQlJWNcUjiTqPAZmPgSEiM8uoS69QbdbDgSpKvJSUKYLRm/rOPwZssWlqNTAqKbtKCAhTOaaxjbC/HD6ZCUuPd0eqAkitgIH+wK4yT6yALBEsPApUar2o+C3LNKACw4NQ2wPhy46uV52Id2RiczPqj2sO/VUQOknVXjKN281nC8TaQfPZ1jvOu+0oCE8s8Ym56L8m94eo+OHRJxxji39Ysn/ECvpnv/hYB6z/2HPFNN+48VGMKeuyRy9h+9Zrnf7+uaze1RrTPv0haBs5hUdhVECiCEYuhwW5JqlNpnulsO8GrDlNQJjFobHFkCWnuMRTF7Ag6wkwCQhNFl6i2m+CgwSE5CwxjNzQA6FZWg0wKsk7b5pTbCCNYxHTCAcqYFAgrDhJSZETsWhKOQzwgozqPkkcyBbBvMNAo96WlRkQc29dqsFBqFA916OOSGpCpONTN99uAdP+w8OW/VlP4ix44Vrx0punseeopovRVobOAp0fR+cuxkARht7s9Kx4+aNjst2WGw6bOK5bZf/YznXYfOKr8PTxsVWjd5SPjK20TpN/5xE1iSmx28Ufu6V41Maz1lEZv6zK8uQ/dS3vchWjE1/vIUI3HjpX6G1LVK58DKhF/3KcJEZ/Hk6RKG0lr8NEOEaGTiJiGoA7T+tSoXLjarxFxDxVbxFR0tt1BfCQbAZWYwIhp5acUmuVJILhs822XgVWFS1JRGYLzDZdgC/XkNkCWooYMuootgtgTRFkVveN4VCyamD9AerEtaaptcCQURhc6sdLKOtPA4sPzMq+STLYexVgHCW5DlJEVolSU5gIm69CBr8/q7Zvchl8HAbpnP7RrcCsgQWrTIAmr7n1lmUaUIHBQahUv/gnhGrNnZa7YNr3l6AFvRlrb+VeMpUHV+FWprS50e4oQd9bRIdnSLlqigwdpXo3zqtJwkefBaSMSigZkyCckCAfEyvy2nHql6isqXGyCdtvjNjNnRRb/o1j6IT0Gvt9VZPjpFPiyx035I2NPuspV7kQy/n1NuVdriJ04hDjjS48vV2p2rZE5VSO856j49VXDjefhFVrwgSqKWUdrt3UefB1LhUqV47aU6DvmZrjKdD3dv5+fAJCy5G+kFNNSq3ukyyG4eFmm670BiF5ylxYexXSq6z2cciZ1bB6P2Xq+v8dwlSxZbzYBCbA1uuQwe/HrOkbdxM+mw3pnH57WoFZBXOWUYFWU99sQMy9dakGB6Fa/ZLwgj0Z+LTqtrY2oPX5wSusN2PtrdyrsnsamgCdyjVeVTizHu3ONFmzOJOutNldvudysXF0kexr/5hRsYVjE0rGJFZMjOF6bsgZvzDTIUFkF11sHcdzTC4f5xf57e6KMesrRuzmj4svt9l4bsy+AgepwpaPttxOW44iuBndJehViZ5iYtiDWJvfiD4crev1J0srOj5YxJ58VBxW3unGafeVoKdA71Khci5XunE1XsLfsnX0dv7eQqSZg/lQd8iugpQqyzQRDA83XXfxbQipySLCE44Og03FwJRbxHIgXQ6LM2i2m2m/e0LK4MXkdad6PKFVorTbE44nPCFdah4rpMF42HETMvhW9Ko+0Vfg2yhIL7fad5eAMHghBahNza1vWaYBFRgchHpNBzFer+1OYqtTP33yAGjmX9p69masvZU78HReIvQXowtH5ynSzRAqhsVf+nH1wSkL4yHesWwAACAASURBVOwW7PFYuHPk0vXDP7EZ7z5/gu/qcb4bx269bLswbty8VJtdN6ZvuzhlV7HtniuT/cLHJwrsd/CmJYod2HzXbWfs6Je9pO1eYgysRifOa3eR2rrkpacMA2vRU4gu5fpxleh/5fmCWu2nQXG2285/uv24zb7LsyVPfcQEhK4ctXO50pWj9uDreoLS3s7fU4Rm5mDyhS1kVkKKzJwphuGzzFbk90BIYvFNN56HL1aTWHwCwvRayvczYHsJ0CvNErjAlMFsBtV1B5VBYEamc/4JIUNGQLinCGA8OYkIVk328qgwDvZUQDrPMrXScvMFGLYIWGUW8a3ArAT3CArJpO3eIwNi7q1LNTgIUUtkmVEQa3sR9er2l0+AShs8ZlpvxtpbuU2Jyo2HHjy0K+m0L3vlV/5i2K4z07acsEl9Zp/ywJtxfxizbmrQBes9NdMS706IbftxVd7Pfmt+DN7z45ITQ6P2fzHv0OezmZ+Psx23vcBmVf6UnZcdEgpd12T7pJ0LEz6KkuoCy18GChSBMq2PTO/MUzoScabOV4g/lHWskePUnJKvvKM3nXkSkH/3m/BUn1MVPSuG3buTULly1G5cTU9Q2tv5u0nQ0hwoAydBuhRSZaYZYhg2y2zhSWDKqYnCP0JISRISEH7sQYCUKqMmcYEugRlJFN895N8hJH+0iLT2JDB5wJD1SZAQEJImkBJrgCWn7K4gwxiIE0A6zzxZarHqFExcDsybpsktwJRRpwXSTMyePXvxlmUaUIHhQahX64ndSLqT4euVqq4XQDN5//vhvRlrb+XE1NDukM9FqHMVKP0rXn6/8ajD9rM2MVz76FKfhPKhsWedQ7Psd1+xi+dM2ls+PVk6bWGyy+bTtrF8x5iSSXvLx++4aDNr6YRdFyYtOfHz8iPfL2Z8PHn2h26LP1iR/MnynPGJ19xO1tucqguvRSdOx/SSdneBfmY1Otaib8H979dk+u27tuMGBhx/siTv/nfz43qi0J4Mce48rRtX487T/odnQpdKtLIAksUIYEkhVUzLFsPwULPIIz0QApNnsiEfPl8FTB4BIbuG0tcB4niQJCWn8CBZCO6x1OA4YNdDmoRM5/wTQrqUgDD6CpAnEhCmV8OOUhKMJidLIZ1nmii2WJgLdmuBWUxNayUxZGajvWmW5p3txBJrgz0MD0Ji5yFs13Rvg4BdevUroFGsPvuuN9h6K/eVEanTnDkqN5nevRoDBF2Dl2dbbzo9MpozeucNu4SywdGnbGcfHr/ryrg4zk+7y8YnSIdHxNttyZ8UI7aN5Y+Pk4zedd1+/tYxsaXWG69Pjimbnlg8eXaa/frD05ll7qyaiZvzxuzIB/9dToX3PPldgTXoIcTJl5678jBcpKRNX7riwsOZeYo5Z3BBocJm2QG7G+2uHLWPmOgX9RKiG1fT4w97O39nOfYzB6D8QGKKIUVEyZHA8BDzWQeJUb4EwdsQUqnTCPYSJJDGIxYc2u+hhidBOgEhKa3iNwgZXPgDhJBQTc6sha03AEaZ0KsgnWeSIDKNzAHXDcC4Tma0UhhSy6HOtL6WWqUxDb5B3YJ0Gr3+nxCi9hWJRrUY/EVvxtpbeYAcra8+Hna6aey1x/Zipb9E+emaI25xN8ZGS8dv5zrGiofsyHeJPDN1V8WUWOmI7YKJqQ0/z0mx3XFl9B7phD38oTv5X68rHDtr3cgU+aRdkkmptbZs2bjIHOvVJ4bvKZ6wS+y9+7Ifk0sLiQ3ldriUvnThKj3F6MrVz+Cjd9nLgU7rwvPvBRXhvDM4uwiDtxTaXHvpXK70lWBAd4+RG1fjUqFyqVD1dv6OchxgAQDfURhiSBVQDkoJCGceeBtCYgI3u4YKUyBFRIqXAJ0HiXyyzW5KZMobCEkfLoQ1J6AbQst4cY8n/A3CLcUAI82YNZDOo8ULTcOzwGsz0K8Dq5VKl/b91pHWvw+xZY0BHwbnCXU6IuchscmZVqvT6TQazciRI6lUKjGk1i1v0jH1hHbT5ehZj75yIt+E480ODzE6ynA8rzOQh54rs2xXFdgtTBwXtus7j/ifhk3/MmjhyGjOyJ03R24pHL3p/PhthZP33rRJkdoy61ziCj4OTxm/t9iGIfthy+UR2y+NXH987LqDo/ZKJ+8TWe+64bz3xmczGeM3X54UIxy1V+q5u8o/pfT9sLVzOC1uZUrnCvQo1/ncaAvi40KhyiR45eIbraGX1f55GJWnDUwUTt6Y4rDn+I9L039efygoTx587b7Pjc6wyl5n3gTIET4ebGpGoe2tJqXygCECm5WDvNIhvYGaKCGzRbS1Z+HjZabpwj6pEkjgmZnaQqoIEkTA4EOigGa3lzIrgRjoYwvMEmvJ4EyOvgbp1bTUG5Bxj7rilAnFBZhCSowIVucA1YNYRx9fac6QwqxM8NlE0JvCN0+UgFVfqgmN2B/GgA+Dg/Dtth47dqyZmVlvEDry1E4lnW7XOwJuqmaUqL1KlO4ctbsEnRrwxzXJPocblhXdDj1RF3VWt+1Erfep+rmpl/22HZoSset7p6jPrGd97bjg58BN4yLjHFad+jE0wyWa55Pa4BQj9U+usl93YczszOmMW9YJkqm7b3gllf+y5PDU3TcmxvBH7OZbJ92zZctMFuzzE76YJsDJQrSXoLcMPWrR4/q98fG/Bh8ULLionX0Jg85pQi88Ds6/53bmfmDhq8WnHrmvOGllvdIxv/kXaVdvnjBAjqQhH5uYknsgJILS6asGerJ7ICSxhASEg5eapgstU8QQzzU1mQ5p4jcQUqZHU8MS/z2E6Xcpy0+a0FwJCGPFsCIbzLz/CWFoBvhuJnJqpPDNEsTQx6pv375GCN82y//mEn33rpZ6vV6n0+n1eq1WO2rUKBqN1huEPmXq1bcx4HKHeVSu6dxD3hdeLKlDl6uvx0ue/rz7QPCZtjlFT2ac7wo7j8vy9J6XMTK3ZcnJ++vPP9la+Hzj+ceLjjYHs+UeiQL/5evs5y2zX7zpK/fwfhPdv3Of+ZN7wAg3308XHBm5/rzNrkKP2KtD57Enbj5rs7dkeiJ/fIxsWlr54LWM2dJXPjJ06l4f7CfonFaNtkVNoWel0zbnRR564X9E7XtJP68aQ8oxMA8jjuHsX18uuPZkIe8ROC5YVNzrukT/SqR8+gnNhESJlpNSeWSWBOzXvufGAHY9NVHyNoQmNBuiUzRRTHjCZBFM3WESkdwDoWlCzW+ekF1FeMIeCE3cgCGERCksZJP7z4B0CSTJCU8YmgEB24DVDWG8CCwsP/30UyOE/83IvX1tWq22hz2NRqPVatVq9YgRIygUSm8QOl54OnhnEQSkgOte8IiFUPbX8eW+N5Te3PbvF2R67rw5dedNc78jo5bWrDuNEVcw6BLOuIj+59EvnxD/8xhQgIGFuOASzivEuUXodQJ9T+PsS+h9qN0u7U7QzkN+G5gTZ677zm6m5Q823zrOHua34gefld8EJYxZkPjVzJUzcgo8csvdT8j9T8iCj1Y4FD93OlM3NfnSj4tzl+dpovJxZiG65D2eQ38VeRJDr2FkCS68dH/8ltzv1mRFXH/Umyf0k6HJF59TqEDeXUlK5VHYUnDe2M85Fdj1lAQxiSWkrjkDg5easAU9npBKsQaGFJIkwOCTUsQwYbN5ZBoBIYtvmlBDAifS7qvArqKmFP8GobkHmS6CtEqYk0YeMovwtKlV5gwpKSQdgncBoxaSebR9fDAzHzl8hBHCtw3VgEr0ev2YMWP+QzjqWqoIEGCIGAO4etdr7ZPPtH2fJXs/rthq7Zkvwg59MH4tjF8P0xMtJiZ+6Hdk5N4bQYefhh3vmHtOu6gQF17EOWfUM4++8s95OGV7hT/79pJ83eILuOg8LjqrmXf85bJ8pU8hBlzBoCsYfgN9z6PPeXQ8qbLO7Zix50p43CWH5UyHTdlDF6V8t4Q1dCHz5zkpg0OzbBM5XgdrvA40RZ1TL8nHiKOvVl7Sbbvaua0UI399tPzovYnzs2Di3Dn89km8V71B6CtF86+/IpEBdkpJqTxqugzctljaJwKrjpIgBqaAgPCjJSZsgUWyCOI4FPJUYow+RQYMPiVNCqPXWc5jAKsWWHyT+OrfIGTJCQjZreRlJ2h9vGh0MbCrIDiB8t084j2j2oIhJQWxqaF7gV4DSTzaHi7QTJ0cHIltQw34MNxnwp64VKfTjR492sTEpDdP6CbUufA1ThVK+9JO+9JOZ47KXaT3lODkS0+cch9MWJTl+esdu9wWt9jyCalVX+078eWs7C/CD3wanjt41uH3ZmRZuKdQ7XbDlM0weeN783LtM+vmXO6KuqYOOfd85tnni2/oNxRrwo60BGTULsx7sqLg9cK8J0vOv9jBwXn5utUXcdUZxeIz7TNPPQk7377okn5NIW459mrxyZezC5XBFxXzLmrWFeHIVYUTtxbbxJ8cGkX/OiDp46D4H6NPhElf+ws083vf6MZHgn2++xZIADsk5DQ+LaMSvHaY2sQCq44cLwKmgLI6Dz5aQmPxeyAkwWQSq5JIRUPn0RiVMGxl3wVsAkImzyS+GsARdhURQ/PJ13sgNOnnQ2Sgya4B3xjKiCXmKcS0GwuGFAJZZhFxkFoNSTzqrgqgms4KDiF29jXgw+Ag/JdwVKVSDR8+/D+Eo258ratA6ybUuYnRTYzuIj0BoQjd5aooOX4xY6vL6fszy3HpyccBBRh0/XHUBXXkBd2sczq/k2rH/c8mJTYM3877Ye3Vj31zrezoFjYp38884bRFMCOxOSj5jk9c48i1hX286TA9+qv5p4Ny7i3J71x8rmP5hU6f8xhyFpdewaXXMLwI/c4rgs7iksu4Mk8xO08VWoizLuLcsx1BB5ods6VBN56tzq2eklFuK3w5/OrtENHryNL2MCFOL+21d9RbjP1++AcB4TYROY1vkikH390065jfIGTwCQg/XExj8c2ThMRae5hEZsshTQ50nglTDj8u7b8o499DyGohLT1uMsDXnC6Bg3Xgtos2YZVlkgiy6iwYUvIMluXsBEipIifyyDvKgGq6dP5CI4QGfAtC7AlHTU1Ne/OEAVJi7NuFq3Yo63Io63Lhqr2ERM5Cb+GT8DL8xHZh5GV1UD6uzXq2shgj89WLLyrmF6giL2J4t8wp0M8vUC0q6Jp1AUPy1DOOvw44+sKBefuX7byPl1ymBOWC9V5wSgWHFJi0F1yYg+fkTd4tDth/P+SaNuDXV4vP4+ICdcjZR9bpYgdGbdQpdVB+R1gxepzWRRXgygLtz+vPBFU882xUujTofOpxcuHLWRL05yp8haopN7rsJf8Jwv5Df/gfEPpFU6bsAWYt4Qn/DYQT30BoyqqCHxYPWJzZAyEtrup/eMJuCGnv+xEpZA7Xg/MO2pS1xFKp3yG0ikyCZDk5kUfZXgpU07XLVxohNDgI1WpiaFipJPZlUqvVLi4uANAbhL09U42uxXmFL0ZsSPmZlRtSeH/+BVxxGTecULhcwFlnccslnH+03fdox4xr6HUZfS/gskKMyMeAc+qIy6plRZ3z89ujCjD0PM67iOFnVX65z+zoTSN3Cr5aWTRo3pn+4cfBjUn2SLfwYsOUaJgaTZ6+D6bvHTz7mHuuLPxI+0IRBuTj3GjpyIBkl5wa8MjwvdoZVKH34+mdy5XOPLVPJTG2SeRQ7WWRvpNEa/LJD1QA0p7rRAYKejPZL9lq0mJg11IShMDkUlafgo8WUJnlZkk8iC0DmA5pNUROp4SavunSvh8GwqprkMwHJqfvVq4J2EB8CYXRTE7lQPYty1mx8GkwHGi1YEnAeiF4pvajt5jHCiGN38dhPSzPg4xmyKgZuJQJtIFJifE9uWANzhB/v2CDC0eJrUG1xPRtjYZ4DtFqtT4+Pv8HCF2l6FGnm1lQ+4/QfWHn7gad7Zx9Aj1Paf3zlQsu4crLODsPQy9h6BWcdeL+jiuv6Hmyg3IMP/k86DxGXMKIs5rIc7jwEs7KU4SdUYafVc3O10Re0M27iFGFOP8SRl7QRZxWBh184hArd9wnt44Wfb4gf8iCc+AcQ/LPhEkx5h7pFMc9YLMJ7HaBd9rg3Vet89rCqzGiCX0q0Ymrsi/vsus9vb+zVGf22Y9UAIi+1gMhxT/FcsLCXiEk2ZLotQSEibVWbInVoBmwphhSBMDiWm3hEBAmlJDpTQSEmQ3mwXvhq1DIaSUWZ0yMAj9G37Q7ZoSDFZrbbyAgTG8kZdS8vygFaO8z6Kl6JPbIMtjD4CDsmTHzpr31ev3MmTP/DxB6lb6Y2KAOleHXbvFrfm1aVdoRlN/lfx3nFjxeU4rLizGsAOdcx9DTTxflSE5wXpgAZOTzd5Vi5HV0P4Ezz2FUAS4uUM0t0PfIvIuEV4wq/A3CoGMvIs6o5ufrwo93zT+nX1qE4fn6sAJcdFwffqUr6nD9dyEpXyVe+0eqcPiWmxZrjkNwquWW8z/l1k29+tyRo3QX6b0l6N17OOos1fX5ahgB4e6rPRDSZqSZjpn3v0OYVGfBEJq/5wvrSwgI2fw+G8spMA2SykiMJmoKB9IbTP12wg+zYX+rKV0IwyMgJKNvym1qogiYYjO7bk+Y3kBhVw6Yuw9o7+XszzLuWf/GIA3iTY8b/OOlhoWF/R8gnFbUtOgBsXWZX+Fzq58CA/fst0k9676P43Kk2Tevw+c0uvyKzidUjoefzjj+ehcfd6Ywj4qehh9+NOMEzr2MC65g2OnOBVc0kef1c/J1c/J1s89pI85qwvJUYXmqWaeVkeeVi6/gimJigDEiH0Py9AEnNcHn9IHZyrXXlf6xp973XxPZim5ynC3GEE5niAj9+ehSoXLiqlxFei8pEYs6lvY6Y8ZFpu//3SgCwl1FPRCaBjHIwyN6hZBsRyxcYlZASoNpKo/W1xO2cCBVCGyBxfpSAsKUCqA3EhCyG0xdN8OoBaTMFloqH74OgrkHrJKaiNFFltTUbiORYY1dT2WJrEK3gsmA06dO6NE4d/SPJvnf/r7HE76ZN4OIAQEB/wcIg+V630v6SRXofhe/XLxt3/7D/JZHRy9KkjJS41NTmYyMg5mZWZnMnFP5rEv1G4/dmX+2NTL/9ezzGHUeF5/F8COvfY+8iCrHOfm/SeR5/KOEnemYeapz5mlt5EWccwnDLuDsAgy/oFvLxVkpfJjgu0j2wIfbNapM53oLZ5V0+HC0Xnydh1DvItQ5cFUOFQoXrtqn9/ylrpU48MfxBIQ7rxAQMm6bh7BgaMj/CiEprZGSWA7mLpQdAkgTQYbIdM0NEliT6Fyg36Ilc4BZT52+BqxX0NJbyEkc8kAvWHrMKv4WMCRktpxmtxGWnQRWjUka18x/FZgOuFp0Wd+TfOu/3fZ6uz6DC0d7FPHHoNTGxub/AKHHpdehtejCQRu51vtW2+cuvkVH8h91tje/VklbX9a2PHvw8HHro5bbWrzUhTMv4Mxy9CnEuaUYcKRj1v621QWqOQXoeYYAr4fDiLO68DPasDzNrNPq0FOq+UUYUaAPPK0LOYszTulCz2iWXcVFFxUz89vg26DgSw3OwsczeDpbIU6sxFkcvVuFyoOv86tCvzpiKMW2tMP+ZocHV9Nbx4xrJQ4eNpmAcPslyCwFxm3L0HT4NqBXCCn2FGY9MMopjGZi60+ag2m0hIAwS0JdeQ3AmljRm9ZgklQB9HrS+KXgst6UdYcUX041c4L1p/vsqweWhNjvyXZDN4RVZqmlFPf5YDZAyOVoiV0jDfcwRAh7Jo72xKV6vX7o0KFkMvnP9o6GiXDCtedBMrS70TFdpgm/cf+jcb6XqqofPnvZ1o7NL7DtZde9p7db25/ceIyrzj2deQ7tD3Y4H9dFXse5FxRzTr0KOtoVcRHD8nThZ/QRZwka5xXg/O4Jbgsv46x89ZzLOPM8Bp/Fmae1yy7j1hIMP1gL04P8T8snnGuzrtB5i9GDr7Mt6fSREAsIp5e0Tytpdxbp3GVIjG1yNb6iXoco3OT46ahpBITbCnsgtArLhC99/lcIaaw7EFMMZFvLfXKgiynZMvLyIgBrUroA6N0QptbByAXgvcWccQdiS2kwHbblW+ythQxpn4w60vRuT8isNEspBqcIsHivVi7VGCE0tFtQzyImlYpYSKrT6T7++OP/sJSpN09iXaYNlmicKp5G1KF/MdoI0UPwaPBUb3FZSesTddVzlD5WNTxouvNQfvfFC+4d5fpf7++owIDzOKsMfc4q55zXRp7WLjxHPPLNL8Soizj3AsHh7HMYcRbDz+gDTneEX8IZZzHoLAHn6iJdEFtMnbxoJivHpeJOQBOxomJChca77FVYiW6qCP0q0ZmntuMqXSvRqwo9u7fmDq3+TxB+Pmb6HyHsG54Fn3v9BwiprAZglJuwW2DvdQCbPrFVPRCSll0BsCZnCIHeYJpYQUqpg2FR4L/dknEH9pXQYCrsLuiztxYypf0y63+HUGqeXAx2oWDRv6m+xgihgTHYPUGK2LQeUdOlRpX62y8/AzK82ZnwX9/0Ms7WG5xf2Pjtzj0nfPSs/sWzxmcPWp/cb2t78OT+031CXF3UPuvEw6Djz+cU4KJrBHhhJxVzrmBEgWZWvjIsXzm7QBN5QRNxTjkrr9PrJC68gJGHMfKodk0JDt9+juywKDQ1v7d6/2y5txwHDx8LpL6w9dhHKTXAlsKCE5ZDAiCTb7W7Dtg1pvOYMHw+lS4jMxog9jLZxJOSVg85xC6fZhsKACZBVqNpjJBCr4XFDPhoLqSKgcXvm1gNuXLz91xhJpEpw2r7KQD7ftESYNdARplFamOfMUtMdhZAThUk3/36uzFA69f0sLVTbUxvYVAYKjQajUaF3V0B3SmAfxz6D8uBVv/K3u+7hf5Z4w670zl4TaLDgmhRaTM+x9ePnssf37n+ooHXjnRxV8iZF3Z5aHcRXQox8BLOK8KgPH14Ac69grMLMfQsBp7UhOTpw/Ix6jr6nHu1iqeeSy8ZMXWNTWSWz/Vno9t69Wx/9jy9KvGjYWMICLf92gMhaeFJ88F+byCkRdJh5EIqXUai1xMQUj2o9AbILjdLbTBfcx6o1pB5y2SfiBg8XJAGny0gp0qAxbdMroaDleb9nCHiV2BVWW49AeBktVcKzGpILzNPa7QYtYiyLR+yK8nJrZ9/NQLIfe4+f6jWGscJDQlC7SuFUkmkNCEG7Lsh/OyLz/t+POivgtBRiuF1aLuf/77PimnzNp3iSB/q9C1dr17cV926rT3LVe44/XzJUcXys7giHxccx4jj7RHH22ef6Jh7WjH/rHphvnZhvnbBOY1vUfPSU9Xj/XeYT5017WyZc4tq+OVnoX/d5qFelTjwp5EEhDtOfJhcDWwpaeFJ0w993kBIjkiBsUvfQEgluxMuMaOMSm+wWH4WrBwg4xYtthvC8AT4fjmxtILJN0uphkyJaR8H0sI8YkPCjUfB1MMiVkbsf8gqM6E3mg1fRNqUB5kScsqdwUO+B7Llc8VrvfGZ0JAYRFTpiekyBIA61Or1Sq1pn/6mg4f8VRAGXMMZErSvxInihyPPlQ1Zvnt04MpNW3PiCkvKHz5/jnin4/U5SX3Mtab5l1/6XNAsKsYF1zCqCCOLMPSCxvXw41FxlV9tvDlyYtiQ8C3fnym3btY6yzCgXBciQt+qXjNq/1lP6CHFAf/4hYBw9+lBSVXAkpAXnaK87wFZgr7R9UT0ODMeJq4kFkyk1cG+SzRwBeKZsATYtywXnoLBnpBxi1h5yKyDwL0wcr0JnVhgQU2rhlSBiZktrCkAZhVt9UF4L8AkSQ7JlcAoIzMbaT9FwYZTwOaSkxsHfDAEyOYKojWMvaMGRWF3xtHungAN0S2j1IOJ1YChw/4qCN3lOOlmh4sMg5vQi9flV/ws5MpD91zZxPXZX3sv+mqKk6NPQOTSdcFr461XZo9cdXJK1LoxYcu+95k92DFgiHPgsLAl7lvj5zJz/ctaZ5W+mM/HIB6OK1IRfTAyvUdxr4t0/yyE7hK0+mYokPqS9pz5IKESmGLK4tPQ3xWyBP32NACrGgJjwHodAWFqLey7ZAouwL4FyTcgq9Eq4hh8FwTsW6QkCbFG3m0bWO+0YFYRidiY1RDbvfhw+zVgVJGWZJI+D6PQqyFBSkorA/Yt8neRpA2ngV1BSqq17NO//0dDDLxXBhENb4iiu2NGQ/TLqFGr06j0QOv7tY3rXwXhVNELF4nSi69zvtLhfFnpJ0FicYNQ71ejdhF3OAnbPcUKp5JHE09JJ+SW2R3nTDp9d1r+Q8crL91LFMSmokL0kRJzrycL0FWCnuUYWKEJk+DsOgypw2klvW7w8mchdBOjxZffA6kvJebc+/EyYIgICPs4Qraw/95bBIS+u8i2mwgIU2ogptAMnCH9FsRdhwNNViGHYdQcwjGmSIlsMbYbqK5xfdg1RMIodjXsLKXAJIgvI4CczyQPjYL0WtgnpqaWQcYt+DzMdMsZYJVDQqWJmenoCZOJQUIiOjHcw+AgVHfotTp81fVSo2lHlUKt0AOl/wjfsL8KQk9+h38lOpYrHbkYehtdpTjxRrtXLXpyNAHV6FWDNny0KUM/Ic4W4JzSdlcuOnLQiY+uMnSvQ+dqnMTHX4qV9tfRvRKn8NR2IpWXSON07bVrmc6j97mgfxZCVxGafvYNkPrSYs+/FycFhoi6JA/M7f4Jodd2E8dtxNLB3yB0hMxG6t5rcKipb8AB8uSFJGYD0GUEhJNX0/xT+6XXEXmBM6rJm26QYTyRioZZDZGptFFLIasO9orMUsoh6xYMCemz8wJklEOckEIhBc6apUEDH6s3QE+oJm67nYrXqOtCjUqjRjD5YFLYsr8KQjuB2qZU4clHPz463yA2SPKvR8fKdmLneoHWndvhy+8MEmn9xeguQDsuBpZ0BZerQgS6QL7Wh6v04Co8BCovidau8k7QLU2AiNgFza0C9nHW5AAAIABJREFU7XgEolMFD/4sbL193lWEtE++AlJfk7gLA2IlQBcSEJrZQrZwQEwjsVWLx1Yz5x0EhMnVEFNoDt0QRl+F3OZ+vvsp05cS/TQ9EI5fQQti9M+oJyDMrKZuKAYYC+kiAsKIZNr4FbC/HqKF5inlkH0LPgzuF10IGRUQyyWRYenq1WqtyrAfCQ0Qwi4CwpeoVqCy89mTZ49fgfl7o7fumFGFzhVa25vtrlylj0jlxW/34b2aIelwlOI0rtaWS+ye61SB7lz04aPrTfS4qvIu0XuXovtNrRcXZ1QSWyY5laOnDF2E6MDVOnN1HiIkJrUIiE1jeoPhXZXbS59ZgDnA++YJ12C/jJIhMV12Cga4AbOGyHvPKus/ejvM2EdlllulyCC1imbuRE2tBGZzv/gS8N9JmnUY2HKrRAk5Vw6fhFgtvwn0Equ0SlJ8E4TspH41n0jxlC0yn7obnPYAi0skicqoJPIImwVbxZcCg0PbwQET2JOUiGpit0hDPgwuHMUO1Gj1r1HzSvMSFV3PH7wA0/5BzHQ7kcpRqnepQrdqtJPgFA5O5uB0EYaX4Mwb2lk8DJWgn0TjXanyqFU5VrY7StUucp2LXOckVTtKVE5StYNYac/vtOdoHMrVjhUaVz56S7s3MxMQeL8r2Hqr10HyohvCgWZJ1yFLSs2QmCw9De95voGw78itEBRHZZb3SZZCahXVwomSVgmM5n6JpeC5lTL7KKRXWSZJqPulMCjAamUJMMssU6SQ1Awzd1F+WkokwsgUmk7eCS4xBIR0CaRXkuP5YB5EQMjmERDSICYlGdW67s4yw8XQ8CBUoUqt7USNFtWo0bXVtYDZgAHjrQet2fdDXK7NrxzPq22+PI2fFH3k6C5DLznalWttSxROZQrXsnZfnmIGX+FZ8nxyZee0KqVDjcatRuNVpfaVqQKkihniLh8pEhloBHp3AZGKpue9a+875vYGyd9d7ih+bg7mQB1smlIMmRITlpS25BQM8gFmDbEXGrPUctgmmJlIY1UQEKbIaZbOQAxXNFsll4HDOmrUCWLf+RSJKZ0Plh6Wa0qByTFNEgH9DgTthMnriYHBDAF53BaSZwKk8wgI2ZXkWC5YBJnHl0CGgLq9AmiQxGCgqnuRteEyaIDhaPd+TC+U7cRgoUqLKnz2TFHz4EVVfsnB2Ax3t2Dy5/+vvfMAj6s49/6oW7bcsDEYA5cWQuAmhF4u14ABg3EPNoQWMDVACCQhQEgIEJoNbnKTZNnqdXvvvfcurbSSVr237X11vudozIkw1oe4QUmIznnm2Wd2dvbs7v+c374z7zvlp+DHN2c//dpPSmrXCzSbbfHNtuQjzcguJ/KQOv2ALLVJjmwUTr0gnHrDiLzuRH6pR+6W+m6VTdxhia1vmdqhn9pm+CqZUBo3G9KbZp/NMN+wzXb+TcbJRWAJWHJZ7jEFKLbmH7dlv0YGlzwOitzo/tgnlLnXvg32HM0p0iw5ZAWFztyCh0GRExz2LjmuAXf8Nue3VHDClXvEumSfCuRsyn1PnX1Cj+4kU9wDdrwPtn8CjjaBIj248d283UfPQFjiBJ+owIqncw8qwGlz9gdqkA1KKyuR2PQaBziEC0eBZDw1NT1UBg0QJxEkOoWkkFQKGUWifiQRQxKRaKDL5RLWEPa+8rtn/udBsGgdWHv96q2/vu3j6ocI1p26wCNu5KFmZIcZ2WVHthuQjfL0Zg3ySweatmiQ+4STD8lCW7XoXL6d05ZwC7p32r9dc/Rh3UQ2KACrr84u1oDj1qVHHZmvEMFVz4Aid+4RKzihzPjR78CLRTlFmsUHLeCwI2fpZlDizDzgXVysA9e9kPs2Gxx3ZR21Lv5QArI3Zf1Nv+SYAW1tnuzNuOcP4NnDmUebwTEtuO53BU+VgJMGdAn9Ehf4UA4ufimrUAnKLJnvK0E2INMZCOqZWdDHwmuOIkg0Gk0lkiGff3rY2lTUH0S9cyMIEkSQ+PTI7kQKQbcxjE0hESTk7WnTN5Iqtz77FLjwErDsooy7tl35wruXlUvXC9ofdcQesyW3qUJb5JFHNOlfGpGnbGh63Ir8wpTeoo9v1se3WdI7nN/bmM/ZLNt3Ld+imcwEBeDin2Wd0oGj5uWHHeBlArj2eVDcgkJ4XAEufx28eiq3WJt/wAwOO3JXbAWnnIu+8C46ZQCXPrnor0JwzJVxwrb4PQFYvBV8aV56WIdawtJecN0LWW+WojtpF6rB1b9Z+Xw5KDWgm8mUNIE/S8C1v0ej9qfNGe/JQRaQqzVIMh1Z0AwuvOZoJBZFt6RMI9NbpCGRRHxifBRdAXp6F/sp1C4i4UTaF4+FptIx1GaOhxN94cgAgoSQdMzX3yunsw6//9HyxZcDsBasvm7tjhfuPl63XWbbZO+8z93/S23qcSPyuBl5xIhC+LAutsWU3D777kjfFZ7vq/52lS8DLAVX3pRRZgSFlvMOOcBLjeDnr4DilryjNhTCS14Br5d/DcLTzoK93txyI1i9K/8TKTjWhC5X8Q4XnLcLHLUv269ZdNiCQrhmd967VYsK3eCgElz+8ppf14BTX0H4jjD/9r9mntCA0ybwJ1lmXkazuxVJpgPTG4QsWBIXnCWcQpB0PIGiNoWEUczSU0gyNDmaRPwxxBeb8qWQyPSSJ+nY9JGMIpEgkkqg9advlSS6WmJiHEHG+r0WNqPxT39+7+rrbwWZ54GcdVfcun3dF9Lry5wPCicetSCPO9Gllh40xDaog98XPN/XebYrJgFYCq6+LaPcBA6bVx10gJeI4IZX/w7hupfBG5W5xdpF+03gkD1v5TZQ5lz+uTenwgSW71j8uRyFsNiW8w4HXPg4KHIu/UKVX2gFJ3vA4i3579ctKWwBBxTgv15c82odhDCzuAn8UbD8nk8zS3SobXxXmrskp7unD0mm/dP71eEQLlgFzvxwuD9MavqAGzZNTR9n6QIL0QrTHUv4mEim29q9NDqz8MixG268NmdZPliUn3X9nT/5zQf3FrN2cD1Pm4Nb3ciDVuR+bXKTDtlhREP5j6iRbRJkgypyvyr8gDq0SR952BbZ5IxucAbucozfb4o8aIpuMqa2GKe2GdHO5zYNslmGPKhDHtIhm9XINhXyiCb9mD79uCn5pGXWZSxmg/YOVlMByAX3vAmKTKBUn1nsXPR6CbjjvXV7PaDas6jUWgCeBH+mLDpsAmUtoLwPrHo5u8K+6rATfCDJXv4KOMhb8aVqZVFz9ltVP/7px6DWAPaLVxY6Fu8zZSz6AygyXLK/Y/UnNpC5Z82bohXHbflfakGFA7zJAlsOrEAdpxbw9jGQX4AEBpG4f/QslRfY0wVnCWe7vumvDojZWY9wU1F0JmIymZg+kqmpSDQeDEWisQREMRpLTEz6kUhipGuIz5P9/r1Pr7z1AVBwKVh6GbjilrytL9304cknWNZn9YO7rL4tzYn7Wqdud6W2GZBf2JFHmtFYyFYDsluJPK9AfqdGdiuQRzXILzTIJnXyQX1iswvZ4kE2taJbc292pjeaE/cZohuM8fvMyQccyIOzz6CfDcL1gvZVi5Yt2vI+OGkDR1UZhTaw5yB44HN0iFm9GZTrcrJeyDkgXfGZBuwzrDnUBa55A5TrwWdycFgLrn4blCnBfikobwafVYH7PwW1clAkXn1YdcE79KXLXwB7KTlFEvApEVz8OHjgT+CeN8B/vwhufHnV5a9mvti4srg9q8i55LfHQcE6ZGwE8U2iyzAv4AOHcNaLDzlMpVIQvHg8HovFIpFIePqIpxF/ODY87hse9437Q75QdNwfGhqbHB6Y7Osc6GrrHuod9I+Od7e3skiEfR/99b47//f81ReBrAJw/lWrHn7mpvdP7KhX71H07OhDhwds0UQfkaee0CGPmtERajerkLt56OicRx3IIw5kuwPZ5krcbx6/Te7daZnYZp7YYvI/ZAlttCbvt6HTpu53fWfHz3pB+/L8pQW7PgGnneCAPP+gHez8eOVjp9accIMSLTpbYvFzecfV4AsZOKQAx5vAta+srDXnfaEAH3LB2hfBKQU6OrS6Azx6aMXP31/+RiPYUwzu/yu4/rdg7VOrC6ngRCf41Jy5h5n9lgh8qlh+yAa+1F5+oBl8oganOsBxa96vj6z60R1INIFEo+FZL8KCeAGH8NyXGS4GlU6nE8l0PJGKxZORaDwUjgaCYZ8/OOkLjE4GBkcn+oZG+4ZG+4fHegdH2jp7mlrb7f29zoE+e7fX2GLX2vVas1Krl6hUgvYWq04toZGI+z47sOnB3QX5lwJwQSa4OPeabZfuevuuQsrDMs8mp29jc3xzM7LDjdxiRjY0oYDdo4lvVEUfMyHP2ZHnzMhj6shj2vhj+vSjRmSXHtmhQrZIUg8LZt2bfjZLeBvTnQly8nZ/Ck67Mg5q1hzxgIfeW7WnuuCoGZxQgS8EoODpgoOKlYf0ecX284+586/59UV7+ave5oKXG8BVv8s/pFhaaM053pb5mzqw7Wj2qyTwFw74ULjsrxLwFwYg6sDJJlBoWnzQlHlIlVNlzm2wgmNicESBxi3KHaBIA57/+JL129GdCJAU3hw99124YEshflizM5JIh2LJQCQObd3IhH9obHJwdKKzb8jT2etq7bA3exzuNmdLu7Ol3eFuk1l1bJWYKuGzVEqRycQ3mqlydT1PWq6UUyxmutFAFIupfAGbw6s8Xfbxe+9v2rTzmh/9PAssA+B8cN5P125+4fqPTtxRQd2p7X/CGnjKEduli25TxrerkZ0adGbTZjWyWYsO/t5uRn5hRh43Ib/SIc9ovrMlvIvVCkBOzuOfg1Ou/ELjRUfbwX1vgydKrt5vWblXsfIDEbj6D8v3q7K/VIJCTfZ+A7h6D7jvT2DjXrCn6sLnGpcf0eUftmUUekClCRxSZuw3oxMLS/vXlk6Ck/3gqAscsoMiT1a5BxRZMsusoEQDjqrAMU3BScX5xYp1Hzcs3/LK+p3PwaHbC3pxi4U4n/D/++8CN/FNJBJYy3MiEB73hzC7190/5O3p7+juszd7zI5mrcmm0BqlKh2WTAq5UaHWKnRSiYbBkteTpA00NZlnqa4WU6laOkvdSBMQWGyWXMBW8AhCophFZLAaT9SVvvLxe7fv3Lrmyp/k561eBJaC83963m07b33ti12nJU8Leh/ThrdZkM1OZLMJ2WhE7jYjdxgTdxii6/Wh+7XhTZrQbBZvtvKNgt6MzLzFLx4Bpxz5heZVB1rAtvfBk8fB3fvBzR+AjYfA7R9n71OBA1JQrAVVTVcUaxYXG/KLXXlHbRcVO9HhoIVG8JkWHNKvONa09qg3b78b/M2W84kz71ArOOAE+9vWHPKC/Zb8v0gL3uWB12qzn64ET54EP9sJLrkL5FwGwPlP7dyDxKY3g/Ev6HA93hz9O5SQwHg8HolEQqFQIBDw+/09g6PdAyPe3kFPZ29zW6ezpd3W1GpxusUqg1RjkmnNcp1FrrPItGapxiTVmKgkJpcjEQoUHI6MwZawOAoaS0qg8I1sk4Qo5zYIuVQRhcyurGusJpMYEtExPb9Eya2WcGkiAYvHbyCRD5UU/3nfvnvv3HD55deBRatB3ipQcDG45n8u3PPWA0cb99Adzwhan9AOPOoM7vSktrUim5uQh797HHIjtzcje8nK358GJ+1Zh0yL9zrAG6Xgj405xSbwsbhgvzH/gPmCMm/2MXvOftP5+22gUALKm3Oq+8CXBvCFAhzVZVR4QEk7OKDP+lwHDumWnzBfWGleUSlZ/mk5eHvvypffWvuL58G9G8DFV+dknwdA/pUgfw3Iz8g6b3Hm0mUg+2dXXLH/iy9jkSQ6bml8QfcKcQjPQAj9n4lEIhqNhkIhv98/OTk5MTHh6ext6ehu8nih6dNbHBqjVaU3Kw02hd4q1ZgEci1HrGTwpTBVSjQkvZWo0pWy6GVMCk3OpctZNYzqYh6xmEcs4VJPcRllHE45g3eSzCpqYBBOc8nVQipJSqZJG2mCOiqnlsSoJdOoIkYVpaakunR/4ZfPPvP0VZdelgsy80AmyFwBLr527bZnb/zk1IMU605NYLcF2fXdJ/veQ/KAjEWr364GRWZw0JC3z7XyEC+3SAOO68C+6YhfkR0cMoKTDnDCAQ4YwXFj5tHmjKPegsL27IOmZfv1+QftS452gtLmvI8U4J3G7Ce+zNrwIvjRDYtAwVKQCcCqPLAMFOSBLLB4afbPt97x+18/UyaoMSklwf4WJNQVmRocRWIDCDIxPU7p7/+FCy+HQ/gVhMhUaiqdTKei8VggFBwdH+sfHOju7XG5253NbTZni8nq0hltKq1JrtLLlDqJ2ihWGURKvUCu5UnVHLGSJZSzhHKGUEYXSGl8CYUrInOERBafwOQ1MrhEjoDA5hPY/EYWr4HJrWdw6hmcOjq7ikyvItMrSbRKEq2CSC0nUMoJlLJGcnF1fVkjuY7OJnIERI6gjs6GhW/+8c833fq/ubnLAMgDGXlg0eJ1t9y8fs/Tt9byN/Jsj+gHd5tCOy1TOx3o6hgbtMgmJfKQHNmhRZ6wIU/ZkUd1iccNkWftybvLtZdkAPBJc+ax7qwiNvhsfOkpLzimzyw0Zx2xZB6xoAPNjpjAMTMoceSUuUGRHdR25FU25e8XrHinouCpjzLv/hX4+faMrMzM7KysnGyQmQEyQHZuzrIVyy9Ye+HBgwdra2t1Ot3IyAiGFdwmGW4EghXiGRzCM/dAMp1KplOJVDIaj/mDAQzCppYOCKHZ1qQz2tQ6s0JtwCAUKnQCuZYrUUEImQIZQ4gmukBK5YnJHCGJLYAcQvwwAuvo7Do6u5bGqqEyYaqmMGbSCLGsItOrKYyZLwlVepZQTqJzjxWVvf7Wew/u/uXFN9wIli3NA2sBuHjZpXdf99hb9x1o2EzVb1V7d7jGN3QkN7Ql1jsi/2MI3WdMbrUhD+uQ9cLwvTXKJQCAfZaML005R2rAZ95lheqVJXJwXJVRbkFnCR43gePWRcVucMAK/iy+7IkPlz/wMrj4DpB7KchalZm7Mgu1zOC81atuvPmmF19+qaT0pEqj7unrjcZj6FKSM4Y9zMQMC8DOLFzgeRzCMzdAPJmIJxOxRDwcjcyEsLnV29TS4WjyWOzNBrNDo7coNUaF2jCbJWSJFUwRag9pfMlMDhuYXJigAaylsSCBMAPzEDaIYg2VCTMVRGoFkVpJolWR6TVUZhmZRuAJ6QJpLYlRUU8m80T1bN6+0tN/O3Hgyd+8cM1tN2cuXQ4y8wEoWH3+j2+4ceMNH+x/qIz8pND+mL5vqzW40Y3c24Hc6UVuYPaDxatATQAc8YKTIlA4CfZrVxSb0NWcPteAP5IXPXds6T2v5a65PQesXQHOywD5uWBxDshes3LZpg23f/Teqw1V+6XcimA0Eo7HoslENJmIJOKxVDIF13T9Cizobf7qGbo/OXZghQs8g0N45gaIJeKxRDwaj0EIxybGB4YGe/v7PB09LW1dkEOzrclgdmgNVrXODD0xYpVBqNDxZRpoDNkiBUeqYkuULLECs4ewXYoRiEE40wZitg4iBxulFURqNYUBKa2mMGBjlSiV1XL5lTRmaR2hqKK2qpFKYvLryMxThNN0KUNkEFMEtANFB196/aU7773z4svX5YICAJaBvHVLbtl63W/23lPC38pr362fuOqYCiz/r2Xl3tWfqJZ9Xgde54In94GH3rmm4MaLwJXLwYV5YCXa4s3KLLjk/Js23fX8y2/uP1xC44q1dqdnoK/bN9oTHO2LTfrDEZh8obAvFPaHI8FoLBxPJNOp1NTXBvelpxv8cGASzuHM/x0cwq9BCDkMRcKTft/I2Ojg8FBnz6C3e6DN2+v2dDqb26wOt8nqMpgd0DEj11mkGhOGIk+q5sk1XJmaI1VBkwj7h1Se+JzN0To6e2ZvsKyRXNZIPt1AOt1AKidQzgnhsYbGI3X15XQmSShpZPFQL04DtaqKQCojkqspNdXE0tr603RqtUJ0SiUsFNOOFJ185y8fbtv95FXX3QJyVgFw3qKll1917T3rf/VKXhbIfWhX1vk/AauWgpx1YM0FKHU54NqbrnjiuUfefPe1Tw/8rZpQxZPyBHIBjafmyy0sgY7KkAvEFp2+zWbtbm4a1BgtJrvL3d7ZOzQ6HggHoolANOELxxJT6Xg6FUnEQ7FoKBaF1jKeTn01OjCNc4hxiEN4Rop4MpFIJbFuYTAcmvT7UHs4PNE3ONbdN9zR1d/a3g1Not3VqrM2aS0utQmlEaIIG6h8hZav0M7kEJpEMk9E4gpJXCH00DSyeLB/iDlmMBsIUZytOXqipr64nlDJZNdweJU0Zj2NTWHyiURmvdhYwZRXkMX1ZHFjg6CmlFJ9gtBYTKwi0xuYXCKbU0+jltdU7P3i06ee3n3Tzf993vI1eQCAdRf8aNmaW+686cVnXzhdc4p6vLhMoCaoLWSNuYYvqWZzCQJBA5dVQSKUsig1QnYli1FOJlN4AqFMIxKpREKl0eY0WB0mu8vh9rR6u729A139Q519g4OjI4OjI0Njo6OTE5PBQDAaiSYTiak01lecOUp+gbtqcAjPQJiaSqen5yqlkSnoIw2GQ/5gYGwyNDIeGByZ7B0Y7ewZbPP2trR1uT2dJmer0dFisLt11iaN2aky2hV6q0JvFar0AqXumxzShFKqQEIVSCh8MQYkiSvE3KQz/TTVFMZsjpmKenIliVbH5lVxuMUE0skGYkU9+XRFfXkju6KBXUcSkKiSBgK3soJSV8tkMWQ1VTQqVUjlSGqo9BISoZRNKpPQy2SMkjLGcSJ/L0/AJ4irhIpajqxEKqssYzbyKWXEmrKGRiJdzGAZiQRDY72VQfJUCKhEtaBOxi5hEkoZhGoBiyQXsQ3qeiqDxOJyJHKl0WJ1e5xtXktzq97uau/p6hroGxwfHQ/6fZGQPxr2RUIToQCEEO5ON5NDzCwswAwO4ZmLDgmE8yHSyFQilYzEomi7NBCd8EdGJ4IYh+2daEfR2txuaWozuzxGR4ve1gytotrkEKr0kEOeXIP1D1FXjRhNdJFsJo0zgTzLQs4WoqioJhSV1ZwmUqq5vFIqraSBWENmUJj8cgatgkkvpZKPEeqLKaRyHrucxz5BI5cLpcV0TimVU8eSkljyBgK/oZZDauAziZwaofIAs05UWVdKJdfSyZ9T6+prqFXVvJpablUDC+2CUhor2Y11UhJJTWssI/FoYj5TSiFxyXQBhSujCJUMuU6k0vJkSo5ELlCo5XqT2mxTmaxyvUmh02jNRluzq627s390eCzg80fDwXj0LAgxDhcge9hPxiHEpDh3Bg4ihaPYgsEgFsSfOZIGhvItTrfZ0SzTnvHZYO5TGMZgiuQ0voTMEVK4IoZQxhTJ6QIpmSOk8sQwQf8NjGqQ2AL4lMQWNDK49TR2DZlRTaJXEWm1NFY1hVFOoJyqJ56qJ5Y1ooYR+nUqiNSyRjJWXkGkQodqDZUJ4xyY9xWLfFRTGJh/6IwHiESvaKSU1ZOqiLQGOofI4jcyuLUUZi2FWUdl1dPYBCaPxBZQeWIaX0IXSBlCGUus4MrUQpVeqjMrTXaN1aW1NRmsTqPNZbI32Zpam9s6O/uGBsd8o75QMBgMhUKRSCQej8PNks+t+0IqxSH8lquNjaSJxWLhcDgYDMLhbINjvoHRyd6hsc6+obauPnd7V5PH62xpNzpaZtpG2GOUac18hZYtUUI/zZleIkfYyOCSOcKZ4cRGBreRwW2gc0hsAYwxwqd1VBYkAUIIeYP+GwghFuuHXUro14EvYZFGLA45s/wsCOuorCoirbyBXEmg1tPYMMjZQOfU09gNdA4kkMIV0QVSpkgO0zkhdLjb4NB2V2tHq7ens2+of2RiaNwfCoXC4XA0GsUhxO48HEJMilkz2LyKeDwejUbhlEJfKDoZjIz5gsPjvv7hsZ6B4a6+QW9Pf5PH62rtcLjbLE630ebSmmxqg0WpM8kMJpFGx5EpWBIZSyKjC8UkDq+ezqTxJTMjinB4TSODS2Dyzpnq6OyZPhuIUw2VicUSMeQgltDxMxM/6AHCbONZEEK7V0mgVhKotRQmgcmD1ht+JWiiaXwJUyRniRVoMEYi48gUfKVapNHJDCaVxaa1O/XOprbOHpjau3o7ewd6BoYHRsaHxiYjkUg0im4RmUgk0gt7VQvshsMhxKT4lgxEEZvjG0sh0eRUOJ4KROKQxpEJ//C4r6t/GLONzpZ2iKLe4tDZnEqjRaLRC5UaoVLDl6uYQgmVK4AhDbZECRuoVJ4YNkQhgUQWn8jik9gCSAKFK/pmmLGGyqylscoJlEoSrYbKhGNxaqjMShKtnEDBIDyLw9kgJLEFDXQObPrWkBkEJg8iNxNCaAbZEiVHqhIo1EKlRqLRKwxmjcVucDSZm1osza1dfYNdfYPd/UN9Q6MDI+PD474xX3DcH0J3aI3HE4kE9M18i+gL42Ucwu98nc8EuKbXmEmlkUQyDaf8hiOxUDjqD8cgk0Njk72DI529A+1dvR5vt7251WR36cw2rckKHxVag0Spwbw4kENs0ClsjmL4wT4YjS/BRt5g0X9IHTSJdXQ2LK+js6GLFTN0WM8QYjkbhHC8awOdAzuBRBafIZRxZWr4X0DhiiCTbImSK0ODoiq9SW0w68w2k91la2pxtba72ztbvd19/YMDg8PDI2PjEz5/IBQKRyPReDSWgEuEQAIXeGQCu/NwCDEp/o8ZrLEK156JJqciiXQwmvCForCxOjAy3j881tHT3+rtdrW2O1va4KPV5TZYHRKtSawxCpQ6rkzNEiswCGEzFWusYv6bBiaXwOYTOQIYdSSw+Q1MLgxv1NHZ9QzOTDhraSzsKTShkFiIKOQQoxQ6ZiD2JLYANoxJbAFTJOfJNdCZBLt/fIVWpDaINUaJ1mRxNtuaWpwtbe72zrau3s5bAPsKAAAIMklEQVS+wZ7Bkd6h0eHh4bGxMb/fH4lEMLuHBeixzP9R9P+st+EQfsv1nDnM6pxVIYTYSlCzLYcxEQgOj0/0Dg519w909fV3dPe429odzW6Ds0XvcGusLoXRJtGaII1fi218NQwVNlMbWTwiR0DmiWDIkcQVNrJ49QwOjP7DqCN8hCVwEgY2hwMbuDObJYSdQKybSuGKIISQOqnOLDdYVWaHxurS2Zv1DrfH29nW2eXt6e0ZGBwYGR2ZmBz3ByYCqPsqHA7H43Gs4wena35TQwjkN8sXTgkO4bdca2yExznvFVgICYQ1YaTxTLxxCkml0U2gEsl0YgoJxxPj/sDw+MTAyGh3/4DH2+lqaW3pHnB39bs6emytXqOrVWtrUpkdSpN9Zl8RmsczztJpCCl8MU0opQmlZJ6IwObXMzgkrhBmoEGrZ3AIbD6JK4ShSDJPNHOEAJEjmA3CBjoHC6JAFCGEaovzTOzB2WJq8lhbOmytXruns6uvv7t/oG9oeGhsfMzn94XCwWgshPb74smv7zGRTCbj8XPMoD+nsN9yVf6zXsYh/CddT9hYTSQS6O05vXAbXFx4xDcxOD7aMzTQ1t3p8rSYnXadxaQ26rVWh9psUxjMYrWOL1exRFI6X0Tloh4arLsI3TbwkSFU0AVyGl9G5UnJHDGJLSKyhASmAJvcSOGKqDwxQyhjS5Q8uaaGzCBzhND9w5GqYGNYrDEyBGKWSMqVKoRKjVRrUBotGotdZ3PampvtbrfL43F3dLR1d3f29/cMDfUOD09MTExOTvr9/mAwGIlEoNvzLPz+SRL/YD8Gh/CfdOmgnYRuCWwVqUQiEUklgvHoZDg44pvoGxny9vV4urwt3nZ3Z09TR5fD02FpbjU4mjQWu8JglutNWOdwZqdx2lRKyBzxTPwITAGBKcA6mbCzR+NLWGJ0qgdDKIONXo5UJVTpRWoDjLYLFGqRSivVGs7ydrZ2dnq6ujp6e7sGBvpGRgbHx0d8vlE/egQCgWAwGA6HIYG42/O73lI4hN9VsX+oPmx6Yd1ItB07PfsOTjgIRiO+UHDc7xvzTXo6e1q93c1tXofbY3W5jTYn9KnylWq+Us1TqHgKFVeuxBKVJz1nYklkTLGULhTThWKGSMKWynkKlUClkegMQrVWojPIDCaxVi/VGxUmi1RvNFgdRpvT7GiyN7dCV6ens6etq3dgZHRwdGx4fGLM558MhgKRaDieiCSS4XAYhv5g+xMOQ/uHNFp4b8Yh/Bdf88RUGs76iaWScF5sOB4Lx2Mjk4HhCf/A6ETv0GhX/1BHT39bV6+ns8fkchudzXq7S2OxK40Wmc4o0ejFah06i0qq5ss0MAnkWpjgq0KlBpo4GNBTmawKg1mo1CgMZq3VIdMZ1Wab0dmsMllbvd2ezp727j5v70D3wHDf8NjA6MTg2ORkMOQLhQORaCgWjySSsRTay00iSCKBRh3wkMM/chvhEP4j6n0P702kknAKFVxfIzWVhikxhcTTU9FkKhxPBCJRXyg8EQiO+wO9Q6PdA8MdPf0tHV0Ot8fsaNJb7FqTVakzwaTQGmcmtcGs0psUWoNCa1DqjBqjRW+xG21Oo82pNpjNjiZnS5vV5W7ydHT09LvbOwdHx6DFG530jfsDkD1/OBKOxGCgLxZPojN20+hOOqj/afr4HoRYwKfAIfw3vfiYeYTzYgORsD8cQsc/x5L+SHzMHxocm+weGG7r6nW3dzZ5OqyuFjiC3Ghz6S0OrcmmMVrVBhQ52I7VGC1ak9VgdZgdTbamllZvt7u9s6OnH4b1hsZ944HwmD80GQz4QkF/OBSIhOFk3EgiHk0m4vFkHJtzOT3v68zUr39T/X5IXwuH8F9ztbDO4WwfPzPUgW7n9tVicEnkjIUMRmOTwdCYzz8yMTk0ho4H6BsahWsTe7zdzZ4Op9vjaG51t7U3e9qaWj2ultamVk9LewcM68GY3vD4xOikzx+OBCLRQCQaSaATuKLxWDQei6HcnZnojK5VkZpC16tII5C9c24oCH8UjKzO9rvw8m8qgEP4TU3msQRjD1vlAZtfd5b79CwIIYfohGNkuic23ViNpdLRZAolJ5FENxZOIaFYcjIYGZnwY2PKB0ZG+4dHegeHegeH+oaGB0fHYDx9eHzCH45AhoPRGMyHYuhCOxC/rxE4lf5WUTAC4Q/51vp4BUwBHEJMih92ZrY4ZGiWA4Yrv/n4w1bhh/ntcQh/mNftG9/6LEN6FpPfhA2LWJ6V+caJ8YJ5VwCHcN4l/md+wDebu7N9OlbzrMxs9fHy+VMAh3D+tMXPjCswJwVwCOck0w+30lmGDnv6w/1F/3nfHIfwP++afu0XYW7YszJfq4Q/+ZcqgEP4L5V/3j4cs3izZebtk/ETf2cFcAi/s2T/zm/AkMPs3mzfFqt5Vma2+nj5/CmAQzh/2uJnxhWYkwI4hHOSCa+EKzB/CuAQzp+2+JlxBeakAA7hnGTCK+EKzJ8COITzpy1+ZlyBOSmAQzgnmfBKuALzpwAO4fxpi58ZV2BOCuAQzkkmvBKuwPwpgEM4f9riZ8YVmJMCOIRzkgmvhCswfwrgEM6ftviZcQXmpAAO4ZxkwivhCsyfAjiE86ctfmZcgTkpgEM4J5nwSrgC86cADuH8aYufGVdgTgrgEM5JJrwSrsD8KYBDOH/a4mfGFZiTAjiEc5IJr4QrMH8K4BDOn7b4mXEF5qQADuGcZMIr4QrMnwI4hPOnLX5mXIE5KYBDOCeZ8Eq4AvOnAA7h/GmLnxlXYE4K4BDOSSa8Eq7A/Cnw/wBtr/zt3KKIBAAAAABJRU5ErkJggg==;" vertex="1" parent="1">
          <mxGeometry x="500" y="380.91999999999996" width="110" height="61.6" as="geometry" />
        </mxCell>
        <mxCell id="NQIB0_0cbsQpVoIs0iVq-12" value="Docker Run" style="text;html=1;align=center;verticalAlign=middle;whiteSpace=wrap;rounded=0;" vertex="1" parent="1">
          <mxGeometry x="400" y="380.92" width="107.5" height="30" as="geometry" />
        </mxCell>
        <mxCell id="NQIB0_0cbsQpVoIs0iVq-13" value="docker build" style="text;html=1;align=center;verticalAlign=middle;whiteSpace=wrap;rounded=0;" vertex="1" parent="1">
          <mxGeometry x="260" y="420" width="90" height="30" as="geometry" />
        </mxCell>
        <mxCell id="NQIB0_0cbsQpVoIs0iVq-14" value="Azure" style="text;html=1;align=center;verticalAlign=middle;whiteSpace=wrap;rounded=0;fontStyle=7;fontSize=16;" vertex="1" parent="1">
          <mxGeometry x="950" y="80" width="120" height="40" as="geometry" />
        </mxCell>
        <mxCell id="NQIB0_0cbsQpVoIs0iVq-15" value="" style="swimlane;startSize=0;" vertex="1" parent="1">
          <mxGeometry x="790" y="208.42" width="387.5" height="287.5" as="geometry" />
        </mxCell>
        <mxCell id="NQIB0_0cbsQpVoIs0iVq-16" value="" style="rounded=1;whiteSpace=wrap;html=1;" vertex="1" parent="NQIB0_0cbsQpVoIs0iVq-15">
          <mxGeometry x="-40" y="-158.42000000000002" width="460" height="495" as="geometry" />
        </mxCell>
        <mxCell id="NQIB0_0cbsQpVoIs0iVq-17" value="" style="whiteSpace=wrap;html=1;aspect=fixed;" vertex="1" parent="NQIB0_0cbsQpVoIs0iVq-15">
          <mxGeometry x="-8.75" y="-110" width="397.5" height="397.5" as="geometry" />
        </mxCell>
        <mxCell id="NQIB0_0cbsQpVoIs0iVq-18" value="" style="whiteSpace=wrap;html=1;aspect=fixed;" vertex="1" parent="NQIB0_0cbsQpVoIs0iVq-15">
          <mxGeometry x="43.75" y="-57.17" width="292.5" height="292.5" as="geometry" />
        </mxCell>
        <mxCell id="NQIB0_0cbsQpVoIs0iVq-19" value="Subscription" style="image;aspect=fixed;html=1;points=[];align=center;fontSize=12;image=img/lib/azure2/general/Subscriptions.svg;fontStyle=3" vertex="1" parent="NQIB0_0cbsQpVoIs0iVq-15">
          <mxGeometry x="290" y="-140" width="30.98" height="50" as="geometry" />
        </mxCell>
        <mxCell id="oWz8tY7s5ePtf9KsM1_T-8" style="edgeStyle=orthogonalEdgeStyle;rounded=0;orthogonalLoop=1;jettySize=auto;html=1;" edge="1" parent="NQIB0_0cbsQpVoIs0iVq-15" source="NQIB0_0cbsQpVoIs0iVq-20" target="oWz8tY7s5ePtf9KsM1_T-6">
          <mxGeometry relative="1" as="geometry" />
        </mxCell>
        <mxCell id="oWz8tY7s5ePtf9KsM1_T-10" value="8" style="edgeLabel;html=1;align=center;verticalAlign=middle;resizable=0;points=[];" connectable="0" vertex="1" parent="oWz8tY7s5ePtf9KsM1_T-8">
          <mxGeometry x="-0.3077" relative="1" as="geometry">
            <mxPoint as="offset" />
          </mxGeometry>
        </mxCell>
        <mxCell id="NQIB0_0cbsQpVoIs0iVq-20" value="ACI API" style="image;aspect=fixed;html=1;points=[];align=center;fontSize=12;image=img/lib/azure2/compute/Container_Instances.svg;fontStyle=1" vertex="1" parent="NQIB0_0cbsQpVoIs0iVq-15">
          <mxGeometry x="84" y="141.58" width="64" height="68" as="geometry" />
        </mxCell>
        <mxCell id="oWz8tY7s5ePtf9KsM1_T-7" value="7" style="edgeStyle=orthogonalEdgeStyle;rounded=0;orthogonalLoop=1;jettySize=auto;html=1;" edge="1" parent="NQIB0_0cbsQpVoIs0iVq-15" source="NQIB0_0cbsQpVoIs0iVq-21" target="oWz8tY7s5ePtf9KsM1_T-6">
          <mxGeometry relative="1" as="geometry" />
        </mxCell>
        <mxCell id="NQIB0_0cbsQpVoIs0iVq-21" value="ACR" style="image;aspect=fixed;html=1;points=[];align=center;fontSize=12;image=img/lib/azure2/containers/Container_Registries.svg;fontStyle=1" vertex="1" parent="NQIB0_0cbsQpVoIs0iVq-15">
          <mxGeometry x="80" y="-8.419999999999987" width="68" height="61" as="geometry" />
        </mxCell>
        <mxCell id="NQIB0_0cbsQpVoIs0iVq-22" style="edgeStyle=orthogonalEdgeStyle;rounded=0;orthogonalLoop=1;jettySize=auto;html=1;entryX=0.469;entryY=0;entryDx=0;entryDy=0;entryPerimeter=0;verticalAlign=bottom;fontColor=none;noLabel=1;" edge="1" parent="NQIB0_0cbsQpVoIs0iVq-15" source="NQIB0_0cbsQpVoIs0iVq-21" target="NQIB0_0cbsQpVoIs0iVq-20">
          <mxGeometry relative="1" as="geometry" />
        </mxCell>
        <mxCell id="N333sM3rX7YaFP_htE1L-7" value="6&lt;div&gt;&lt;br&gt;&lt;/div&gt;" style="edgeLabel;html=1;align=center;verticalAlign=middle;resizable=0;points=[];" vertex="1" connectable="0" parent="NQIB0_0cbsQpVoIs0iVq-22">
          <mxGeometry x="-0.1525" y="2" relative="1" as="geometry">
            <mxPoint as="offset" />
          </mxGeometry>
        </mxCell>
        <mxCell id="oWz8tY7s5ePtf9KsM1_T-9" value="Text" style="edgeLabel;html=1;align=center;verticalAlign=middle;resizable=0;points=[];" connectable="0" vertex="1" parent="NQIB0_0cbsQpVoIs0iVq-22">
          <mxGeometry x="-0.302" y="4" relative="1" as="geometry">
            <mxPoint as="offset" />
          </mxGeometry>
        </mxCell>
        <mxCell id="oWz8tY7s5ePtf9KsM1_T-11" value="7" style="edgeLabel;html=1;align=center;verticalAlign=middle;resizable=0;points=[];" connectable="0" vertex="1" parent="NQIB0_0cbsQpVoIs0iVq-22">
          <mxGeometry x="0.4213" y="-1" relative="1" as="geometry">
            <mxPoint as="offset" />
          </mxGeometry>
        </mxCell>
        <mxCell id="oWz8tY7s5ePtf9KsM1_T-6" value="ACI BD" style="image;aspect=fixed;html=1;points=[];align=center;fontSize=12;image=img/lib/azure2/compute/Container_Instances.svg;fontStyle=1" vertex="1" parent="NQIB0_0cbsQpVoIs0iVq-15">
          <mxGeometry x="226" width="64" height="68" as="geometry" />
        </mxCell>
        <mxCell id="NQIB0_0cbsQpVoIs0iVq-27" value="Azure" style="text;html=1;align=center;verticalAlign=middle;whiteSpace=wrap;rounded=0;fontSize=16;fontStyle=3" vertex="1" parent="1">
          <mxGeometry x="950" y="49.99999999999997" width="60" height="30" as="geometry" />
        </mxCell>
        <mxCell id="NQIB0_0cbsQpVoIs0iVq-28" value="Resource" style="image;aspect=fixed;html=1;points=[];align=center;fontSize=12;image=img/lib/azure2/general/Resource_Groups.svg;fontStyle=1" vertex="1" parent="1">
          <mxGeometry x="860" y="130" width="51.45" height="48.42" as="geometry" />
        </mxCell>
        <mxCell id="NQIB0_0cbsQpVoIs0iVq-29" style="edgeStyle=orthogonalEdgeStyle;rounded=0;orthogonalLoop=1;jettySize=auto;html=1;exitX=0.5;exitY=0;exitDx=0;exitDy=0;" edge="1" parent="1" source="NQIB0_0cbsQpVoIs0iVq-8" target="NQIB0_0cbsQpVoIs0iVq-21">
          <mxGeometry relative="1" as="geometry">
            <Array as="points">
              <mxPoint x="380" y="250" />
            </Array>
          </mxGeometry>
        </mxCell>
        <mxCell id="N333sM3rX7YaFP_htE1L-4" value="6&lt;div&gt;&lt;br&gt;&lt;/div&gt;" style="edgeLabel;html=1;align=center;verticalAlign=middle;resizable=0;points=[];" connectable="0" vertex="1" parent="NQIB0_0cbsQpVoIs0iVq-29">
          <mxGeometry x="0.1303" y="-2" relative="1" as="geometry">
            <mxPoint as="offset" />
          </mxGeometry>
        </mxCell>
        <mxCell id="oWz8tY7s5ePtf9KsM1_T-13" value="9" style="edgeStyle=orthogonalEdgeStyle;rounded=0;orthogonalLoop=1;jettySize=auto;html=1;" edge="1" parent="1" source="NQIB0_0cbsQpVoIs0iVq-30" target="NQIB0_0cbsQpVoIs0iVq-20">
          <mxGeometry relative="1" as="geometry" />
        </mxCell>
        <mxCell id="NQIB0_0cbsQpVoIs0iVq-30" value="USUARIO" style="shape=umlActor;verticalLabelPosition=bottom;verticalAlign=top;html=1;outlineConnect=0;fontStyle=1" vertex="1" parent="1">
          <mxGeometry x="890" y="600" width="30" height="60" as="geometry" />
        </mxCell>
        <mxCell id="oWz8tY7s5ePtf9KsM1_T-3" value="3&lt;div&gt;&lt;br&gt;&lt;/div&gt;" style="edgeStyle=orthogonalEdgeStyle;rounded=0;orthogonalLoop=1;jettySize=auto;html=1;" edge="1" parent="1" source="oWz8tY7s5ePtf9KsM1_T-1" target="NQIB0_0cbsQpVoIs0iVq-8">
          <mxGeometry relative="1" as="geometry" />
        </mxCell>
        <mxCell id="oWz8tY7s5ePtf9KsM1_T-1" value="Build Mysql&#xa;&#xa;" style="shape=image;verticalLabelPosition=bottom;labelBackgroundColor=default;verticalAlign=top;aspect=fixed;imageAspect=0;image=data:image/png,iVBORw0KGgoAAAANSUhEUgAAA3UAAAHyCAIAAADDRnA+AAAgAElEQVR4Aey9eXQTV5r/7U4vM+fM/POed97zm5nOhqpUJQPpZXq6p/udpTMzPd2TBLC12SxhC0nIRkgCCWRnCYSEHUuyDdZmm30nECALCSEhCSRAgBAgJEAweNFis2Nsqd73uVcqywaMLZVlWfX10VFKpaqrup9bUj48997n5ij4AwEQAAEQAAEQAAEQAAHtCORoVxRKAgEQAAEQAAEQAAEQAAEFfombAARAAARAAARAAARAQEsC8EstaaIsEAABEAABEAABEAAB+CXuARAAARAAARAAARAAAS0JwC+1pImyQAAEQAAEQAAEQAAE4Je4B0AABEAABEAABEAABLQkAL/UkibKAgEQAAEQAAEQAAEQgF/iHgABEAABEAABEAABENCSAPxSS5ooCwRAAARAAARAAARAAH6JewAEQAAEQAAEQAAEQEBLAvBLLWmiLBAAARAAARAAARAAAfgl7gEQAAEQAAEQAAEQAAEtCcAvtaSJskAABEAABEAABEAABOCXuAdAAARAAARAAARAAAS0JAC/1JImygIBEAABEAABEAABEIBf4h4AARAAARAAARAAARDQkgD8UkuaKAsEQAAEQAAEQAAEQAB+iXsABEAABEAABEAABEBASwLwSy1poiwQAAEQAAEQAAEQAAH4Je4BEAABEAABEAABEAABLQnAL7WkibJAAARAAARAAARAAATgl7gHQAAEQAAEQAAEQAAEtCQAv9SSJsoCARAAARAAARAAARCAX+IeAAEQAAEQAAEQAAEQ0JIA/FJLmigLBEAABEAABEAABEAAfol7AARAAARAAARAAARAQEsC8EstaaIsEAABEAABEAABEAAB+CXuARAAARAAARAAARAAAS0JwC+1pImyQAAEQAAEQAAEQAAE4Je4B0AABEAABEAABEAABLQkAL/UkibKAgEQAAEQAAEQAAEQgF/iHgABEAABEAABEAABENCSAPxSS5ooCwRAAARAAARAAARAAH6JewAEQAAEQAAEQAAEQEBLAvBLLWmiLBAAARAAARAAARAAAfgl7gEQAAEQAAEQAAEQAAEtCcAvtaSJskAABEAABEAABEAABOCXuAdAAARAAARAAARAAAS0JAC/1JImygIBEAABEAABEAABEIBf4h4AARAAARAAARAAARDQkgD8UkuaKAsEQAAEQAAEQAAEQAB+iXsABEAABEAABEAABEBASwLwSy1poiwQAAEQAAEQAAEQAAH4Je4BEAABEAABEAABEAABLQnAL7WkibJAAARAAARAAARAAATgl7gHQAAEQAAEQAAEQAAEtCQAv9SSJsoCARAAARAAARAAARCAX+IeAAEQAAEQAAEQAAEQ0JIA/FJLmigLBEAABEAABEAABEAAfol7AARAAARAAARAAARAQEsC8EstaaIsEAABEAABEAABEAAB+CXuARAAARAAARAAARAAAS0JwC+1pImyQAAEQAAEQAAEQAAE4Je4B0AABEAABEAABEAABLQkAL/UkibKAgEQAAEQAAEQAAEQgF/iHgABEAABEAABEAABENCSAPxSS5ooCwRAAARAAARAAARAAH6JewAEQAAEQAAEQAAEQEBLAvBLLWmiLBAAARAAARAAARAAAfgl7gEQAAEQAAEQAAEQAAEtCcAvtaSJskAABEAABEAABEAABOCXuAdAAARAAARAAARAAAS0JAC/1JImygIBEAABEAABEAABEIBf4h4AARAAARAAARAAARDQkgD8UkuaKAsEQAAEQAAEQAAEQAB+iXsABEAABEAABEAABEBASwLwSy1poiwQAAEQAAEQAAEQAAH4Je4BEAABEAABEAABEAABLQnAL7WkibJAAARAAARAAARAAATgl7gHQAAEQAAEQAAEQAAEtCQAv9SSJsoCARAAARAAARAAARCAX+IeAAEQAAEQAAEQAAEQ0JIA/FJLmigLBEAABEAABEAABEAAfol7AARAAARAAARAAARAQEsC8EstaaIsEAABEAABEAABEAAB+CXuARAAARAAARAAARAAAS0JwC+1pImyQAAEQAAEQAAEQAAE4Je4B0AABEAABEAABEAABLQkAL/UkibKAgEQAAEQAAEQAAEQgF/iHgABEAABEAABEAABENCSAPxSS5ooCwRAAARAAARAAARAAH6JewAEQAAEQAAEQAAEQEBLAvBLLWmiLBAAARAAARAAARAAAfgl7gEQAAEQAAEQAAEQAAEtCcAvtaSJskAABEAABEAABEAABOCXuAdAAARAAARAAARAAAS0JAC/1JImygIBEAABEAABEAABEIBf4h4AARAAARAAARAAARDQkgD8UkuaKAsEQAAEQAAEQAAEQAB+iXsABEAABEAABEAABEBASwLwSy1poiwQAAEQAAEQAAEQAAH4Je4BEAABEAABEAABEAABLQnAL7WkibJAAARAAARAAARAAATgl7gHQAAEQAAEQAAEQAAEtCQAv9SSJsoCARAAARAAARAAARCAX+IeAAEQAAEQAAEQAAEQ0JIA/FJLmigLBEAABEAABEAABEAAfol7AARAAARAAARAAARAQEsC8EstaaIsEAABEAABEAABEAAB+CXuARAAARAAARAAARAAAS0JwC+1pImyQAAEQAAEQAAEQAAE4Je4B0AABEAABEAABEAABLQkAL/UkibKAgEQAAEQAAEQAAEQgF/iHgABEAABEAABEAABENCSAPxSS5ooCwRAAARAAARAAARAAH6JewAEQAAEQAAEQAAEQEBLAvBLLWmiLF0RiEajiqJE8AcCIHA9AvwLwp919cuAyoIACCiKAr/EbQACyROIRCLJn4wzQSDbCUAus72FUT8QuCEB+OUN0eANEGifAJfLqqqqffv2HTx48AD+QAAEEgiEw2FFUaCY7f+M4F0QyFYC8MtsbVnUq8sJXL58WVEUm82Wgz8QAIFrCDgcDj6ApMu/ivgAEACBzCMAv8y8NsEV9RAC3C8feuihnJycv/3bv73mf6/YAQI6JfDjH//4pz/9qcfjgV/2kB8zXCYIaE8Afqk9U5SoEwLcL0eOHMklYtiwYePGjRszZsyT+AMBXRIYM2bMM88886c//emWW27Jyclxu93wS538GKKaIHAtAfjltUywBwQ6RKCNX547d65Dp+EgEMhqAqtXr/6rv/or+GVWNzIqBwI3JwC/vDkjHAEC1yXQxi8PHjyoKMqlS5eu4A8EdEng4sWLiqKUlJT87Gc/g19e90cDO0FAPwTgl/ppa9RUYwJt/PLo0aPoDdQYMYrrUQSampoURXG73fDLHtVuuFgQ6BIC8MsuwYpC9UCgHb9UM0tH8QcCuiFwI7+8EQBkL9LD7yTqqFsC8EvdNj0qniqBdvwS/+NMFS7O74EEeEbYNvHLdvJftvNWD6w9LhkEQKAVAfhlKxx4AQIdJwC/7DgrHKkHAs3Nzdf2j7cjke28pQdcqCMIZDcB+GV2ty9q14UE2vHLq1evKoqydOnSnJycv/mbv/npT3/6s5/9jD//DH8gkKUE+B3+4x//mGfs+vGPf6ze9upXgE8tnzBhAu9Mh2J24S8UigaBbiUAv+xW/Pjwnkzgpn5ZWVmZk5PD5zroNNE2qg0C1yMwbtw4+GVP/vHDtYPAzQnAL2/OCEeAwHUJ3NQvFy9enJOTc8stt9x2223/9E//dNddd/0CfyCQ1QR+9atf3XrrrT/60Y9ycnJuvfXWX/7yl2p1f/WrXwmC8Nd//dc5OTnPPvss/PK6vyrYCQJZQwB+mTVNiYqkm0AH/TInJ2ft2rXpvjh8Hgh0E4EVK1bwTvAVK1a0uYSDBw8KgpCTk4P+8TZk8BIEso8A/DL72hQ1ShOBjvslXyjvwoULusy6jUrrhcClS5cURSktLeVjQkpLSyORyOXLl69cucJTr2/btu3OO++EX6bpFwofAwLdSgB+2a348eE9mUDH/dLv9yuKwif99OQa49pBoD0CN8p/qSgKf2vHjh29evWCX7YHEe+BQLYQgF9mS0uiHmknAL9MO3J8YEYTgF9mdPPg4kAgvQTgl+nljU/LIgLJ+SVPyBKNRvXSaYp66oYA7wTvSP/4+PHjL1682NTUdC2bq1evqt+RLPq1QFVAQHcE4Je6a3JUWCsCyfkllvbRij/KyUwCK1eu5PN7Vq5c2eYKDx48KIpiTk7O5MmT27zV5iXyYrYBgpcg0OMIwC97XJPhgjOFQHJ+yf/Hefr0aVmW//CHP/wWfyCQRQT+5V/+pVevXjw/Ua9evX73u9+plfv973+fm5vL1fMf/uEffvvb3ya++9vf/vYPf/hDnz59nn766XA4rCgKX20yU77tuA4QAIFOEoBfdhIYDgeBOIHk/JL/X/PYsWPXSzuNfSCQ/QS4fd6onnfffXdtbS38Mv4zg/+CQE8lAL/sqS2H6+52Aqn45ffff8+X9rnlllt+8pOf/Bh/IJAtBG655RbujrfccktinX7yk5+ob/3oRz9KfItv86xG/fr1q6urg192++8bLgAEUiQAv0wRIE7XL4HU/TInJ+f+++9XFOXSpUsR/IFADyfAM3CVlZVxUywrK1MUpbm5ORKJNDY2Koqyfft2np/oueee43uam5v5rPMTJ0788Y9/zMnJGTBgAPxSv7+qqHkWEYBfZlFjoirpJaCJXw4bNkxRFP7/2vRePj4NBDQmwMd+eDwe7pcej0f9AP7Wxx9/zP1y4sSJ6vBKPiL51KlTd999N/xSJYYNEOjpBOCXPb0Fcf3dRkATvxw6dKiiKJcvX47iDwR6OIEb5b+MRqPt5Ffnonny5En4Zbf9luGDQaALCMAvuwAqitQHAW39Uh/MUMtsJnAjv2x//R74ZTbfE6ibjgnAL3Xc+Kh6agTgl6nxw9nZRgB+mW0tivqAQAoE4JcpwMOp+iYAv9R3+6P2bQnAL9sSwWsQ0DEB+KWOGx9VT40A/DI1fjg72wjAL7OtRVEfEEiBAPwyBXg4Vd8E4Jf6bn/Uvi0B+GVbIngNAjomAL/UceOj6qkRgF+mxg9nZxsB+GW2tSjqAwIpEIBfpgAPp+qbAPxS3+2P2rclAL9sSwSvQUDHBOCXOm58VD01AvDL1Pjh7GwjAL/MthZFfUAgBQLwyxTg4VR9E4Bf6rv9Ufu2BOCXbYngNQjomAD8UseNj6qnRgB+mRo/nJ1tBOCX2daiqA8IpEAAfpkCPJyqbwLwS323P2rflgD8si0RvAYBHROAX+q48VH11AjAL1Pjh7OzjQD8MttaFPUBgRQIwC9TgIdT9U0Afqnv9kft2xKAX7YlgtcgoGMC8EsdNz6qnhoB+GVq/HB2thGAX2Zbi6I+IJACAfhlCvBwqr4JwC/13f6ofVsC8Mu2RPAaBHRMAH6p48ZH1VMjAL9MjR/OzjYC8Mtsa1HUBwRSIAC/TAEeTtU3AfilvtsftW9LAH7Zlgheg4COCcAvddz4qHpqBOCXqfHD2dlGAH6ZbS2K+oBACgTglynAw6n6JgC/1Hf7o/ZtCcAv2xLBaxDQMQH4pY4bH1VPjQD8MjV+ODvbCMAvs61FUR8QSIEA/DIFeDhV3wTgl/puf9S+LQH4ZVsieA0COiYAv9Rx46PqqRGAX6bGD2dnGwH4Zba1KOoDAikQgF+mAA+n6psA/FLf7Y/atyUAv2xLBK9BQMcE4Jc6bnxUPTUC8MvU+OHsbCMAv8y2FkV9QCAFAvDLFODhVH0TgF/qu/1R+7YE4JdtieA1COiYAPxSx42PqqdGAH6ZGj+cnW0E4JfZ1qKoDwikQAB+mQI8nKpvAvBLfbc/at+WAPyyLRG8BgEdE4Bf6rjxUfXUCMAvU+OHs7ONAPwy21oU9QGBFAjAL1OAh1P1TQB+qe/2R+3bEoBftiWC1yCgYwLwSx03PqqeGgH4ZWr8cHa2EYBfZluLoj4gkAIB+GUK8HCqvgnAL/Xd/qh9WwLwy7ZE8BoEdEwAfqnjxkfVUyMAv0yNH87ONgLwy2xrUdQHBFIgAL9MAR5O1TcB+KW+2x+1b0sAftmWCF6DgI4JwC913PioemoE4Jep8cPZ2UYAfpltLYr6gEAKBOCXKcDDqfomAL/Ud/uj9m0JwC/bEsFrENAxAfiljhsfVU+NAPwyNX44O9sIwC+zrUVRHxBIgQD8MgV4OFXfBOCX+m5/1L4tAfhlWyJ4DQI6JgC/1HHjo+qpEYBfpsYPZ2cbAfhltrUo6gMCKRCAX6YAD6fqmwD8stvbP8r+FIX/V8tnhRXa7RXsWRcAv+xZ7YWrBYEuJQC/7FK8KDybCcAvu7F1VZdUlGgkGm1ujmj1aGqORCJUPBSzs+0Lv+wsMRwPAllMAH6ZxY2LqnUtAfhl1/K9cemJ8se3b3xsku9wf4Vidgof/LJTuHAwCGQ3AfhldrcvateFBOCXXQj3ZkVzrYxEKMr4Q825omV7R0zaan3uLetzb1me7fyDTtxoefatoa9seaX00z1H6vjnJ4rsza4I7yvwS9wEIAACKgH4pYoCGyDQOQLwy87x0u7ouFxGFEU5VXv+0Rnvm2x+Id97631lt/VbdOt9ZZ193EYn0ll3DnDLNt+9Y9fu/rqGX28XxUe1g5FBJcEvM6gxcCkg0N0E4Jfd3QL4/B5LAH7ZLU2njrxsjpBf+jYe6jXAk2vz59rZw+ozWb1JPHJtvly7L9fuN9l8Qr57zJsfnLvYyCf5QDE72NDwyw6CwmEgoAcC8Es9tDLq2CUE4JddgvVmhcaDl9QzHmy4NGrKO7fdV9a3sFy2eiWLVxqyXBq2Rhq2WhreqccaaehKyeaXrV6TzW+y+X8/ctmxqgY+/hJ+ebM2ib0Pv+wgKBwGAnogAL/UQyujjl1CAH7ZJVg7UGg0Gm1mIy+/PdXQ7+n1Qr6nT2G5bPYYH39XmHVSmF8jzK82zK8Wrnm02dnyct4ZYUGNOOFzyV4uW30mm/+uwoovDlEXOeSyAw0SOwR+2XFWOBIEsp4A/DLrmxgV7CoC8MuuIttuuVz4Yn75Q/19T60T8j25dr9srxCmf2soDguOgOAMio6AyDecQdEZTNxD26330JGukDC/WnrwLTnfbbL7+xSW72JDMNWJ5O1eFN4kAvBL3AcgAAIqAfiligIbINA5AvDLzvHS9Gjul0fJL9cKZm9vu08atEyY8Z3BFTY4AgZnUCiuF0rqacMREGJ7wkJJveAMGvgeR1Aopj3qMcL8Gmn0ZtnsNtnL+xZW8Ck+8MuOtxv8suOscCQIZD0B+GXWNzEq2FUE4JddRbYD5V7HLwcvFd74Lha/dASE2aeEmSd4LDP2POcU9Z4X1QkseCk4A8Kc03RMUZ3gYBq6gPulx2Qv71NYgfhlB9qh1SHwy1Y48AIE9E0Afqnv9kftUyAAv0wBXqqntuOXFI+ce1oatUEaulJ443vq+HYEhHnVxke3SkOWCzO+NxSHqX98QY30+HvSkBXC9KMU7HTU0Z54/BJ+mUQLwS+TgIZTQCBbCcAvs7VlUa8uJwC/7HLEN/6Am/jl7B/kwkrZ4hVfO0yd4E4KZ0rD18j9S4XXDhuKqZdcmFctjVgr57vFVw8IpQ1CUS388sa8O/QO/LJDmHAQCOiDAPxSH+2MWnYBAfhlF0DtaJE38cs5p+Qhy+WCSnHaEcEVJpucUyU9sEEye4RpRw18D5/NY/MLk78WShqolxzxy47iv/5x8Mvrc8FeENAlAfilLpsdldaCAPxSC4pJlnFzvxy8VLZXkF/y+OWcKmnkeinfLUw7YnCx+OX8amnUBtnqEyYfZH6J+GWSbaGeBr9UUWADBEAAfol7AASSJAC/TBKcFqd10i95/BJ+qQX6G5cBv7wxG7wDArojAL/UXZOjwloRgF9qRTKJcuCXSUDr6lPgl11NGOWDQA8iAL/sQY2FS80sAvDLbmwP+GU3wr/RR8Mvb0QG+0FAhwTglzpsdFRZGwLwS204JlUK/DIpbF17Evyya/midBDoUQTglz2quXCxmUQAftmNrQG/7Eb4N/po+OWNyGA/COiQAPxSh42OKmtDAH6pDcekSumAXy67eX6iUW/JlJ+Izx9HfqKkWiLhJPhlAgxsgoDeCcAv9X4HoP5JE4BfJo0u9RNv4pezT8kFifnVgzy/usTzq1N+olAsv3peGfKrp94cvAT4pVYkUQ4IZAEB+GUWNCKq0D0E4Jfdwj0ajSqKchO/nHdGemiTNHKd8MZxvj6kYV618fH3jMNWC298b3Dx9SFrjWO2ScPXCNO/xfqQmjQl/FITjCgEBLKDAPwyO9oRtegGAjrxS+5zUfanKAp/2Q24Ez4yGo1e3y9nfGcoDguOgIEWHD8jzKmiDfYwOIOGuWeEuafpXWdQcAbpeX41HeMMCI4grSEZW7/HY7KXY/3xBN4d3YRfdpQUjgMBHRCAX+qgkVHFriGgB79kscKYW/L/RKPRSHc/otFoU3NEUZSjJ8P3jV0rmL25dp80eJkw4zuDK8SFksKWxeEWv3QEaI8rbp/cO+mYUOyYojphfrU0erNsdsMvk/vGwC+T44azQCArCcAvs7JZUal0EMh6v0yMWUYipHQR1TG7e6M5EvPLfk+tE/I9uXa/ZK8Qp39rKG2gUKUzqIYtafFxvofilIH4Nu2kmCUPZzoCQnG9YX6N9MB68kubH/HLJL5C8MskoOEUEMhWAvDLbG1Z1KvLCWS3XyZ2i7MoJvWNN16NnL/UmAmPhvNXIpHo19+H7nlyrWj25Bb4JbPHOHqz8Mb31Ovdqce8amFetTD3jHHcx5LNL1m88Mvkvjzwy+S44SwQyEoC8MusbFZUKh0EstgvVbnkHJuaI5/uPzOhaId94sa8cRvyxm/oP279gG599H96ff74Dfc8ufYXgypkm0+2+SSLVzJ7pEFLpaGrOvlYKQ1bJQ1ZLlt9stkjWX3wy+S+P/DL5LjhLBDISgLwy6xsVlQqHQSy2C/VeTxcNDfvPP6fj6zMtfkN+Z5eA9gjz9Or2x8DPIY8j2zz5dr95JdWn2zxyma3nJ/sw+KlQjLGL1XL5xvpuKdT+wz4ZWr8cDYIZBUB+GVWNScqk04CWeyXqtkoihI6ezlv/AbRTO6Va/OZbD6T1Wey+pN6sHNtvlyb32Tzy/TMS0uqQBu5ID1YUTG/pD3+pB5UlGTzZ4JfqvxVs4zvSecN3unPgl92GhlOAIHsJQC/zN62Rc26mEDW+2WEzaHZvPM47zI22byyxUsjFAcvlQYvS+ZRUEElsEBj7NnilQoXJ1PU4GXSwCWSlXWL82cLu7zkS1tKVkqX153jL9m8qVgSqMQ5VG0iyl18aydZPPwySXA4DQSykQD8MhtbFXVKC4Gs9kvymUiEMpmXrP5KttCQRHKvwsXic58Lbx6nvOVvHKeNTjxOCJMOGoet4opJfpnvphk5048Kb57oXGn8o18/Znz8XTnfTZZJQye9xoffFl47QqV14qridXnje+PT22V7ebfP74mHKgk+/+M5oa7dH38/U/4Lv8yUlsB1gEAGEIBfZkAj4BJ6JoGs9kuSG+6XRSv2UZexnSZWGx9/j+f34SnK1XQ/sZRAPCsQSwZ0vT0hQ3FYfGmPbPFI9nLywsHLhZknDQvP8XIoWxA9eOag+DPLKNQqxxA/xhEwlJ4V5lRJ96+komx+2V4uTDtqKKmP5yeiFEWx64zlJ2JJi+LbahXYBmXHNMw7I43awPJfdk9+Ih6wVMmfu9i4fU/VmcAF/v3g2aESApkZ97WBX2Zck+CCQKD7CMAvu489PrmHE8hqv6S24X7p4H5p80tWn/jUdrKxojrKSe4MCsVhvvpibMmc+B6esfy6x4iTDshWylUp55XR+o1zT1MJRXWkmK4wz39O22r+c5YR/Tp7iupoDfH51dKDb1FRrNf+5vnVi8Pkx4nlF4epRrSnm/Or8yRQXDEjkWgkEilZs1/I94yc/M6WnScazl+hFuHd57FVlNTBmZnyRYJfZkpL4DpAIAMIwC8zoBFwCT2TgA790jj2I4MzJDjqmGXWCrNPCQtquLFR1NBRR3vm13Bj4yaq7qEDXCHh1QM0jSbml2uFuacNxfUGVqBh7hl6MP+jc51BWuORVnSkfOkGFow0zKs2zD0de1kcJr8ctaHFL9+IrQ9Jvjj3tDCnKhZt5YFMKq2KBzVZCbH1Ibkc0yqR3b0+JBfGZrY00c79Z/702GqTzWe0eH87bMn4eTt2H6rh0s+9Xx2dmTnfHvhl5rQFrgQEup0A/LLbmwAX0FMJ6NEvn/qIHLGozuAKiS9/JQ1ZYZzwOckcd8dJB6XBy43PfMxDkgZXWJhySBq6ivYU8YVzQgLFL1W/ZPHL4noeOzQ+/DYNoOTRROaOxke2GB/aJMw5LRTXsw8NGx/danzwLfJOWnGH+2VC/JL5JbnpvDPSw5soPvrmcR5hNcyrNj7+vjR8tfDGcbowZ1BYUGt8cps0Yq0w/Vsq31EX98vuWR+SyyV3x/DZy2NnfWA0e3vb/b0Ly002v2D2/ucjq1a/f5T1jyt8+XVSTIplZso3CH6ZKS2B6wCBDCAAv8yARsAl9EwCuvbL4rA4bqd8r4tGZBbV0eBFV0icsEv+X4f04CbmiHU02vL5L6R+JcYHNwoLaukY5438MiDMrpLtFbK9QiiqJXcsqaexlQOXyDa/MPOkUNogFNUanEF50FLZ6hNmnaSPaMcvZ/9ApZk94tTDdJgzIMw+JQ1fLfcrEV47bCiup9PnVUvD18gDFgmvHuDld6NfqsFIHrxc9s6R3gWUKSnX7jeZPbk2X5+BFYY8z6/vX7xg+d668CVFUfiRMcPMDMWEX/bMXzJcNQh0CQH4ZZdgRaF6IKBrv3SFxOc+l/PLxLEfGlS/fOFLecAi6dGtMb90hcWX9koWj/GRLWSN7fvlnCppyHKa8UNjMYPkl3NPS0NXS4OWCbN+EEoaKH7pDErDVksDlwizf7iJX845JQ9ZLhcuFqcdocvbdRoAACAASURBVDGdziDZ6qgNksVLc4D4Hj5201YuTP6al99dfskjl9FolC+q/vV3wf95fLWQ7+lTWE7rCT34llRQaTK7ew+skKzUXT529offnmpQFKWJ9aSzKCYvo5u/dvDLbm4AfDwIZBIB+GUmtQaupUcR0LdfhsXnPpMHLBSf/KDFL5//Qu5XKj2ypcUvX9wr5ZdREqKb+uXcKkqrOWhZK7+8fyXZZKJf3r9SKlhMe9qPX845JQ9eKtsryC95/HJOlTRyvZTvFqYdMbhY/JKP3bT6hMkHmV/Wdpdf8inh3BCvXm2e7t11e7+yvoMqTfll1H0/p0qY/q00ZLkpvyzX7s+1+w15nuGTtp6qPZ8QxVSnlXfnVwh+2Z308dkgkGEE4JcZ1iC4nJ5DAH7Z1i9f+ELuf61fsiSXmvnlKqkwCb9k8csHMtQveed4hI2j3Huk7p4n14oWL/WPW7zipIOG0rOGknph1knj6LdNVm+u3Zdr993R3z1q6jvHz5zlM35YCaSY3fvtgV92L398OghkFAH4ZUY1By6mJxGAX8IvNblfuV8qinKlsblo+d5cG5vTY3YbH33HwEad0oT94rAw77RxzDY5382imL5eeZ7HZmw7XUfZMXneomg0tvCPJleVRCHwyySg4RQQyFYC8MtsbVnUq8sJwC/hl6nfZLxbnAcvT9WcMz+7gYKXNr9cWClMPURaGc/WSTP3nUHj0ztM+W6Tzd+7gCaVTyn77EpjM1fMbu8jh1+mfj+gBBDIGgLwy6xpSlQk3QTgl/DLFO85dWYP39jy6Qma1jOwwmRmgwrmnSGndARElg2UMoByxRy7XaZF0n29C/ySxbdk62F+GWppKV5V0qfDL5NGhxNBIPsIwC+zr01RozQRgF92zC+1nd+TVeMvE43wwqWrD732riHfwzMTiRO/oHnuLHgpOoOkmI4ATzIvzKdcniazO9de3rug/JcDK9/97CS/6RMLTNPXIOFj4JcJMLAJAnonAL/U+x2A+idNAH4p5y0Sn2ydn6j/QumRhPxEL+6VzB7j6A7kJ5pbJQ1Z1nb++NBV0qClreaPD10lFXYsP9HgZXJBZav8RA+sl8yeVvmJRm2g/Jqx+ePdkF+dj7zkUrj/WIASqhdU5JrLpPtXUmb44rBQVEdm6QqJrhCPYpJlusKUbmnkOjl/Ue/CCqPZa5+wkS9Trg7l5GUmfW8ndyL8MjluOAsEspIA/DIrmxWVSgcBXftlcUgcv1O+r1h8YltCfqLd8r0uia/BU8Tyq7/wpTRgIa3Bs4DlYG8nvzplU18sFy6mTOw8/+Wc0xI5YkU8vzrLfzl4uWwr70B+9VNy4WLZ6hNfi+dXn1MljVhL2dRfS8hPRIrmFiZ1Z351LoKRaLR0zf47+rv7DKqUByw0PvEu6woPiGxtJJF1i5Nl8o7yojpDaYMw7Qhlm7d4+xRW9C2sWLhmP0+f2Y2jMOGX6fjdwWeAQA8hAL/sIQ2Fy8w8Arr2S1dYfHGPVFgpjt9pYAMEyYde2S8VVBjHfkjJKZlfCpMOSoOWGp/8UCgKiM521u+po5XEH9ggPbAhNp2luJ7W13loI63xOKeK0q3TopRhWvVx+BpaMbL9/Jdzz0gPrJeGrhRmfB9fH/KM8ZEt8uBlwozvDK4widr8GuNj70r3LxcoRyaVn/78l2q48dyFxgcmbRXZgpCyzSe88pVQelZUg5fOoKqYLLdogJy+OCxO3C3b/CarT7L6/vTY6iMnw7RaJMtzhPhl5v1g4IpAQF8E4Jf6am/UVkMCGe6XqrskoRp8SWu+FrZjxT7Z6jPZ/LR4jLr+OFtfUXj9O2HuaVrv2xk0OIOG+dW0Z84p2uMI0PP8GjK8OVW0QmNsjfLE9cfXCnPZ2uKOOoMjKMw8Icw8SeWwoB2J5syTwpsneVGx2S2zfhDePE4HtKw/vkHOK5NsfmnwUnJHdcL1zBP00Xw1IF4mlXacrwNEF+MI0DpAb3xPud/5oucLaqTRm2Wzx2Qv71NYsfvrGh4LTAKgGkRsvxXUkg+fCP/Xo6tkmz/X7JaGrSFirHNciJtlbAhmPITJahGgJY4e2mSyeHPtfqPF9+z8Hdd+roY3/E2LQvzypohwAAjohwD8Uj9tjZpqTCCT/VIVF+43yT03N1O+7kS/FJ/aztyxjuTMFaJlu10hbnvxPWeF4nDrPQ0te5xB8dVEv1wnzK0SXGGRLJCtOV5SH4tfxgyyniKXDrLV2KMkzPYESBxdIYpxPvhWzC8HMb9kE65ZaQ1CSQM3XT4zhoKUpQ0xs1QNteUYFkMlv3Rzv/z8YLXql8kBTGyFa28+VT0VRXn3sxP/PHxpbkG5KX8RLemuWrLql65QrH88UTGLw8KrB6WCCtniMdn9dw2sOHAsGFNM/k+Eaz+1K/fAL7uSLsoGgR5GAH7ZwxoMl5s5BDLTL1VriUSjTU3NTc2R5kikuTmZB1/eumj5Xh6/lC1e4xPvs4w5ceHjXkjxSwpPktVdfw/TR0fQUBwWX9onm72kRPluachyiiCWnqWz6PQ6eqilOQOxPTycGfuIupaDSxoogDdslZxP8Uu5oFJ4/ZihOG6oRexIOpceBl5aq8tj5fM99LkhA1+R3EzZJe8aWPHZgWpaEzwpdHRWJNLUHGlqaubJz9XIYuINzAU0Go16Nhw02f25Np9s8YjPfS4sPCsW1SbGLGPze7hc8memyAZn0PjgRpktHWm0+CY6Po5Go5EI5dNU7TbxE7t0G37ZpXhROAj0LALwy57VXrjaDCKQsX55XZVJGlzJ6q9i/eMWrzR4qfjqfgONpGQd4p16doWEN47TrGeLV2JDBqV8Nwkry/LY6QJdIcOCGuNT26V8Ny9NtniMj70rzKkyuJK6PGfAOOFz2V4hWbwmm7/vwIovv6H+cU3+VI9MLI39S4Da6kpj85Syz0SLz2TzyoWLxVdpTUiu0eqwS/JLNXLJ0xU5g4aiOkNJvTj1sGyvMFm9ks33lyfXHjtVz0dhqv/SSPzQLt2GX3YpXhQOAj2LAPyyZ7UXrjaDCGSgXyZ6zJGT4Tf8u4a8tLlgwkb7xLfsEzcWdPJhn7hx0Iub/vjwSpPNJ9toEols9kj2CmnYamnEmmQehYupBKtPZn4pW7z0csgyacTazpe2VhqyXLJ4ua3Sc6y05UmWNnQVBUH55dn8Jpv/nifXDnx+U2ehFUzcaGePAkZvmmfXoeMhbvy8y1oNK5L/MROsP3flsRnvS1afyeKRhiwXp38bm2+kdo6zjZhisrnkMe90BERHnVDaYHxok8nslq3+Xw9ZvOLdo+qi5Nr+S+Om3z345U0R4QAQ0A8B+KV+2ho11ZhApvklFxc+KWfn/ur88Rtkm9cwwGPI8/TKcxvyPEKeV6Dnjj4Med5eeW7RTEvFmOw0v4cboZzvls2df7CzyAKtPtnmb1HMfHcyBfKzWChULZBdXlKlmdlZlpj7mtjliflewwA3w9VZbp5eeYTdkOeRrf77xq7b+tkJ7nyJtyDXy0gkWhO6UPj82xQkNrulEWtoVpMrRJmJuEq2lsvETnMaS7Cg1rDwrPj8F4SUIq++Fx2f0KCIWLc8D2K2PPMLaHnNutH5ncN3pqKk8MvE9sU2COicAPxS5zcAqp88gQz0S7aMdfRM4ML/jll7Z55btvpy7ZS/JqWHzS/baP44GSG3QytFDZN78OAllcYmpCdXSOwsq1e2Ule7TOHVuP5yCU7p8vw8XmtiqX9SQZdrL5etPiHPc/folcdONaiK2cbnqmrP3Tt2HUG2eKRRb/HsS7G06mpydd4/zp7ZENVYxiKaSuUMCm+ekIYsN1noXw6W595qOH+FRmEmWGRHNvk3gR1Jm0lMEIJfJv9rgjNBIOsIwC+zrklRoXQRyEC/5DNyyjcd6lNYTv2ttlhPNHVq2ys7/SiooC5jPlySd0Azv5QKKqSCJEqrbFVaXAQle3mSpdnLuWjS+Mv45Um2pEqzV9KUI+bNsdLo8jyk1PRWEpWt4AFaCv2yVphd+aWiKDysqN6hXDRPVp/7b5aciPzy4beFedWUloibJdtQe8ZbNlhOqFgvOWXurDU++JbJ6jXkef4wctkXh2jkaFNTs/pB7Wyw+UDRSIQe/E8dvtnZWCb8sh3OeAsE9EYAfqm3Fkd9NSOQgX7Z3BxRFGWGb5eJRfUo87bNb3xquzj5kDDlm04/pn4jTtglDVwqs45jCl4WVBqf2i5MPSRM6XyBU78RJ+7mgyZjM3LMbmnUBvGVr4SpSV3bqwekh96WzfH5PWYPJWN/aW8ypU35Rpj8tfGxdykOyvvcLV6psNL43GfilENJFChOOWQc97FkLzdZvCarz2j2jp/3EfllXOK4unG//P50wx9Hr5StbPTn6M2UNJSlrOcJiVqcUg1hMvVUU2PStH1nyDj2Qz4I9ZeDKpe/e1i9yyPRaOPVpouXr567cOXshSsN56+cvdB47mLjhUuNVxqb+GgK9WBFaSWaapw14YD2NuGX7dHBeyCgMwLwS501OKqrHYGM9cvpnl0UPLP5TGaP9PAmSjnupOyJQnFIcAWF4pChmG3zZxctb912T+ytkGHhOXHC53I+G5ho8UqPblVXg6RTEkqLlRAvzcA+JXYMK9/gChucIeOEXWSr9nLKTzRoiTDjGM2VZuXQFba9kvhls+thpdGH8mLpxJknpMHLqSjqcC8XpxwylNTzj2alsSOvOZdfatvSiutpUe8R69gUH79sdtPSRKVnKR+TCopvxF7Gr0QtXwXCJ7CXNkiPbpXzy0w2n2j2jJ31Ac92FI8RUgc0F7jvqhr++PBKGkBp9kod8Ut1LrmaqMgVFl/4UraSy0pW38Sij4+fPrv5kxNLthx2rtz3mvvz5xbsGPPmttHT3h015Z2HXnv3sRnvj5+3fdLCT4uW71229fBHe6qOnAyHGi4nfjnUiGbHo5jwy0SA2AYBnROAX+r8BkD1kyeQ4X5Js17yy4zP7BBKGkRa1JulKHeGYsnG1YzlzhAN4FNfsmBYS0pzV0iY+o1kpaienLB+DyuExLRtaWxKCs+vHnsrYQ+tJDnpoGz1S/YKOW+RNHI9rd/jCiVkzWTL6qgXw3qB1WuLjTWMJ9pk6wNVSw9uvH5+dTo3lvs9diWt97CwH3Nr/nGx9SG3xKaQmz3ipIOCK6x+Oq9sy0vHNeXH0dF1Lqg1lDYYn/1MzqdsmqLZO3bWh2r/ONdK3g2tKMrJ6nP/9cgqGu5p8Xa0f5y5eCyE6QgYXGFh6mHJTiNlZZvvl4Mqf3P/4tv7uf/+Lwt/fu+i2+4ru6O/u9cAT688ryHf2yufph/dOcB9e7+yf7x30T/es8iQ5/nXUcsenv5e8aqvtu3+4diphstXmvgXg6fvVBWz/UGZ8Mvkf01wJghkHQH4ZdY1KSqULgIZ65fTPKx/3OKT8920omNpg8FRRzZWVCfMO00BSLY6ImlQUR0ZXlEtX5UxttrNvDMGdU9xWJj8NZ85Lll94tiPDGSobDlHOrfKsICdSwnMKR0j21PDy2HPdbTU4QJagJEOcIWEVuv30PqQhuJ6fnmGedX04NfG12+cXy3MryY75C/ZEpSUL5MpJsVl51dLo66zPiRVbd4ZKtwRYI+gwRkwzKumnbw0Z4BWpFxQQ9WPfWIgvv44C9aaPZTpk66NLXRZVEulFRHG2B4HR0couPgaHIQ3BrOo1lB61jh+Z4Jfbm/jl2r8sqr2fL+n2Pwes0catYHWNEocf6l2i7fZUIdgkl9SblG5cDGf6W+yl+cWVPYZWHnX4MV3Da7sW1jet9Dfx+brbfXyRx+bt2+Bv29h+V2D6JjehZWyvfzOAe6f37OoT2GFefxbkxd+umH7sergBT4niY+7iA3PvLFjwi/T9duDzwGBHkAAftkDGgmXmJkEeoJflhmfJr+kJbaL64Uph43D14ivfBVb5KY4LE79Rhq5Tpy4y1DCjik9K7z+nXHEGvGFL9k6PQFaqHDKoVhmooT4pcEVEl/dLw1fIz7/RcyunEFhytfGYauM43dSQLSojgXVvpFGrDOO2ykUsfXHnSFhUpv1IWPrjwvza4yPvmN8dCstt8PXFl9QY3z8PeMjW9ga5WFWYMj4+PvG0ZtJE53s2sgv4+tDDl4qvEHrj5N9zqs2PrLV+NBGw8wT1PnuCBjmV4tPfiA9sEF48wRdGMvsY3x6O/nc68fYeox11/jlAYLmpE528eV90vDVwtTDQkkDxSZLGsQXvyR0k7+mYxwBQjrpoHHYKuGV/VQaxS/PGsd/2q5fxgyzNnRp4Atvs/EMbmk4y0/kZPmJeGaiNvmJEi0zPgeIqjOnShqyguKXVp8p323KW2TqXyr3K5UHLKRkUjY/LdFuZxOzCippFhQN9/TSu/1KTAMW9ra4+xT47xpUaSqo6JXnEc3e341YOmLS1g3bv+PfPj51TA1kXvcrCb+8LhbsBAF9EoBf6rPdUWsNCPQUvxRKG8SiWuolf+FL+S9F4tM7aNEXR4AW435+t9yvxPjIFhpnuaBGWHie+q/vcRrHbCO/dAZv6JfFYXH8TvneYuMT71EQlI04FCfuku9xSA9tivllMQ0KlPqVGh/aRIJLx9zILwPC7Cq5oFIuqKAj+Vrkc09Lg5ZKNj/lg2SKbHAGpUFLKePPrJOxa7uRX84+JRdUyGaP8NphqoKTypeGr5b7lwqvHTa4yBpp7fIRa+W8MvHVA2SNRbU39st649MfEboXvhQWnhPnVwsLzxufeF++r1h47nPC6wiQcT77menP88XxnwrFYRqQ0AG/5LrWcP7KmJkf8Pzq8uDlwrSj1Fh8zUw2wpJyXiZqZXybuuzZWyTB86qlQcuoc7+gUhq6yjjqLfHx98RxH4sTd4uvfCVOPSROPyrO+C72mP6tOPUb8dUD9O7TH0mPbpVGrJELK00Wj8ns7m339RlYYbL77+jv/uWgymmeXadqz/FLpZ59xC81+PFAESCQ/QTgl9nfxqhhFxHoKX5piPllvfDSXrn/QnH8pxSt5A73wh7J7DE+/h7l6F5QKyw8J0w+JOeVUa96+37pConPfS7nl4ljP1Rn/JC/DlgkPbKV7M1B8Uvxpb2SxWN8ZGvcQW/slxR+Wy4NXk5HOoJCST2tLT50lTRomTDrB+Z/1DctDV0tDVxCq5Zz972RX845JQ9ZJhdUitOO0BhKHt4btUGyeIVpR2PxS77auK1cmHyQl9+eX477RO5fKr60Tyg9J86vMSw8Zxy7neYATdxN7sv9cuIuU78SccIu7pcdiV9yaWu82jzdu8to8eVafXJBhfjyV3z9ce6ON5JLMk61i5wGJ9QaJ+4WX9xDSv3mSWFeNfXjl9QbShqouUvP0lyl0gahpCG2UXqWv0U0impJ2aceFp/fbXz8XWnwMlrQ3OrtM7DCaPEZLb6hL2/mq2Wqk5Ou+51C/PK6WLATBPRJAH6pz3ZHrTUg0CP9sl8JTYtu8csvySZb+eXXcv9S49jtN/PLsPjcZ/KAheKTHyT45Rdyv1LpkS0tfvniXim/jHq0bxq/nFslDV5KNpnol/evJJtM9Mv7V0qFi2nPTf1y8FLZXkF+yeOXc6qkkeulfLcw7UgsfsnHblp9cb9sN375zMfyfcXii3tZ/JL55ZMfynmLxIm7Wvxywi7TfS7xuc877pcsFEiLRC7dcrhvYXmu3U9DZp/5WFhI64+r+tiOYrbEL/lIU5pcX0+DBKjW6rStOoqGFtUZimiD2ottMNQsPTtN2w/Tic4gDXh984Q4YZc8aJkp351r9/cu8Pca4Bny8ubTdefVFPHX/f7AL6+LBTtBQJ8E4Jf6bHfUWgMCWeKX+df65cLk/bL/tX7p1tQvVyXll2x44gMp+mUJ+aUav0zZLxPHMu7cf+YPI5flFpab8sukhzYxZQ/S2uLx7u/r9o/z/Or8mY+CjU1vZ3FNOjfhQbqZ8Gj7ljpnP+aaYWH2D9Kj78gWz12DKm67r+zJWR+cvXCF/BL94xr8eKAIEMh+AvDL7G9j1LCLCGSvX6YQv4Rfdi5+SR3OiqJUBy+Yx2+QbP5cq0curBSnfhMbNZswg+e6iqkKKLfJmFMmDtDkmYzie9RCaOxm/MG72mPhUiaaPHptfOojOd/dd1Dlz+9dtGwr5Wznq5rf6AuF+OWNyGA/COiQAPxSh42OKmtDAH55nf5x+GWH/bJlxoyiXG2KTC37/M4B7t4Dy015i4xjPzSUUOpNmoaVqJjXm+jDFZOimEwi+aQfHqrkyqiqZ5v4Zatj+Ok8wEkpmULCG99LQ1b0ttPC7v/+0Ip9R+t4fqV2vjzwy3bg4C0Q0BsB+KXeWhz11YwA/BJ+mcr4S+aXtIQPD2F+uv/MHf3dfQdWmPLd0v0rhTeP8zRSYrtrRXK5bCuOfNb5NTFLNXjZaiO+2mRMTFk2TYMrZBy7neaSF1YY8rwTFuw4f7GRd47Hk8Nf53sEv7wOFOwCAb0SgF/qteVR75QJwC+7wy+Tm9+j3fhLyk+kzfwe9Qbkxnbx8tVRU98V8r19Cstli1d89lODK7b+EJ/fw/2vlRp20CBvfFiLnsZno9Osc0qV+o1so/lGRov3Px5a8c5nJ/nMHtWG1YtP3IBfJtLANgjonAD8Uuc3AKqfPIGe6ZelreeP76EJy63mjx+SByzsQH4iNn88b6H4ZOv8RNQ/npCf6MW9ktltHL2lY/PHl7WdPz50lTRwaav540PZ/J6O5CcafE1+ogfWS2ZPq/xEozbIVn98/ng7+dXrjeM+kfuViC8m5if6kNIzJc4fp/xExR2fP87vPG5sXDG37f4h117eu7Ai1+JlidZP0OR3NiAy1v19vf7x5I0zcfKQ2jPuCgkzT0qDl5msZLq98twTi3ZcYstFti+XiqLAL5P/NcGZIJB1BOCXWdekqFC6CPQ4vxRf3ENJdsZ9Es9P1CC88IU8YJHxsXcp4SLlvzwvTPqaMq6P/fBm+YlC4rOfUkrIMdti+YmcIfH5L+T7Smi2uJr/8sU9Ul6Z8eG3b+6Xc6qkQUvkgUvoSJ7/cs5pachyubAynl+d5b8csoJysN80v/qcU/LAJbKtXFTzq1N+onVSXpnwWkJ+ogfWUaRwEs9/eZP8RKZ7XQn5ic4bx3wgD1goTKD86rH8l899brrHKT73WQfzE6n94+qk7ED9xQemvtMrz9O7sJySa477WO2zVkOYfCN5p+SxzLhZtsQveTIjtvCS9MhWOb+sd0F5rwHuu0evPPBtgNyxOZJ4wdf9ksEvr4sFO0FAnwTgl/psd9RaAwI9wS/dxqd3tORXf2W/bPGJE3fTYjO0BmO98Mp+qaDS+NR2Q+lZWiV84TnxtcOS1WccvzOWQPGG60OGySZtPvGZHSwzDq3NI768T7Z4jU+8T2kU2fqQIpVfYRzzPsvm2M76PXXC3DPS8DXSsDWxpIzF9cK8M5SxctgqYfYpSrdOS6KHpAfWS/evoDXN289/OZet1jNomTDjGCmaI2CYe9r48NtSQaXw+jFK/E6JHmukR7bIAxcLr33Dym83fvnc52Sir+4nEZ9fw9bm2SnZy8WX9ghsMSS2YuQe2ewRn/+iY35JIUs1eBmNRiORaOPV5rd2fPdvD64w2fy5Np9srxAmf01Z0Jn8cafkRpi8X8bNkggkzOmhRmSLMBmf+ZgvYi5bvb8aUrl48zcKTT9qTpyNdKMvD/zyRmSwHwR0SAB+qcNGR5W1IdBdfsn7UhPVRN1uZkGmaZ5dJqtPtvjkfFqJhy1gSMszCnNPi5MPCbNPUWySJiazPVO+EWae5EP9aP+8M+KUQ8KskzSDmDto4vrjY9m6PkUUShRmn6LVt2eeEJwBesnWyKE9bxznPkTPc09TaW98b3DQAVTmq4nrj68V5p6mtN6OOvKbaUfFaUcNziBP5Whw1AnTvxWmHSFVZTvp8qYfE187QhFTvkY5z5GeV0aLaw9eKsyg9ccp/FlUR6ssTv1GWFDDgqlBKu31Y8KUb4T5NbGrdQSEGd+xPdXsmMA16/fsp5GIvHZU2UPC3CrCyNbDFGadoqpx02VzYoQ5VeKUr8mGnaGbrg/JmywSjTZHIk3NkeZmylKkKMp3VQ0FEzeJZk/vQlrfUhq6iglxyMAzWcYXhEzSLxOmotNkc1Ym1Z2tRWlwBmlRIpvPZPPlFvhlm/81z+dNTZFIJHZ/3fRrA7+8KSIcAAL6IQC/1E9bo6YaE+gWv1Tl8trKRJmsKIoyPdEvabVxWlybRxlpIcT4rBGmmEG2JzbIL2EPk0sSqbAw5ZBk88sWr2Tzi099xNyR6aArRIsNusJUcmzxGNojFLfsIRsrqRfUY5xBYdIB2eqX7BVyXpk0cp0w9zR9BPlNgMYaxocb0pVwuy1ha4Xzl9wpS9jKNFzy5lVLozZSUTY/jd2c8V1MnR1Bis6WsAVpYpfH9zSQ5rYqLRYdpI9bUCON3kxWZ/VRJPLVA3Rt/GBWWTJy8nJ2ba4wh8kPoDL5MRzvglpDaYNx/Kdyvttk84tm75OztkdphCLpWnMkyp2StyafOnOq5lz5xkNDX93ym/uXmGx+k90v28tpPc9nP+V2HusiT3YIZktXOJfU+IBLFmkOGRbUshUvPSarN9fuF/I9o157tzp4QVHIgDsSvMT4y2u/ktgDAnomAL/Uc+uj7ikRSL9fJsol61Gl0Bc9mpr540pjk6JEX3N/Llt9JEmxtXnOkcDFpIo2YgG82PqB7C1uG232FNXRuuSvfEVyafHJVq9xzLaYYyWURgEwVVYcNy7NETS4Yn3o5Jf5bmnoStb33SAsoIVqBDqXbbQqkCWAbNkTP8ZRR3rHetVjflnI+r6L61sUMOFimBYH2EckFEi1YGrL00zOr5Ye2iib3cwv3eKLewxsnUZ2bTc4l59IoVm+GGOcc1EtW6P8wxa/nPkh08pYnJLfeTXBi3sO1y3Zcvilbn8EIQAAIABJREFU4p1549b3LSy/7b5FksVnspebLB7ZXm58+iNhThWFb5OLXyb2hnOGbPyl2l5stnhYmHlCeuxdk9UrW325dn+vPM+Ql94+dqpBTXipenD7XxjEL9vng3dBQFcE4Je6am5UVksCafZLtRM8qii8y/JGlZld+YVs9ck2CsJJhYvFKd9wQen8c0iY9YNxxNqYclm80pAV1APOBup1ujRXSJh90jjqLdlCAUIeI6SFKBfUGJzU/9u5hytkKKozjvtEMntjpVk8xjEfGOadob7+zpbmDJD7vvClVFBJMk2jCzw09PNN6utP7iFM/1YatFQ2e0xWil+Om7tdUZTw2ctHToTe/vj7Bcv3Pj17++AXN//P46t/PaRStvru7E9e26ewgsY25C2SHlgnTv7aUFRHK4MzeeVTyEkNEx0xYQVI3t8de04IUqqp19URnCzeXEegXCHxpT3y0JX0oTZf74JyId8zcvLWE2dILiMRsuHEf9Xc6Jbj++GX7fPBuyCgKwLwS101NyqrJYG0+SU3S/Y/+tj/6xUlerU5svtQTfGq/S+X7Hze+ckLzk+ed3wyoejjl1yf9Ht6fcwvWT8v9R0PWy2NWCeNWMue13Xgea00nB1fWCmZPTJFtph1mT2SvYIm4oxYJw3veGnsE0eukwYukSweujbulxQW9UqDl8evp5MF3r9Csni5DsY2yICX0zxxqmyHH8PX0ilDV0pWNgwgfm1k5wWVscp2Ch3BWSMV0ABK2eKl6TI2378+sNw+YePdD6/8/Yilvx5SmWv3i/leo5keIjmojyb0WLwUix20hNIeza+JiTILFbd0jqshyXhWS+qXv/GD5JIctCVqy3Q5YCipF+ZWSY+/R33xFo9s85rs5MH3v7zlVM15tUOc7j02Dakj3xz4ZUco4RgQ0AkB+KVOGhrV1J5AGv0ydvHcLs9daFzx3pHC5zf9YmBF7wJavq/NQ7bS6D2T3U9myRRTNrvl/M4/zG46kZdPRfmpl9zsSaYo/ulmDwml1ccvjDYs3uQLVEuLF0h+lkQ11VNYYFW20dQWjpSuLXl0LExr88t2f67dL1t8vfI8hjyPYPYaLdQTbaKHN9fioU+x+qTBS42j3xZf2EMTsIrDfMYVH9UQm+vNp+PwROhcKJ2xOTqtIpfXRDRpnUnWOc4DljSXf8Yx49M75CErTKS2XpON8qj/09DFUxZ9Whu6kCCXfIZ7R7878MuOksJxIKADAvBLHTQyqtg1BNLml0qUuil5Z2Vd6OLYWR/cNbCCBMhM0TvZwoJkFq+JP6xsw+ql4XQsvEf6wjeSe048nbZTKI10rfXpbV529goTT7+28M6Vxq8t4fISC+9cUYx8/HQSOGoUT+xh9piYuJNqFyyWRqw1PvmB8PI+YeYJA8vBRLPs45OQYmHLxM5uZoo8KsnmbMXSDMWGVMYGqsYjmmzKFM3Qp2GpQWHWD+KLe2gO08AlFFhlsVWjxWM0e/uNXbfuw2OJU3nYTcf/RdPR7w/8sqOkcBwI6IAA/FIHjYwqdg2B9PilOuwyEo1evHz1gSlbb+9XlssmdJuSkB6c0i0ErF4aDmv3ywUV1IP/4EZp7IfiK/uFWT8YSuppFlFxmKals7GerDs7GBsrGYtTBtV0lbHxl7HpRCzrE403ZUNOXTSDio8WpR5zfsz8anHG9+ILXxof3iTby00DFposbpZ+yCeavb0Lyu8aWD5m5rbTda37xJOwS6zf0zW/MygVBHooAfhlD204XHb3E0iPX/LOSh68dKzY94tBlZSh0OqV7X7p4U3ihF3iK/vFVw7gkdEEJh0UXzsivHGc8n3SlJ16SmjPckXF5/WTXLZMzeF2mNAhTrrJX8afaeq3Myi+tNf4+HviUx+Kz3wsjvtEHLdTfOYT8amPxCfeM47ebByxhocq5bxFuRZ3b7u/T2G5yebvlUdzif7tweVjZ324/ctT/LukzuZhQctW89w7+GVD/LKDoHAYCOiBAPxSD62MOnYJgfT4JV/ZRVGUk9VnC1/YJOR7cu0+ylwz/lNhQQ0N1Cupp1yPeGQ+AVc4lt2pqI7yvTsCYnxkZCw5ZetoJe8cV1Op85Ak7xmnCeCukDCnSnpgvZy3SDa7aSQlf1hoI9fszrW4c62e3nZf7wJ/bkG5TFrp+cf/XZhr8/d7ev2k0p3vfn7y7PkrfOhFJCFg2blO8YTvFvwyAQY2QUDvBOCXer8DUP+kCaTNL/nSzxs//v6fhy8x0qQQj/ToVgpfOdiyNI460hQ8egqBeACSByx5sqH4LG/q746FKuPTw1W/5F3kfKYOJUUvqRcnfy0VLqGpQvZyPiGJntnkJNHiE/K9Qr7XkO8RLV7R7P3loMo/P75m9PT3PBsOflfVoCgsQsly8nOhTHxO7ksBv0yOG84CgawkAL/MymZFpdJBIG1+ebWJFlBxrth35wA3BaIsHvGlfTRdI565pp30NHgrMwlwa+SLNPKpOTHFvFYr+Z6EaT283Sl15VPbKX+73d+7oPy3w5f8/oFlvx+59P99YNm/P7j87tEr//zEGvuEjaOmvvNc0Y7ZlV+u3XbswLFAhC3GwxOnNzfTyo/qbPHUvzPwy9QZogQQyBoC8MusaUpUJN0E0uiXzYqivO7d9X/+XNpnYKVs9YpTDvEpHYkxrdjoPRYew3bGEoiFLbkvxq2xTVd4S8wyQTdjfejOII3gLGkQ3jwh3b+SpqLbyv911HL/xkObPznx1o7vNn9y/N3PT+7YW7X7UM3RH+qrgxfOXqBOcP4XiUSvNjVzs4xltowrZvyQ5P8Lv0yeHc4EgawjAL/MuiZFhdJFIM1+Od2j+qWP/JJPAYk/d0RQrmst2NkjCPBp4zzSSYMvSxqMz31myi/rU1huyPc8OevDS1ea2rnxIxFaR1QNWCbGLJMebXntx8Evr2WCPSCgWwLwS902PSqeKoE0++Ub/t1//5eFFL+0eGnlQGaW6ri9HiFJuMgkCfAhmzyzuiNAyYzmVkkj15vyyvoOrLi9n3v99u/4NJ3m5khzhDwythGJRiJR6gW/5o8rZqrfgdbnwy9b88ArENA1AfilrpsflU+FQBr9ksZfzq788tZ7y/oUMr+cdDDWPx63zCTFJaH7FSVkLIG2M8eLw+LL+2i5cLvfaPENeGbDmUDiojvMJWk5Ubq7E8WyK5wy8RsEv0ykgW0Q0DkB+KXObwBUP3kCafbLouX77ujv6V1YQfN7Xt5viA/di804hilmLwHeOU5DIBwBcs0FNcbH35Xzy/oOrvz/8w0tf+cIv4kTVVLd7mqnTPz+wC8TaWAbBHROAH6p8xsA1U+eQJr9snTNfpb8slw2e8SX9lJu7XZy2WSvbGVslLGLLiwml3ygrSNgKA4L047KQ5b3tvlEi+9Pj68+fuasunyohoMpk/hiwC+TgIZTQCBbCcAvs7VlUa8uJ5Bmvyx/+1DvAr+JVob0iM/vRvyyi3wu04pVM2LStB62gKTxmY9ls7tPYYXR4n3Tv/tKI6UXUDMNdfl9f+MPgF/emA3eAQHdEYBf6q7JUWGtCKTNL3l+9VXvHf3V4ErZ5jeZPcZnP+NTiUmGeBQTAcusJJAwCkJw1BlKwsKcKnnw8lyrV7L5/jh65Ud7qih4Ge8O1+reTq4c+GVy3HAWCGQlAfhlVjYrKpUOAmn2y7c/Of674cto/R6Lx/jUR5Rk2xkUXNRLjiGYmRZ01OZ6qH1DvHHZauMBgytsnLjblLeoz8DKOwe4x7z5QfjsZdUv03HTt/sZ8Mt28eBNENAXAfilvtobtdWQQJr98qM9Vf/24ArR7CW/fGIbrV7NIpeQS21kLjPDn0wx6Z8QfOTlrB+kwctyrd7cgvK+heV8Zk8kFr2MdZFreId3tij4ZWeJ4XgQyGIC8MssblxUrWsJpM0vm5spP9Geb2r/+5FVvfI8uVav8ZEtwoI6tYscipmFisnC0ryJ2cjLgOAKGifukil4WXHrfYuGv7qlLnyJz+zhS/B07e3egdLhlx2AhENAQC8E4Jd6aWnUU3MC6fPLCGUy/O5Uw4CnN9wxgPxSGrVBWFDD+kyDN1m3OjPDcriqjhBoCV4GaTrX7FPyiLUmq1ey+nLt5SvePaooCl+bng2/1PwG73SB8MtOI8MJIJC9BOCX2du2qFkXE0iPX6qpZ2rDl4a8tKXXAE+uzScNXSXMPcOHYMIvszB4ybMR8QV7aM54wOAMxXKqF/h75XmGv7qlJkQ51SPs3x7dm5ZI/Z7BL1UU2AABEIBf4h4AgSQJpMcvo1Fa4k9RlHMXGh+fsU00e3PtPnnQMmHmSeoWj4e4MIs8qywzoWXZvyICBkdQGrnOZPEarb5fDKrwbDioKEpTcyQa7f5hl+r3B36posAGCIAA/BL3AAgkSSA9fqnODr7c2PSC8+Ncu99k88n2cmH6twYe31KfO9LlimN6AgF12jiNv6QFx+vFF/fIZo/J5hfMnoKJG7/9oV5RFNLL+F+SN7Gmp8EvNcWJwkCgZxOAX/bs9sPVdyOBtPklD2FGo9E3K77oXVAuW32yxSu+eoC0g80iF5AFsydYY4cirPGANG9TmtnjCglzTstDlpmsHqPVd9fAipI1+5lcxueNd+N3oPVHwy9b88ArENA1AfilrpsflU+FQDr9kk8h92z4+heDKowWHy0ROX6nobRBcNAscgzB7JC69QQHjWllvE15WiLjMztMFk+u3X9bv7K/jFnLcl7SqIlMWLMn8RsEv0ykgW0Q0DkB+KXObwBUP3kC6fRLvoTP5k+O/2HkMsniy7V4jI++I5Q0CEXwy1DWyGViQlPBGeT5AYQ3T0hDVpgsXsnivWtg+eIth9m08diakBkys4d/i+CXyf+a4EwQyDoC8Musa1JUKF0E0umXsRSYR2r/d8xa8kurRxq2OrYEebxHNXs0qycEGruINluTidb8pGGXjjpDcdj49A6T1W+yegWzd8SkrVeuNEfiGdVZ2st03e4d+Bz4ZQcg4RAQ0AsB+KVeWhr11JxAOv2STyGvqjtf+PwmmkJu88r2CmFOVeJEEEwh7yLnS1Ox8YTqfLSDoajOUFwvvHFcGrTUZPbINv9v7l+yccf3NPKS5dvPqMgl/3LBLzX/kUGBINBzCcAve27b4cq7mUA6/TIajVLYKhJ94o1tvQa4TTa/yeoRJx0wlNTTQpHxVarTZEKdjC+qI0TVBYdEV5A9aHFt9d3MvPg0XVU8CN0yrYfN7JEe2WIyu2WbT7b5HpvxfsP5RjV22c13//U+Hn55PSrYBwI6JQC/1GnDo9qpE0ibXyoK5TjkQzDnLt5D+YmsPpPZbXzqI6G4ng/BVEUtTT7UYcVU9ZFv0OWRU/JBkzQzicuxev0th3X4IzKtyp2+nkS55HyK6gyuMOUkspWbLN7cAv+vh1Tu2FvF74RMm9ajfpXglyoKbIAACMAvcQ+AQJIE0uaX3Ce4X77z2cl/HrpEtHgp1fbIdTQEMzFFEZt33Gm/6TKTU+WSJJIFWSVXUC4OmUpCcjE9pHggU7XMDI/FdgXbWMyStwJrUIMrLMw8KQ1fI1s8uYXlt/crm+7dpcolT3mZ5F3blafBL7uSLsoGgR5GAH7ZwxoMl5s5BNLsl5FIRFGU03Xn7x69slceWyVy4GJhdlVi5I9MJcMeqmIaXUHJFbx1QeAf5gVuXRD4+XzauG1BwMgUUz1Mz/FLPq3H4KgzuELG8Ttlq9dk80k23/88vibUcCnRLzPnW5B4JfDLRBrYBgGdE4Bf6vwGQPWTJ5A2v1TFopkp5vBJWw15HtnmlW1+cfLXFOvKvBCm6os8Hml0Be8oIqH8y5LwU++ce3X7+Vc+PP/ElrP/WRH++fyAga4/oJqlupFprtwV15M4Q0twBmhaT0mDMP2oPHgZz3n5q8GVq7d9y+4BGiaRgdN61K8Q/FJFgQ0QAAH4Je4BEEiSQNr8UrWKq02U9XDu4i9z7X6j1StbveK4T4Ri8stEn+sKDUqizBZNdAZ/Pj/QtyRYvv/S0WBTw+XmC1eaLzZGQpeavwlcnb/rglxM9snGZbbM+0niE3veKXydcZ5N3RUy0FKQYWFetfHBjXJ+WZ+BFUar98mZH9Sfu6z+G0NRaDH6zPyDX2Zmu+CqQKBbCMAvuwU7PjQbCKTNL7lb8CUBFUX5eN/p3wxdIpq9JovHOHozBS8pyzrzs4yZSK76ruAM3lkUuLsivP1EI3Mj6uWP/0VpTzS68tDlviWkmOpZPc8Ukx2WwIc00CAHR8DgDBqcIXHcTjlvUW5Bucnu/839iz/df6ZFLjM6fKnAL+M3Nv4LAiCgwC9xE4BAkgTS6ZcthqEoteGLA57ZYGR+KQ1dKcz6gaZjsxBmq5kiyRqPJm6nmqLgDPyiNLT52ytsEnz04pWrH+877Vl/4J3PTly60tQcibJxpdHKA5dMxWSi6omaXEbmFpI4Z5zLJbVgSJxyiBJeWrx9CiuMZu+itQf43Zmxc8YTvzzwy0Qa2AYBnROAX+r8BkD1kyeQTr/kXeQ8C+aVxqZx8z4y2fyyxSsVVIiTDhpKzwpFtZllZiyxpak49H/PqRu79dzFxoiiRC9evjqr4ovfDluSa/NPXvjplcamSCTC83pevBp5aNPZ2xcEDA7dLKfOFZMnJGLZLoX51cZRb5ksnj4DK2/v537k9ffrz11RFCXCFurJ5JGX/FsEv0z+1wRngkDWEYBfZl2TokLpIpBOv1Tjl3whH+9bX/ctLJetPpllwTSUXRCKauPjFylpebfH7fg1yMXBv5tdt+047xlXVrx35I7+ZSabT8j3TCrdefVqM+vvjTbRvKXomm8uG12xdOs8+3q316KLLoDg8NV62HgG1jMeojnjz3xsynfnFpSLZs+fn1iz++sakkuyy9i/L9J1ayf5OfDLJMHhNBDIRgLwy2xsVdQpLQTS7JeqYiqKsvtQzb89uEK2+01mtzRyLQ9e0uwQPlOE6UsXuVEHixWcQaMrdHtR8J/KQicamhRFuXjp6j1Prrmzf1nvAr+Q5/7TY6vXfHDsyMnw7kM1DSxK9+WZq79x8xV9Mi7LUgdr3aHD1DZSI5fOIGVTf2kvpVK3+2Wbr09hedm6ntQzzr9w8Mu0/PDgQ0CgZxCAX/aMdsJVZiCBNPslC2FRIEuJKucuNBY+v8lo8ZmsXtnuF1/Zbyg9a6BZPrHO5W5PhCk4g1Jx6OfzA/9VGa45T9PeTwfO/2JQhdHiNVlp/SEx3/OrwRW/H7m04PlNR06GFUX5uu7qv/rCLLYXytr4JesTb2mmWDb1kPD6MRp2afX2KSy/7b6yJ97c1nChMRa8jEUvM/Ab0PaS4JdtieA1COiYAPxSx42PqqdGIM1+yS6WctPwcXiOFXvFfI/J7jflLZJGbzYU1xsczC/5it7dHcLkfnnbgsAffKGqcxS/PHv+yr+OWi7keXrb/dSzb/XdNbDckOcZ/NLbP9ScUxRlX03j7zxq5373d/F3KBjZqUlUbeb0OIMGmjMeEuZVSw9t5NkuhTxP/vgNx07VK4rCV2zK/GGX6tcIfqmiwAYIgAD8EvcACCRJIP1+qQ7EUxTl8InwLwdWmAoqTPll0uBlwswTBkqE2TqE2X0DMXmIzugK3rYg8PlpGn8ZjUZf9+76+T2LTDbfXQMrfjGwQrb6/vGehbMrv7jc2BSNRrccu5JbrI6/zLou8mvkMpaQyBGUnvyA9YyTc//hgWWbPzmuKArPdcrHXSZ5g6b9NPhl2pHjA0EgcwnALzO3bXBlGU4g/X6ZOASzORIdM/ND0eyjieRWvzhxt8EVbukiZ2P7tI/AdSJcFxSctM74/zW7buqO880RSnVZG74wZuYHt/cr+7s/lfzdn0ru6F82bu72M4HzTezdidvO3VlEOSCzcgnyltRRfGaPI0BZ8V0h8ZkdJovHZPPJVn+fgnLXqq+uNDZR3iY+HiLDvwOtLw9+2ZoHXoGArgnAL3Xd/Kh8KgS6yy/VLvKP950x2fy9C8pNFo/08NvC3NMGNp6PDWEMqgsPdotl8vil6Az2cgR/5wl9WX1VUaLNUSXYcMm74eAzc7c/O/+jxZu/OX/pKmuCyI4fGn+5KHRH4hSlTrhsxgc7+YRxPqGH/DIgFNEi4+LLX8k2GkSbay8Xzd5n5m6/dKWJx3oZlsxdque6Xxz45XWxYCcI6JMA/FKf7Y5aa0CgW/wyMYQZPnu5cOIm0eLNtfnkgUuEyYeEknqhqC4TliNXp7DwlccHrWk4UEuKyTI5KpcamxubaSEfyr0TiXxa1Xh3RfjWBQnz37NGLtVu8XhclsKWfJHxqd/wOT202qfZO2rqO4H6i2yVptgo2x408pJ/neCXGvysoAgQyBYC8MtsaUnUI+0EusUvea8pN4+mpkjpmv2y3d+7sMKU7zaO3U7LDKohzO5eK5IrJoVUnYFeRYH/XhxecehSY1NEUSjbJV8r8vLViGffpf8oD99Ocsm6jOMe1i1hV80/VO0Wj204g4aiOkNpgzDlG3nwMj6nx2jxDnhm/aHvQ4lzenqcXNLFN9FELrfb/bOf/SwnJ8ftdrMp8PQPCf7Wjh07evXqlZOTM2HCBL4nGuULOCknT568++67c3JyBgwYUFdXp56Y9q81PhAEQEAbAvBLbTiiFB0S6Ba/bIlfskjgl4dr/+OhlSZ7ea7VKw9aKrx+jNylqE6Md8jG+qm7LhzIP4h7bXvPgZ/PDxidwcI1DXM/v7ji4OWlBy7N+OSCeWWD4KA5QKKTgpdq1FNzz+u2AhPil1TBojpDcUh443t5yApTfpmJsl36fz9y6fu7fqDIJYvp9kSz5F9/+KUOfwZRZRC4EQH45Y3IYD8I3IRAN/qlOgTzwuWr4+d9dHu/sj6DKk0DFhnHfsjihcFWXeRdIJeqCNIoz8TyW+dFUg8TXUHWUR78+3mB2xYEjK6g6AreOj/w9/MCdzpaFrPJnpk9CVrJK0WzxR0BmuM/84T0wHoeuZRtvn8etmTdh8fUBuVy2UMVE355k58MvA0CeiIAv9RTa6OumhLoLr9UQ5jcQj744pTR7O1TWJFr9UkDlwjTjhqK62mQXzyEyWOZmgXwWpsTyRP3S26W6jOfy5LQR89X9KG+ckfwDkfwTgdN/WHeydbsYYUk+GjGT9lJtOo22yqiOBnBwVJdltQLM09KI0kuaVqPzf/rwZXrtpNcqm2qiqamt2qaCoNfpgk0PgYEegIB+GVPaCVcY0YS6F6/jE2OUZTLjU0vFX9ye7+yvoMqTfllFMIsquMTycks+QrXbQQouZeqNvENZpZkhDzVjjNocIYMtNQhPasB1NiQ0PiVXLMwT0vCyyyUSz5ggPGhyOWbJ6Rhq3m3uMnm71NY4V53kN/aatiyh0YueS3glxn5Q4WLAoHuIQC/7B7u+NQsINCNfqmGu5ojNHli75G63w5fItn8NJF80FJh2hGDK0QhTEdA5IMaW3dbdyKWqXqhOrYyHpPjJdOi544AOWVxWJhTJbz+LT2zlWna+CJ/yXyXLzJOCTJj+psdIy/b+HdcLsm5S8LCjO+kketMZk/vgnK+dtG8JXsuN9KEGOaU9NTD0hFd8x2GX16DBDtAQL8E4Jf6bXvUPEUC3euXqmIqinLh0tWXij8xWqiXnHJhPvYOGd61ksdkMQm5pBhkQsgzFpLkAwpdIUNJPa0b9Mp+6cGNUuESafRmYdZJWvbQGeD6qH4iP1F0tTLLNseoB/ewDc5WBdVKLuuF6cfk4WtMFm/vgnLJQssXLVyz/ypNpY9lbOrRYUv1ewS/VFFgAwRAAH6JewAEkiSQIX4ZocVvlE++Ov2nx1aLZm9ugV82l4mTDxqKwxRcjI/CjIUPO6KYiXG4NsLkClFveFEdTVVxhSlmWVQrTP/W+MgWOb9MNntybT7K5jhhl1BcT0d2/zJCaRnHqRJryaBOIwRonIArJEw5JA9cYjK7WeTS33dghXPlvkiEVujhbcflkmcGTfJezIzT4JeZ0Q64ChDICALwy4xoBlxETyTQ7X6ZGMK82tQ8pexzweztXciW8xm8TJh1gnrJ+fhIVYDU+TfXbMRMtE0/OB++yXNqFtUJC2pJm4rrDS7qDRcnf2184n3Z5pf6L8wtKO9dUHH7vQtvs1QIr+4XaDH0lvhlzG4TgqA9LDx5oytPHD/AaTOABgctz2NwBcWX9pFcWqhdJKvvN0OXFK/af+kKrbfO1sxE/BL5L3vijx+uGQRuTgB+eXNGOAIErkug2/1SXaKa5008fvqsefyGO/qX9Sksl81u4xPv88GRXBxpuCSfkdPuc4v2xUVTdNTRhCFHQCgOGxaeI2ed8Z347KfGB9+S7BVynttk9fUdWGHI9/w/fy69b+zaZ7wH+jhraW543L24XGahYiZYO4/U0gAAB0ty6QoLC2qNT30k28tNVm/vggoh3/PvD61Y88G3TbHIZbZ1jqtJ1JFf/bo/F9gJAnojAL/UW4ujvpoR6Ha/5DXhvatXm5oVRdmw/btfD1ksWWg9a9leLr56gAKNRbW0aCQlXafpPu09+Exweq5jD9bDW8z6wZ1BYfYp8dX94hPvS4OXSfluOd+day/vXUALZ99236LfDFvyfMmnR38In29SRr997tb5AVMxjQHlE8azWS4TwpYU3KUM6mFh9inp8XflvDKSy8JyQ573jw+v3LzzOF+WpnW3eE+f1dPyhUL/eAsLbIGA7gnAL3V/CwBAsgQywS/VEGYkQv2MjY3NL7g+kW1+k81vsnrkoauEmScNJWdpzRjSIDapnLkmN85Wz2ywpsBGVRpK6kmSHAGaDD7tiPjCl9KYbdLwNZLVK/VfKOe7exdW9Cms6JXnub2/+98eWvnMvB0f7DndxEaCKtHIZ1WNv/eGb50fkFxBg6NlVZ4ssUw+hjU+sLVlCjyb8CS4wuK0I9KoDSazW7b5eheUC/me+55e9/6PZ962AAAgAElEQVRutkJPhAZeZtm0HvULBL9UUWADBEAAfol7AASSJJAJfskvnYcwea6i/d8G+j+9XrL6TDYf5fF+YL046Wvx9WPCrJPC/GqDI0jzfkrqDSUNhtKz9ChpoEdxmCajzK8WZp4QXzssvvCl8emPjI9ulUauk4Ysk+zU4S7nl5msvj6FFb0Lym+7b9E/3rPoT0+snbN036cHaxrOX2GRuWhjUzO7jKh37yXBEbjTQUv1JPaP93jFVPvEExLLC04WtmQ5oYzP7VIXFu9bSLPFn3jzg/3fBhIHy8Yn9GRP5JLfh/DLJH9KcBoIZCMB+GU2tirqlBYCGeKXqqzQlBG2gPX/196dR0dR5f0fz5zR+XecM/o4OgMJSbqTIAqis6A8R5zfI45D9oQkIBj3bVx+g87gqKM/fRzRRwVBdtLd6SyAoMiqIiBRQEVEAQGDCausCUkI2dNL/c6t213pNDoPRLq6quvdJyd0eql77+ubDp9zq+rWOx/WXDWm3JYbiJj2PLe9oNxetMA+bpH9trftdy6z3/ee/cE19ofWia8H19jvf89+9wp78dviBUXz7fniTBR7rislxym+cp2palpNyXcnZjsv+9PchCxn4dPvL/lo/6ETLV3qIjvy2tle9chCr88nI+akja39pql72NVDOWNgHaLAOk3BiClXAA3sE599KmnqMduDa1LzS1PyxHn0KfnuhEzns3M+bTotwrc206zVS5dfUl0bIV/qyk1jCBhbgHxp7PrQOwMLGCRfBrKLCqWFmFfLv0gb7U4RudCdkusUs4/qBKRYRSirRHwP+9IeFK90puS6UkTELE3OcQ3IciZkOe15pdfd9ea4Zz94pfKrT74+3tjSJSujngctdvr6xErvavs+n0fEXH9ju+++Vc39p9UnzxDLJJlyFjN4ilIgSspznuQiRHJhebm2/Bt1yf/cbr/trdQccbZT6uiylHz3f969qHTl7s4ucVysGrx7dosb+Jf6R3WNfPmj+HgzArElQL6MrXoyGh0FjJMvw6fH/Epbh+fx1zck57jEgZj5brGEUF6pGhldtlyX/Ywv9cFSW44rKcuZkOnon17ym1Elidmuq8cvyH3i3WfmbX7no33baurrmtrV7CiUfV6v2Beu3rRc6/erWUpGTL9/z0nPyPmNl70evIyQuspPaNDsOV39hxYAiuLjwXlKed696Kr2iFxbXlyYpylp8ne2v6xNGV2emuMUk5f57qQcV/Gzqz/dcVS9uFJg5jKGpy21zxz5UqPgDgIIkC/5HUCgjwKGypfhEVNR9h85lfP4CjVilqbli7nMlDyRIBMyHP0zShIyHOIrU/2eURKfUTIgy2kfXfa7Oxbe/Oiyuyatn7po+/uff3e0oa2j0xPIlDJFilXBAzctVkpBLULJxcM96ozmtuPdv3U2/DoYMU0TLuXhlTJQaqumB2cuxZXW5WnjT2+zF1Wk5qrJUsxcuu25pU/O2NjQ3KFVRFz4UV08XX7v42+bGd5GvjRDlegjAjoJkC91gqaZ2BMwWr6UwqFRZsvu47c8/E5yjrgsYYpYpbLi6bmbq748vPTjvWXvf+t4d4/z3T3lq7995+N9VVsPf7br+LZ9jSdOiYMFQ27iKjPqPGUgXcrsGPICcVcLmr3vBHaUr93XeV1pY7+p9bbgmpphu8sNNIupzVBqu8LVHClWtRRzlnXiqpszG8RiT5Nq7A+sFskyz5U22p2c67Tnuv78yDtLPqzRzhAPaoh/w8Ri8kfyZUyWlUEh0DcB8mXf3HgXAoph86WMNTLSbP+2LvOxZck5zisK3fZc17C73ixZ+U23XEiop4Z+RRFf4qaeneP1+jzB3d/BrfVKSNqDoXE27L6aREXE9Pv9q2o6rytt+NWU8B3lBprODD3UUtspLxchUpOlOEl8dlPizIbkF2tsj1SlFFam5jgHFpSljnYPyHT8rnjBP2d9sntfgzza0hcyYWmRcMn66j2fJ+4hgICikC/5LUCgjwLGzJdyNlF+V8+5Ub7aU3fzw+/YckrFdX1yXf3TnU/M+ux4Y7uiKN3d3q5urxol5cGUfhEGe980ndCHtVa0Z0PvaEFTntciTyevOtB1rUMsimmbKdZ4l8nSECeVh6xnKfqj7Q0PXhUzcUZ94ix1h/jkw7a/fZpSNF9dW96dNlqsbZmc48p+bLlcO13N5zJbBvaJh7LE/H3mL2O+xAwQgbMXIF+evRWvRKCXgGHzpRb+ZNxRFGXT9iMZE8SimFcUlg0qLIvPcNz38vpttQ3ylGaPvGShmh97jVD9QYuV2mbPfE3oI1q4VF8vTvfx+fwyYn56uOuWBU39pqkRU10XU91RLi6SrvdEZth+cPVHdQl60ZOkGScT1SvxiH3iMxsTZ9Qnvbw/+YktKbe9lZo5NzVfHGlgy3XZcktvfmjJ8yWfHTjarM7e9aydHkQIhYn9++TL2K8xI0TgrAXIl2dNxQsR6C1g5HypZUE1YooY+XXtyTue+yA5xzWo0H1lUdmATMfIh5c6V1W3tHsURenq8qgrowfCpBzouSZLjSeYruQ+dxkx1WMx/f7tx7vHvHPq4sn1yTNFylQvINkgj7/UZjQjezhm8JQdmSPFbKX8klfOnH4yeXq9uKLm9PrEOWLZ+aSXam0TNtqLl6TkulJznQOLyq8oLLv8lnnX3lb59OxPvth9Qg7Wo168yDqn8mi1Dr1DvgzV4D4CFhcgX1r8F4Dh913AyPkyJOGJHbXyjJNDx5sfeWV9YpYzNV9EzMQsx8DCsgf+p2rbXnHUoOL3ezxeebhkWLIM3dpZegWPP5QzpGJ7vuC6mMdavP+savn11LrE6eIa5YGcJ8+n0Q6C1GLfebyjbTw4XZrcM4cqTt8RV8ucXicmL+c0i2T5Yo3t4fX2W99MlcmysCytsGxAliMlr/TeF9eu/+JQa0e3WFhezM72DFNL9mcJFUsvI1/GUjUZCwI/UoB8+SMBebt1BYycL7WUo0VDucZQQ3PHK+VfXHfnm7Zc15VFZSl5rstvmXfDA0umLd5RfbDJL87yUbq65Vxm8FBMtcIycWqbPZuqyxOMZAfkG31+X7e69LrX55+6uW1oScPl6jXKk9QF2LULeZ//+cvQveHB6zoGcu10sStcTZb14iKZMxuSXvsu+Zkdtr+sSSlakJo5T5zEU1gmDrXMcQ0ZW3H7/1v95gd7mtTrYarhMqDkEWdEiQsXaeBnQxRjryFfxlhBGQ4CP0aAfPlj9HivpQUMni+12gQTXuDqkd0e74dbDt369HuJWc4rCsquLHLHZ5Qk55amP7b8X+4vdh5oVN/o7+72iHUv5Rk6MioG1yHSZjf/1yylvUDekctmdqtnlHd5fOv3d9669NTlU+uTpp8M3VeuzWj28eyf0DQpTwCXk6PB/eDBZKmuNzS9Lmlmg9gV/kZd0vO7kx+tst++NKWgPDW7JDXHmVZYNrCoPD7TkTra/ehrVcs+qj18okXChtiIUK7d+hDEtfea/Q750uwVpP8InEcB8uV5xGRT1hIwUb7UQo/ck6v4leaWzmkLv7LlliZlOwepE5lJ2eK6PlePq3xkyoZdh8QJK+pSO2JOLixlhpY5NGtq98OmOUNTpnyN3Kbi9zd3eF//vC1hev2v1fPKww7BDD3pJ+wpMcfZO0eKFwTTZOApNVCGHmEpkuX0enGE5XRxyUoRK+c0J716KHnCRvv4RSniWpriquupea7UAndqgVh4yJbrmjDlo2176lraei6JqR5vEBiuoijHTrZNrtw6cdqGxWu/7fKoF4QMSeShXLF9n3wZ2/VldAickwD58py4eDECPQJmyZdq2gusbymTnxb4Pv7y8J3Prx4ytsKeF7jGT2KmIz7Dcc1tC+55ef2Sj/cfON7Srl5BWx22vHKP+C6Pp5Tb6REJ3tOCZtid4PPykFCRXBVFrIi0Zl9n1qJTidNPxr8RuFK5nGLU5i+1GU3tjlzhSPwYcoBmz4UcgxfaUUNnzzYTZ55MmqWerj6tTpwS/uRW+33vp4yZn5LrTM1xpInL8LhT8ty2PLEi/Y33v/WP6Rs3bjvc1iFOgZI3uTs8lPF4Q9s/Zmyc+87XKzfuf8GxuXTFrm41YsqxB99niX/Jl5YoM4NE4OwEyJdn58SrEDhDwET5UptQ1AJfYJFGRWlobl+xYd89L6wRKTPXlZJfmprvTsp2Dch0XlFYftPDSydM3Vi5pmbXgabObq8WKNXTdfx+sfZQ4KZtWXvNGWDigeBBmepJ5X41YoqH/MdavO4d7bcsEAtk9ptWL5YEEju1G9RTcBrUO+JEby1B9sTKkDlLdf5SnZucHljIPVENoOqBlY2J0+uSXj2Y/OzO5AkbbHetSBmzQFycPceZqo46Jd9tyyu155UOHVd5x3OrHct27trb0O3xyVGEji54X4ym2+Ob9fb2l91bHMt2Tl+0bcr8L19yb/ns62Pi0ExxpKm1VsEkX37v7zwPImBNAfKlNevOqM+DgLnypRywNnMZFn1a27s3bT96z7/WDhLnsrjteaX2XLG7XL1kuTMpxzX41sr8J9+b+tbXm6vrm1o6O7s8wYQqr/0jtxeMm+oZ64EzX4JxLOzfwBsCk6HiEt0+n7+x3Tvvy7ZhpY39ptXHv1GfMF0uYHTSFlzzPHQPeGCRdnWXt8iRah4VB1OqFwcX61bOakiaeTJpytGkF6qTH99ku2u5vbBS7AHPdaXlu1LzXPbcUltuqYyVgwrL//jAW/9ybq7e39De0R2akmXPgx0WkNojbR3dj7y6fllV7XPzPr3j+Q/mv1/9xptfrdiwVyyHSb50OOQhFtqlfTZs2DBgwIC4uLiJEyfKMConwhVFOXjw4IgRI+Li4jIzM+vq6rQ3nocPKptAAIFoCJAvo6FOmzEhYMZ8qcGHBU1/8IqRW785/tSMTel/XXbN+IrUvNLELHF9moGj3QPVqyBefsvchCzXDQ8ueXTqRsfKbz7efnTnvobvTrQ2t3Z1i6sABWb7tFYUvyIjp7zgpMcr1j8KfldPuPb6vF5x4pH6AjEVqii+46c9kz9tuamiIW1Wff+pdZe9Xhc/TSxmpB40qR43OUPdxy0SpPolM+X0+qRpJ5JeP5r02ndJk2qTn/1aZMp7VtrVy+2kZpek5ToHFrjTCkR6HpDlTM4WO8F/V7wgfcKyv06uWlpV23i6Q/ZcC5dajgy9E8yX4l+vz7/wgz1PvLFxyfqaz3cde+KNDS+UfLZtj4hHzF86yJc9nwTuIWA5AfKl5UrOgM+XgKnzZRBBBCd53+8PnGCuKMq+I6eWrK95Zs6nWROWXzu+MjHLGZ9eYs8rvbKw/MrCMnuuKyHDEZ9eklpQdv09i/L+8d7Dr1W9VP5lybJdyzce+HT3iW+/azrW2N7U0tXe6fH2Ors62OxZ/NvUpazc2/3kR22jFp++ytGcJM7FOZU4q0nMSs44KZZAn3Ik6ZWDSZNqkp/blfzUl8mPf2J7aJ397pX28YtTCsrFaTo5joF5zoGjxVWL0grKbHml8RmOfqNKBhWW3XDv4jue/+Bl95Z3N+3ff7RZ9jH0oFItUMrJyjP7q72gpa3r1Yqts9/e8faHNS+5trz9YY2aLOXzfR38me2Z4RH2j5uhSvQRAZ0EyJc6QdNM7AnEQL7UZjG1lOnzB1YLV3dQ+o/Wt67csO+Z2Z/k/G35tePnJ6Q74jMdSTliv/nAAvcVBWUDR7ttuS71rKCShAyHfXTZkHHz//Pet3KffP+eF9f9fcamVxbucL3/7bKP93249fDm6rodexu+OXiq9kjzwWOnD59oOXay9Xhje11Te92pDvl1orH9SH3rwROnDx0/vf9o8+6Dp1Zub3hw8XdXTqpO/Od22xNbkh/blPzQh7b73rPfucx+6yKxyzvfnZLjSMlxiHN08lxXjHar85RlKfnu5ByXCMcZjoQMx9Bxlen/d+mjr1a5lu/cUVPfFrIT3KtexFJD0LKj9kjYb2/gBYEM6W/r6P7oy8OL1n67a19DcEEn8Zyc6Qx7bwz/SL6M4eIyNATOVYB8ea5ivB6BgEAM5Es5Ei0JBfOSesVwdbe1VuwTDW2r1POj735hTeaEZcPuXDh4THnaaLGjOTHLmSIuCFQ+ZGzF4LEVgwrLUvJK40fN+9XI2Rf/n1kX/9fsS0bOuXTknH4ZjoFjKq+5Y9H19y+56eGloyYsz/nbisIn3x377Ae3Pb+2+L8DX+Oe/aDwyfdy/75i1F+X3fjQ0mH3Lhl+71vD71wwKM9pz5ybkjknJXNuSsac1My5aTklA/NdgwrLBhWVDxpTkVZQbstzJ+W44jMciVnOgQVlQ8ZWDL/rzZzHl9/7r7X/7di8rKpWXihcG7VYEd0rTmAPu51NLgy9FGRoDJWbCu5DZ/5SUY95UGT05PhL7QPFHQRiXoB8GfMlZoCREoiZfKkBBU/uFnlJ5iSfz9/t8WqnUSuK0tzaVX2gYc3mg87lO18q/fyRV9bn/33lHx94e/DYiv6jSn5185z+o0qSc1xpo8uuGltxzbjKa8dXXjOucui4yiFjywcVuNPyXPYcZ1KWIyHT0T+9pH/6vH7pJf1GlfQbNU9+9U+fpz4uZkMTMx22bKctx2XPE/n1qrGVV46pvHJs5aCxlWmF5bZ894BsV//0kl/dPPeyP82155YOu33hnx5+57Zn35/4xobJlVsr3/2maut3Nd81nW4NLF0pT7vpDr0MZs+5OqEpUSP5wTuqT+D0cL/f7/H6uj0+deX4nrD6g2+O0SeYv4zRwjIsBPoiQL7sixrvQUBRlNjLl7Ks2n7d0Kk4n09EKHlOdOBlir/L4z3V0rnvyKmt1SfWfn5o4QfVr1V88dfJVUVPvffHB966qqj8N38u+Y+bZv/HTXMuvXnu5bfM+82fRZqMT3ckZDgHZDoTsxxJ2c7EbHF+elK2MznbmaR+JWaLOdHETGdCpjM+XcTQ34yad/kt8y4dOeeSm+Zc8l+zL/vT3LR89/C7xdzk/ZPWPjvnk5KlO1Zs2Ldx25GdtSeP1re2dohrXPb8lvrF2dweT2Cd+OAwQ8fX89qzvxc67xt817mF1OC7YuRf8mWMFJJhIHA+BMiX50ORbVhSIFbzpVbMsPwk45g8QFOc8R085Vx7vbzT2t59uK7lm/0Nm3ceW/3pgcVrvy1dsWv229tfn//ly6Vbni/57KmZmya+seGxKR898ur6v7z84QOT1t0/aa34enHd/S+ue3DSur+8/OEjr1ZNmPzRxGkbnpq56bl5n71UumVK5ZczF29zLt+1cHX1u5v2bdp2dEdN/f4jzY2nO9Sr6YT1Qswsen3itHRxbGXPlGLPvfA39OnnUCJ102eza71PLZnhTeRLM1SJPiKgkwD5Uidomok9gZjPl6ElC5vU1GKazyfOB5JTmx5193Dou8Lue32+rm5ve6entb37dFvXqZauptOdjc0djc0dDcGvxuaOptOdp1q7Trd2tbZ3t3d6urq/b+Wj3puWyxupx1OKScqQQBnY/631v/f7+Ol8CpAvz6cm20LA5ALkS5MXkO5HT8BS+VJjDpuxC52vk6HTp66U7vUFVrXUzqfWttDnO2Ild7lxdb1M9SLm4lQk7aZtWXtE6632FHciJ0C+jJwtW0bAdALkS9OVjA4bRcCa+TJMXwtw8o58NvTB0KgXdl8k0R/+CnvxmT+GRVvtlG2t9bCu8mOkBciXkRZm+wiYSIB8aaJi0VVjCZAvjVUPehNtAfJltCtA+wgYSIB8aaBi0BVzCZAvzVUvehtpAfJlpIXZPgImEiBfmqhYdNVYAuRLY9WD3kRbgHwZ7QrQPgIGEiBfGqgYdMVcAuRLc9WL3kZagHwZaWG2j4CJBMiXJioWXTWWAPnSWPWgN9EWIF9GuwK0j4CBBMiXBioGXTGXAPnSXPWit5EWIF9GWpjtI2AiAfKliYpFV40lQL40Vj3oTbQFyJfRrgDtI2AgAfKlgYpBV8wlQL40V73obaQFyJeRFmb7CJhIgHxpomLRVWMJkC+NVQ96E20B8mW0K0D7CBhIgHxpoGLQFXMJkC/NVS96G2kB8mWkhdk+AiYSIF+aqFh01VgC5Etj1YPeRFuAfBntCtA+AgYSIF8aqBh0xVwC5Etz1YveRlqAfBlpYbaPgIkEyJcmKhZdNZYA+dJY9aA30RYgX0a7ArSPgIEEyJcGKgZdMZcA+dJc9aK3kRYgX0ZamO0jYCIB8qWJikVXjSVAvjRWPehNtAXIl9GuAO0jYCAB8qWBikFXzCVAvjRXvehtpAXIl5EWZvsImEiAfGmiYtFVYwmQL41VD3oTbQHyZbQrQPsIGEiAfGmgYtAVcwmQL81VL3obaQHyZaSF2T4CJhIgX5qoWHTVWALkS2PVg95EW4B8Ge0K0D4CBhIgXxqoGHTFXALkS3PVi95GWoB8GWlhto+AiQTIlyYqFl01lgD50lj1oDfRFiBfRrsCtI+AgQTIlwYqBl0xlwD50lz1oreRFiBfRlqY7SNgIgHypYmKRVeNJUC+NFY96E20BciX0a4A7SNgIAHypYGKQVfMJUC+NFe96G2kBciXkRZm+wiYSIB8aaJi0VVjCZAvjVUPehNtAfJltCtA+wgYSIB8aaBi0BVzCZAvzVUvehtpAfJlpIXZPgImEiBfmqhYdNVYAuRLY9WD3kRbgHwZ7QrQPgIGEiBfGqgYdMVcAuRLc9WL3kZagHwZaWG2j4CJBMiXJioWXTWWAPnSWPWgN9EWIF9GuwK0j4CBBMiXBioGXTGXAPnSXPWit5EWIF9GWpjtI2AiAfKliYpFV40lQL40Vj3oTbQFyJfRrgDtI2AgAfKlgYpBV8wlQL40V73obaQFyJeRFmb7CJhIgHxpomLRVWMJkC+NVQ96E20B8mW0K0D7CBhIgHxpoGLQFXMJkC/NVS96G2kB8mWkhdk+AiYSIF+aqFh01VgC5Etj1YPeRFuAfBntCtA+AgYSIF8aqBh0xVwC5Etz1YveRlqAfBlpYbaPgIkEyJcmKhZdNZYA+dJY9aA30RYgX0a7ArSPgIEEyJcGKgZdMZcA+dJc9aK3kRYgX0ZamO0jYCIB8qWJikVXjSUQli+rq6sVRfF4PF6vt7OzU1GUioqKOPXmcrkUReno6PB6vfL/4NraWvnUuHHjFEVpa2vzckPA5AJdXV2KosybN+9nP/tZXFycw+FQFMXn88nPhaIoGzZsGDBgQFxc3MSJE+UHwe/3yxccPHhwxIgRcXFxmZmZdXV12huN9ZmnNwggcNYC5MuzpuKFCPQWCMuXhw4d6v28snjxYhki58+fH/bUkSNH5FO333572FP8iICpBcrKysiXpq4gnUfgvAiQL88LIxuxokBYvly3bt3Ro0drampqa2urq6ubmpqmTJkiQ+Qrr7zS1NRUXV1dW1tbU1Nz5MiRqqoq+VR2dnZra+vu3btruSFgcoE9e/YcPnx40qRJF154IfOXVvybyJgRCBEgX4ZgcBeBcxGQ+fLuu++Oi4u78MILhw4dOnz48OvU27Bhw2644QabzSZDZHJy8g033DBs2DD57PDhw4cOHSqfuuSSS0aMGPGHP/xBPsV3BMwrMGzYsOHDh9tstgsuuOCnP/2p0+nUdnPLveHsHz+XPzC8FgFzC5AvzV0/eh9FAZkvx4wZI5Pi937/iXo716e+9/U8iIC5BGbNmkW+jOIfKJpGILoC5Mvo+tO6iQW6u7sVRZkxY8ZNN91UqN6KiorknYKCguLi4mHDhslA8Pvf/764uLigoEA+e+utt6anp8unEhIS7rjjjtGjR8un+I6AqQWKiooKCgry8vLy8/PXrVunKIrf7+f8HhP/maPrCPRVgHzZVzneZ3kB+R9na2vryZMnG3vf5Amwc+fOlSFy5syZiqKcOHGisbGxoaGho6Pjq6++kk8VFhYqinLs2LHeG+AnBEwvIFdRIF9a/i8lABYVIF9atPAM+7wIyP87f2hTCxculCGyoqIi7DWHDh2STxUXFyuK4vV6w17AjwjEgID2AeH4yxioJkNA4JwEyJfnxMWLEegRkP93ygX8fL1vciFAbf3L0tJSRVG6urp8Pp+Mknv37pX5cvz48YqitLe3994APyFgegHtA8L+8Z6/GtxDwDIC5EvLlJqB6iggD82srKyUIdLtdst8qa0mHZYvOzo6/NwQiF0B+Yn4+OOPWV9dx79DNIVANAXIl9HUp+1YFQjLl3L/uLavUFEU9o/HaukZ178R+OSTT8iX/8aHpxCIJQHyZSxVk7EYRSAsX86dO1dRlKamptbW1paWFr/fv3PnTjm1OWbMGEVRGhoaWrkhELsCzc3Nfr9/zZo18fHxXB/SKH+n6AcCkRQgX0ZSl21bVUDmy/nz58sQef311991111jxoy5Vb0VFxdnZWXJpwYMGHDPPfdoT8kX8B2BGBMYO3ZscXHxyJEjL7roIvKlVf8uMm5rCZAvrVVvRquPgMyXbrdbhsjv/f4T9fa9T/EgArEt8Oijj8ozyrUjkg8ePDhixIi4uLjMzEy5vJfP59Pn00orCCAQCQHyZSRU2abVBeT/natWrbr00kuvueaawYMHX3311UOCt6FDhw4cOFAGiF/84he//e1vBw8eHHySfxGIWQH5e56cnDx58mTypdX/SjL+WBcgX8Z6hRlfNATkqTynTp3asWNHdXX17t63/fv3r1mzRubLzMzMhoaGbdu29X4JPyEQmwLffPPNrl27Tpw4oa1eJOcpmb+Mxh8q2kQgggLkywjismkrC4SeLX6mw+HDh2W+vP3227Vr6J35Mh5BIIYF5GeEfBnDJWZoVhYgX1q5+ow9UgLa3IzH4/H2vsndgjU1NTJfjhs3TlGUtra23q/iJwRiWcDn82mfEfJlpP4MsV0EoipAvowqP41bT0D+b7pv3z6ZL+X1ezo6OqwnwYgREALkS34PEIhJAY9xFqUAAAgtSURBVPJlTJaVQRlX4IfyZexeuoWRIfDvBOQVUzn+0rh/s+gZAn0SIF/2iY03IdBXgbB8WVxcrF2dua+b5H0ImF7gyJEjN954I+sTmb6QDACBoAD5MijBvwjoIhCWL4cMGfL6668/88wzz3NDwJICzz333IsvvvjYY48lJibGxcVlZGSw/qUuf4poBIHICpAvI+vL1hEIE5D5cu/evfL4S74jgECowMiRI8mXYX80+BEBMwqQL81YNfpsYgF52uyBAwfi4uIuvvjiiy666OfcEEDg5z//5S9/ecEFFxQUFNTX12vn/SjcEEDAnALkS3PWjV6bVkDmy7a2thUrVqxevfp9bgggoAqsXr161apVW7du7erqYlFY0/6Fo+MIBATIl/wqIKC3gIyYerdKewiYR4DPiHlqRU8R+H4B8uX3u/AoAhESkP9x+v3+M5dej+UFtRkbAmchID8U2mckQp9BNosAAjoIkC91QKYJBBBAAAEEEEDAQgLkSwsVm6EigAACCCCAAAI6CJAvdUCmCQQQQAABBBBAwEIC5EsLFZuhIoAAAggggAACOgiQL3VApgkEEEAAAQQQQMBCAuRLCxWboSKAAAIIIIAAAjoIkC91QKYJBBBAAAEEEEDAQgLkSwsVm6EigAACCCCAAAI6CJAvdUCmCQQQQAABBBBAwEIC5EsLFZuhIoAAAggggAACOgiQL3VApgkEEEAAAQQQQMBCAuRLCxWboSKAAAIIIIAAAjoIkC91QKYJBBBAAAEEEEDAQgLkSwsVm6EigAACCCCAAAI6CJAvdUCmCQQQQAABBBBAwEIC5EsLFZuhIoAAAggggAACOgiQL3VApgkEEEAAAQQQQMBCAuRLCxWboSKAAAIIIIAAAjoIkC91QKYJBBBAAAEEEEDAQgLkSwsVm6EigAACCCCAAAI6CJAvdUCmCQQQQAABBBBAwEIC5EsLFZuhIoAAAggggAACOgiQL3VApgkEEEAAAQQQQMBCAuRLCxWboSKAAAIIIIAAAjoIkC91QKYJBBBAAAEEEEDAQgLkSwsVm6EigAACCCCAAAI6CJAvdUCmCQQQQAABBBBAwEIC5EsLFZuhIoAAAggggAACOgiQL3VApgkEEEAAAQQQQMBCAuRLCxWboSKAAAIIIIAAAjoIkC91QKYJBBBAAAEEEEDAQgLkSwsVm6EigAACCCCAAAI6CJAvdUCmCQQQQAABBBBAwEIC5EsLFZuhIoAAAggggAACOgiQL3VApgkEEEAAAQQQQMBCAuRLCxWboSKAAAIIIIAAAjoIkC91QKYJBBBAAAEEEEDAQgLkSwsVm6EigAACCCCAAAI6CJAvdUCmCQQQQAABBBBAwEIC5EsLFZuhIoAAAggggAACOgiQL3VApgkEEEAAAQQQQMBCAuRLCxWboSKAAAIIIIAAAjoIkC91QKYJBBBAAAEEEEDAQgLkSwsVm6EigAACCCCAAAI6CJAvdUCmCQQQQAABBBBAwEIC5EsLFZuhIoAAAggggAACOgiQL3VApgkEEEAAAQQQQMBCAuRLCxWboSKAAAIIIIAAAjoIkC91QKYJBBBAAAEEEEDAQgLkSwsVm6EigAACCCCAAAI6CJAvdUCmCQQQQAABBBBAwEIC5EsLFZuhIoAAAggggAACOgiQL3VApgkEEEAAAQQQQMBCAuRLCxWboSKAAAIIIIAAAjoIkC91QKYJBBBAAAEEEEDAQgLkSwsVm6EigAACCCCAAAI6CJAvdUCmCQQQQAABBBBAwEIC5EsLFZuhIoAAAggggAACOgiQL3VApgkEEEAAAQQQQMBCAuRLCxWboSKAAAIIIIAAAjoIkC91QKYJBBBAAAEEEEDAQgLkSwsVm6EigAACCCCAAAI6CJAvdUCmCQQQQAABBBBAwEIC5EsLFZuhIoAAAggggAACOgiQL3VApgkEEEAAAQQQQMBCAuRLCxWboSKAAAIIIIAAAjoIkC91QKYJBBBAAAEEEEDAQgLkSwsVm6EigAACCCCAAAI6CJAvdUCmCQQQQAABBBBAwEIC5EsLFZuhIoAAAggggAACOgiQL3VApgkEEEAAAQQQQMBCAuRLCxWboSKAAAIIIIAAAjoIkC91QKYJBBBAAAEEEEDAQgLkSwsVm6EigAACCCCAAAI6CJAvdUCmCQQQQAABBBBAwEIC5EsLFZuhIoAAAggggAACOgiQL3VApgkEEEAAAQQQQMBCAuRLCxWboSKAAAIIIIAAAjoIkC91QKYJBBBAAAEEEEDAQgLkSwsVm6EigAACCCCAAAI6CJAvdUCmCQQQQAABBBBAwEIC5EsLFZuhIoAAAggggAACOgiQL3VApgkEEEAAAQQQQMBCAuRLCxWboSKAAAIIIIAAAjoIkC91QKYJBBBAAAEEEEDAQgLkSwsVm6EigAACCCCAAAI6CJAvdUCmCQQQQAABBBBAwEIC5EsLFZuhIoAAAggggAACOgiQL3VApgkEEEAAAQQQQMBCAuRLCxWboSKAAAIIIIAAAjoIkC91QKYJBBBAAAEEEEDAQgLkSwsVm6EigAACCCCAAAI6CJAvdUCmCQQQQAABBBBAwEIC5EsLFZuhIoAAAggggAACOgiQL3VApgkEEEAAAQQQQMBCAuRLCxWboSKAAAIIIIAAAjoIkC91QKYJBBBAAAEEEEDAQgLkSwsVm6EigAACCCCAAAI6CJAvdUCmCQQQQAABBBBAwEIC5EsLFZuhIoAAAggggAACOgiQL3VApgkEEEAAAQQQQMBCAuRLCxWboSKAAAIIIIAAAjoI/H+htJZhdSV1SwAAAABJRU5ErkJggg==;" vertex="1" parent="1">
          <mxGeometry x="160" y="430" width="105" height="59.08" as="geometry" />
        </mxCell>
      </root>
    </mxGraphModel>
  </diagram>
</mxfile>
